<svg id="Layer_1" data-name="Layer 1" xmlns="http://www.w3.org/2000/svg" viewBox="0 0 75 75"><defs><style>.cls-1{fill:#fff;}</style></defs><title>instagram</title><path class="cls-1" d="M37.5,0C27.32,0,26,0,22,.23A27.36,27.36,0,0,0,12.94,2a19.08,19.08,0,0,0-11,11A27.36,27.36,0,0,0,.23,22C0,26,0,27.32,0,37.5S0,49,.23,53A27.36,27.36,0,0,0,2,62.06a19.08,19.08,0,0,0,11,11A27.36,27.36,0,0,0,22,74.77C26,75,27.32,75,37.5,75S49,75,53,74.77A27.36,27.36,0,0,0,62.06,73a19.08,19.08,0,0,0,11-11A27.36,27.36,0,0,0,74.77,53C75,49,75,47.68,75,37.5S75,26,74.77,22A27.36,27.36,0,0,0,73,12.94a19.08,19.08,0,0,0-11-11A27.36,27.36,0,0,0,53,.23C49,0,47.68,0,37.5,0Zm0,6.76c10,0,11.2,0,15.15.22a20.5,20.5,0,0,1,7,1.29,11.61,11.61,0,0,1,4.31,2.8,11.61,11.61,0,0,1,2.8,4.31,20.5,20.5,0,0,1,1.29,7c.18,3.95.22,5.14.22,15.15s0,11.2-.22,15.15a20.5,20.5,0,0,1-1.29,7,12.37,12.37,0,0,1-7.11,7.11,20.5,20.5,0,0,1-7,1.29c-3.95.18-5.14.22-15.15.22s-11.2,0-15.15-.22a20.5,20.5,0,0,1-7-1.29,11.61,11.61,0,0,1-4.31-2.8,11.61,11.61,0,0,1-2.8-4.31,20.5,20.5,0,0,1-1.29-7c-.18-3.95-.22-5.14-.22-15.15s0-11.2.22-15.15a20.5,20.5,0,0,1,1.29-7,11.61,11.61,0,0,1,2.8-4.31,11.61,11.61,0,0,1,4.31-2.8,20.5,20.5,0,0,1,7-1.29c3.95-.18,5.14-.22,15.15-.22"/><path class="cls-1" d="M37.5,50A12.5,12.5,0,1,1,50,37.5,12.5,12.5,0,0,1,37.5,50Zm0-31.76A19.26,19.26,0,1,0,56.76,37.5,19.26,19.26,0,0,0,37.5,18.24Z"/><path class="cls-1" d="M62,17.48a4.5,4.5,0,1,1-4.5-4.5,4.5,4.5,0,0,1,4.5,4.5Z"/></svg>