<svg id="Layer_1" data-name="Layer 1" xmlns="http://www.w3.org/2000/svg" viewBox="0 0 550 550"><defs><style>.cls-1{fill:#fff;}.cls-2{fill:#8d7f56;}.cls-3{fill:#010101;}</style></defs><title>logo</title><circle class="cls-1" cx="275.5" cy="274.5" r="275"/><path class="cls-2" d="M301.68,301.55c-14.05,28.41-40.14,28.41-54.19,0,7.36,2.41,15.91,7.24,27.57,7C285.09,308.33,295,303.74,301.68,301.55Z"/><path class="cls-3" d="M274.29,160.58l.33.17.33-.17Z"/><polygon class="cls-1" points="274.62 161.16 272.74 160.22 276.5 160.22 274.62 161.16"/><path class="cls-2" d="M273.63,185.57a474.4,474.4,0,0,1,71,5.26,86.41,86.41,0,0,0-59.18-26.3,11.87,11.87,0,0,1-22.36,0,86.41,86.41,0,0,0-59.18,26.3,474.4,474.4,0,0,1,71-5.26"/><path class="cls-2" d="M196.22,196.75c-2.53,0-12.16-.2-19.91-7.23-2.46-2.23-6.26-5.67-7.48-11.12a55.44,55.44,0,0,1-1.38-6.64c-.2-1.82-14,0-14,0s-.18,1.22-.49,4.08-.61,5.72-.71,8.56a121.35,121.35,0,0,0,0,16.95,60.06,60.06,0,0,0,3.12,15.89,37.06,37.06,0,0,0,8.17,11.91c8.74,8.56,17.85,8.29,25.87,11.66,5.58,2.34,12,7.05,17.92,17a2.94,2.94,0,0,1-4.48,3.68l-.1-.09c-2.13-1.84-10.66-8.44-12.89-9.85a52.68,52.68,0,0,0-14.76-6.44c-2.75-.83-5.68-1.62-8.75-2.75a35.63,35.63,0,0,1-9.13-4.84,30.66,30.66,0,0,1-7.21-7.67,40.16,40.16,0,0,1-4.52-9,70.3,70.3,0,0,1-3.73-18.69,129.9,129.9,0,0,1,0-18.4c.11-3.05.49-6,.75-9.05s.75-6,1.12-9l.56-4.51h33.86a41.9,41.9,0,0,0,18.14,35.51Z"/><path class="cls-2" d="M353.22,196.09c2.52,0,12.15-.2,19.91-7.23,2.46-2.23,6.25-5.67,7.48-11.12a54.89,54.89,0,0,0,1.37-6.63c.2-1.83,14,0,14,0s.19,1.21.49,4.07.61,5.72.72,8.57a119.69,119.69,0,0,1,0,16.94A59.65,59.65,0,0,1,394,216.58a36.88,36.88,0,0,1-8.18,11.91c-8.74,8.56-17.85,8.3-25.86,11.66-5.58,2.35-12.06,7-17.92,17a2.93,2.93,0,0,0,4.47,3.68l.1-.09c2.14-1.83,10.67-8.44,12.89-9.85a53,53,0,0,1,14.77-6.44c2.74-.83,5.68-1.62,8.75-2.75a35.68,35.68,0,0,0,9.12-4.83,30.74,30.74,0,0,0,7.22-7.68,40.58,40.58,0,0,0,4.52-9,69.73,69.73,0,0,0,3.72-18.69,129.91,129.91,0,0,0,0-18.4c-.12-3-.5-6-.75-9.05s-.76-6-1.13-9l-.56-4.51H371.36a41.9,41.9,0,0,1-18.14,35.51Z"/><path class="cls-2" d="M292.06,326.31a24.33,24.33,0,1,1-33.12,0,36.78,36.78,0,0,0,33.12,0Z"/><path class="cls-2" d="M321.13,382.19A70.51,70.51,0,0,1,319,358.52H305.14c-4.22,10.32-15.82,17.76-29.52,17.76s-25.29-7.44-29.51-17.76H232.3a71.84,71.84,0,0,1-1.63,21,84.26,84.26,0,0,1-11.58,26.95H332.16A83.38,83.38,0,0,1,321.13,382.19Z"/><path class="cls-2" d="M274.29,191.06h0Z"/><path class="cls-2" d="M344.58,195.87a511.69,511.69,0,0,0-140,0v.22a126,126,0,0,1,7.21,14.47c11.62,27.63,7.5,45.88,11.86,61.82.61,2.21,2.43,5,5,8.13,23.8,28.4,68,28.4,91.79,0,2.62-3.12,4.44-5.92,5-8.13,4.37-15.94.25-34.19,11.86-61.82a126,126,0,0,1,7.21-14.47Zm-97.11,83.65a43.45,43.45,0,0,1-11.72-9.82,17.51,17.51,0,0,1-3.56-5.68c-1.17-4.27-1.5-8.71-1.89-13.85-.68-9.06-1.45-19.33-7.05-32.64a95.73,95.73,0,0,0-4.74-9.71c7.12-1,14.34-1.72,21.51-2.27C241.86,210.25,251.12,236.45,247.47,279.52Z"/><path class="cls-2" d="M258.15,143.18a10.61,10.61,0,0,1,6.6,10.17,9.54,9.54,0,1,0,19.07,0,12.26,12.26,0,0,1,7.46-10.17Z"/><path class="cls-2" d="M282.77,124.29a13.24,13.24,0,0,1-6.14-7.93l-2.26-7.75h-.18l-2.41,8.27a13.57,13.57,0,0,1-5.77,7.8,16.54,16.54,0,0,0-7.86,14.08h33.13A16.55,16.55,0,0,0,282.77,124.29Z"/><path class="cls-3" d="M205.26,427v31.85a199.37,199.37,0,0,0,140.73,0V427a13.26,13.26,0,0,0-13.26-13.25H218.51A13.25,13.25,0,0,0,205.26,427Z"/><path class="cls-3" d="M275,50c124.26,0,225,100.74,225,225S399.26,500,275,500,50,399.26,50,275,150.74,50,275,50m0-8.72a233.78,233.78,0,0,0-91,449.07A233.78,233.78,0,0,0,366,59.65a232.27,232.27,0,0,0-91-18.37Z"/><path class="cls-3" d="M275,78.45c108.55,0,196.55,88,196.55,196.55S383.55,471.55,275,471.55,78.45,383.55,78.45,275,166.45,78.45,275,78.45m0-17.24A213.08,213.08,0,1,0,358.22,78,212.52,212.52,0,0,0,275,61.21Z"/></svg>