<svg id="Layer_1" data-name="Layer 1" xmlns="http://www.w3.org/2000/svg" viewBox="0 0 350 350"><defs><style>.cls-1{fill:#fff;}.cls-2{fill:#010101;}.cls-3{fill:#8d7f56;}</style></defs><title>logo</title><circle class="cls-1" cx="175" cy="175" r="175"/><path class="cls-2" d="M175.06,310.66A135.66,135.66,0,0,1,79.13,79.07,135.66,135.66,0,1,1,271,270.93,134.77,134.77,0,0,1,175.06,310.66Zm0-265.35a129.69,129.69,0,1,0,91.7,38A128.83,128.83,0,0,0,175.06,45.31Z"/><path class="cls-2" d="M274.1,91.89c5.55,6.62.46,21.48-14.32,41.85s-37.49,43.82-63.95,66-53.49,40.49-76.12,51.51S81.56,264.72,76,258.11s-.46-21.48,14.32-41.85,37.49-43.82,64-66,53.49-40.49,76.12-51.51S268.55,85.28,274.1,91.89Zm-197.78,166c5.53,6.59,21,4.17,43.56-6.81s49.51-29.23,75.89-51.36,49-45.5,63.75-65.81,19.8-35.13,14.27-41.72S252.79,88,230.23,99s-49.51,29.23-75.89,51.36-49,45.5-63.75,65.81S70.79,251.26,76.32,257.85Z"/><path class="cls-2" d="M274.1,91.89c5.55,6.62.46,21.48-14.32,41.85s-37.49,43.82-63.95,66-53.49,40.49-76.12,51.51S81.56,264.72,76,258.11s-.46-21.48,14.32-41.85,37.49-43.82,64-66,53.49-40.49,76.12-51.51S268.55,85.28,274.1,91.89Zm-197.78,166c5.53,6.59,21,4.17,43.56-6.81s49.51-29.23,75.89-51.36,49-45.5,63.75-65.81,19.8-35.13,14.27-41.72S252.79,88,230.23,99s-49.51,29.23-75.89,51.36-49,45.5-63.75,65.81S70.79,251.26,76.32,257.85Z"/><path class="cls-2" d="M63.09,110.36c4.31-7.48,20-7.79,44.22-.86s54,20.24,83.91,37.51,56.34,36.41,74.44,53.91,25.68,31.25,21.36,38.72-20,7.79-44.22.86-54-20.24-83.91-37.51-56.34-36.41-74.43-53.91S58.77,117.83,63.09,110.36ZM286.68,239.45c4.3-7.46-3.26-21.17-21.3-38.61s-44.4-36.53-74.21-53.75-59.52-30.49-83.65-37.39-39.78-6.6-44.09.85,3.26,21.17,21.3,38.61,44.4,36.53,74.21,53.75,59.53,30.49,83.65,37.39S282.38,246.9,286.68,239.45Z"/><path class="cls-2" d="M63.09,110.36c4.31-7.48,20-7.79,44.22-.86s54,20.24,83.91,37.51,56.34,36.41,74.44,53.91,25.68,31.25,21.36,38.72-20,7.79-44.22.86-54-20.24-83.91-37.51-56.34-36.41-74.44-53.91S58.77,117.83,63.09,110.36ZM286.68,239.45c4.3-7.46-3.26-21.17-21.3-38.61s-44.4-36.53-74.21-53.75-59.53-30.49-83.65-37.39-39.78-6.6-44.09.85,3.26,21.17,21.3,38.61,44.4,36.53,74.21,53.75,59.53,30.49,83.65,37.39S282.38,246.9,286.68,239.45Z"/><path class="cls-2" d="M152.6,302.33c-8.5-1.5-14.16-16.16-15.93-41.27s.56-57.66,6.55-91.67S158.17,104,168.42,81,189,46.18,197.51,47.67s14.16,16.16,15.93,41.27-.56,57.66-6.55,91.67S191.94,246,181.69,269,161.11,303.82,152.6,302.33ZM197.44,48.07c-8.48-1.5-18.78,10.3-29,33.22S149.3,135.5,143.32,169.4s-8.3,66.37-6.53,91.4,7.41,39.64,15.88,41.13,18.78-10.3,29-33.22,19.14-54.21,25.12-88.11,8.3-66.37,6.53-91.4S205.91,49.56,197.44,48.07Z"/><path class="cls-2" d="M152.6,302.33c-8.5-1.5-14.16-16.16-15.93-41.27s.56-57.66,6.55-91.67S158.17,104,168.42,81,189,46.18,197.51,47.67s14.16,16.16,15.93,41.27-.56,57.66-6.55,91.67S191.94,246,181.69,269,161.11,303.82,152.6,302.33ZM197.44,48.07c-8.48-1.5-18.78,10.3-29,33.22S149.3,135.5,143.32,169.4s-8.3,66.37-6.53,91.4,7.41,39.64,15.88,41.13,18.78-10.3,29-33.22,19.14-54.21,25.12-88.11,8.3-66.37,6.53-91.4S205.91,49.56,197.44,48.07Z"/><path class="cls-2" d="M302.38,152.55c1.5,8.5-10.33,18.83-33.32,29.08s-54.38,19.2-88.39,25.2S114.1,215.16,89,213.38,49.23,206,47.73,197.45s10.34-18.83,33.32-29.08,54.38-19.2,88.39-25.2,66.57-8.33,91.68-6.55S300.88,144.05,302.38,152.55ZM48.12,197.38c1.5,8.48,16.11,14.12,41.14,15.89s57.49-.56,91.39-6.54,65.2-14.9,88.12-25.12,34.71-20.52,33.22-29-16.1-14.12-41.14-15.88-57.48.55-91.39,6.53-65.2,14.9-88.12,25.12S46.63,188.91,48.12,197.38Z"/><path class="cls-2" d="M302.38,152.55c1.5,8.5-10.33,18.83-33.32,29.08s-54.38,19.2-88.39,25.2S114.1,215.16,89,213.38,49.23,206,47.73,197.45s10.34-18.83,33.32-29.08,54.38-19.2,88.39-25.2,66.57-8.32,91.68-6.55S300.88,144.05,302.38,152.55ZM48.12,197.38c1.5,8.48,16.11,14.12,41.14,15.89s57.49-.56,91.39-6.54,65.2-14.9,88.12-25.12,34.71-20.52,33.22-29-16.1-14.12-41.14-15.88-57.48.55-91.39,6.53-65.2,14.9-88.12,25.12S46.63,188.91,48.12,197.38Z"/><path class="cls-2" d="M110.41,63c7.48-4.31,21.23,3.27,38.73,21.37s36.64,44.53,53.91,74.44,30.59,59.71,37.51,83.91,6.62,39.9-.86,44.22S218.47,283.7,201,265.6s-36.64-44.53-53.91-74.44-30.59-59.7-37.51-83.91S102.93,67.35,110.41,63ZM239.5,286.62c7.46-4.3,7.76-20,.86-44.08S220.18,188.7,203,158.89s-36.3-56.17-53.74-74.21-31.16-25.61-38.61-21.3-7.76,20-.86,44.08,20.19,53.84,37.4,83.65,36.3,56.17,53.74,74.21S232.05,290.93,239.5,286.62Z"/><path class="cls-2" d="M110.41,63c7.48-4.31,21.23,3.27,38.73,21.37s36.64,44.53,53.91,74.44,30.59,59.71,37.51,83.91,6.62,39.9-.86,44.22S218.47,283.7,201,265.6s-36.64-44.53-53.91-74.44-30.59-59.71-37.51-83.91S102.93,67.35,110.41,63ZM239.5,286.62c7.46-4.3,7.76-20,.86-44.08S220.18,188.7,203,158.89s-36.3-56.17-53.74-74.21-31.16-25.61-38.61-21.3-7.76,20-.86,44.08,20.19,53.84,37.4,83.65,36.3,56.17,53.74,74.21S232.05,290.93,239.5,286.62Z"/><path class="cls-2" d="M92,274c-6.61-5.55-4.19-21.07,6.83-43.7s29.32-49.66,51.52-76.12,45.64-49.16,66-63.94S251.55,70.41,258.16,76s4.19,21.07-6.83,43.7S222,169.32,199.82,195.78s-45.65,49.16-66,63.94S98.56,279.59,92,274Zm166-197.78c-6.6-5.53-21.41-.46-41.72,14.28s-43.69,37.37-65.82,63.75S110,207.61,99,230.17s-13.41,38-6.81,43.57,21.41.46,41.72-14.28,43.68-37.37,65.81-63.75,40.37-53.32,51.35-75.88S264.5,81.8,257.91,76.26Z"/><path class="cls-2" d="M92,274c-6.61-5.55-4.19-21.07,6.83-43.7s29.32-49.66,51.52-76.12,45.64-49.16,66-63.94S251.55,70.41,258.16,76s4.19,21.07-6.83,43.7S222,169.32,199.82,195.78s-45.65,49.16-66,63.94S98.56,279.59,92,274Zm166-197.78c-6.6-5.53-21.41-.46-41.72,14.28s-43.69,37.37-65.82,63.75S110,207.61,99,230.17s-13.41,38-6.81,43.57,21.41.46,41.72-14.28,43.68-37.37,65.81-63.75,40.37-53.32,51.35-75.88S264.5,81.8,257.91,76.26Z"/><path class="cls-2" d="M296.55,219.22c-2.95,8.11-18.37,11.14-43.4,8.52s-56.7-10.56-89.15-22.37-61.81-26.07-82.67-40.16-30.72-26.32-27.77-34.43,18.37-11.14,43.4-8.52,56.7,10.56,89.15,22.37,61.81,26.07,82.67,40.16S299.5,211.11,296.55,219.22ZM53.94,130.92C51,139,60.82,151.19,81.62,165.24s50.06,28.26,82.41,40S228,225,252.91,227.58s40.32-.41,43.26-8.5-6.88-20.27-27.68-34.32-50.06-28.26-82.41-40-63.92-19.7-88.87-22.3S56.88,122.83,53.94,130.92Z"/><path class="cls-2" d="M296.55,219.22c-2.95,8.11-18.37,11.14-43.4,8.53s-56.7-10.57-89.15-22.38-61.81-26.07-82.67-40.16-30.72-26.32-27.77-34.43,18.37-11.14,43.4-8.52,56.7,10.56,89.15,22.37,61.81,26.07,82.67,40.16S299.5,211.11,296.55,219.22ZM53.94,130.92C51,139,60.82,151.19,81.62,165.24s50.06,28.26,82.42,40S228,225,252.91,227.58s40.32-.41,43.26-8.5-6.88-20.27-27.68-34.32-50.06-28.26-82.41-40-63.92-19.7-88.87-22.3S56.88,122.83,53.94,130.92Z"/><path class="cls-2" d="M175.06,45.71c8.63,0,16.75,13.45,22.85,37.87s9.47,56.89,9.47,91.42-3.36,67-9.47,91.42-14.22,37.87-22.85,37.87-16.75-13.45-22.86-37.87-9.47-56.89-9.47-91.42,3.37-67,9.47-91.42S166.42,45.71,175.06,45.71Zm0,258.18c8.6,0,16.69-13.41,22.78-37.75s9.44-56.71,9.44-91.14-3.35-66.8-9.44-91.14-14.18-37.75-22.78-37.75-16.7,13.41-22.79,37.75-9.44,56.71-9.44,91.14,3.35,66.8,9.44,91.14S166.45,303.89,175.06,303.89Z"/><path class="cls-2" d="M175.06,45.71c8.63,0,16.75,13.45,22.85,37.87s9.47,56.89,9.47,91.42-3.36,67-9.47,91.42-14.22,37.87-22.85,37.87-16.75-13.45-22.86-37.87-9.47-56.89-9.47-91.42,3.37-67,9.47-91.42S166.42,45.71,175.06,45.71Zm0,258.18c8.6,0,16.69-13.41,22.78-37.75s9.44-56.71,9.44-91.14-3.35-66.8-9.44-91.14-14.18-37.75-22.78-37.75-16.7,13.41-22.79,37.75-9.44,56.71-9.44,91.14,3.35,66.8,9.44,91.14S166.45,303.89,175.06,303.89Z"/><path class="cls-2" d="M53.56,219.22c-3-8.11,6.91-20.34,27.77-34.43s50.22-28.35,82.67-40.16,64.11-19.76,89.15-22.37,40.45.41,43.4,8.52-6.91,20.34-27.77,34.43-50.22,28.35-82.67,40.16S122,225.13,97,227.74,56.52,227.33,53.56,219.22Zm242.61-88.3c-2.94-8.09-18.31-11.11-43.26-8.5S196.39,133,164,144.72s-61.63,26-82.42,40S51,211,53.94,219.08s18.31,11.11,43.27,8.5,56.52-10.53,88.87-22.3,61.62-26,82.41-40S299.12,139,296.17,130.92Z"/><path class="cls-2" d="M53.56,219.22c-3-8.11,6.91-20.34,27.77-34.43s50.22-28.35,82.67-40.16,64.11-19.76,89.15-22.37,40.45.41,43.4,8.52-6.91,20.34-27.77,34.43-50.22,28.35-82.67,40.16S122,225.13,97,227.75,56.52,227.33,53.56,219.22Zm242.61-88.3c-2.94-8.09-18.31-11.11-43.26-8.5S196.39,133,164,144.72s-61.63,26-82.42,40S51,211,53.94,219.08s18.31,11.11,43.27,8.5,56.51-10.53,88.87-22.3,61.62-26,82.41-40S299.12,139,296.17,130.92Z"/><path class="cls-2" d="M258.16,274c-6.61,5.55-21.47.47-41.85-14.32s-43.82-37.49-66-63.94-40.5-53.49-51.52-76.12S85.34,81.51,92,76s21.48-.47,41.85,14.32,43.82,37.49,66,63.94,40.49,53.49,51.51,76.12S264.77,268.49,258.16,274ZM92.21,76.26c-6.6,5.54-4.18,21,6.81,43.57s29.22,49.51,51.35,75.88,45.5,49,65.81,63.75,35.13,19.81,41.73,14.28,4.17-21-6.82-43.57-29.22-49.51-51.35-75.88-45.5-49-65.81-63.75S98.8,70.73,92.21,76.26Z"/><path class="cls-2" d="M258.16,274c-6.61,5.55-21.47.47-41.85-14.32s-43.82-37.49-66-63.94-40.5-53.49-51.52-76.12S85.34,81.51,92,76s21.48-.47,41.85,14.32,43.82,37.49,66,63.94,40.49,53.49,51.51,76.12S264.78,268.49,258.16,274ZM92.21,76.26c-6.6,5.54-4.18,21,6.81,43.57s29.22,49.51,51.35,75.88,45.5,49,65.82,63.75,35.12,19.81,41.72,14.28,4.17-21-6.82-43.57-29.22-49.51-51.35-75.88-45.5-49-65.81-63.75S98.8,70.73,92.21,76.26Z"/><path class="cls-2" d="M239.7,63c7.48,4.32,7.78,20,.86,44.22s-20.24,54-37.51,83.91-36.41,56.35-53.91,74.44S117.89,291.28,110.41,287s-7.78-20-.86-44.22,20.25-54,37.51-83.91S183.48,102.49,201,84.4,232.22,58.72,239.7,63ZM110.61,286.62c7.45,4.31,21.17-3.26,38.61-21.3s36.53-44.39,53.74-74.21,30.5-59.52,37.4-83.65,6.6-39.78-.86-44.08-21.16,3.26-38.61,21.3-36.53,44.39-53.74,74.21-30.49,59.52-37.4,83.65S103.16,282.32,110.61,286.62Z"/><path class="cls-2" d="M239.7,63c7.48,4.32,7.78,20,.86,44.22s-20.24,54-37.51,83.91-36.41,56.35-53.91,74.44S117.89,291.28,110.41,287s-7.78-20-.86-44.22,20.25-54,37.51-83.91S183.48,102.49,201,84.4,232.22,58.72,239.7,63ZM110.61,286.62c7.45,4.31,21.17-3.26,38.61-21.3s36.53-44.39,53.74-74.21,30.5-59.52,37.4-83.65,6.6-39.78-.86-44.08-21.16,3.26-38.61,21.3-36.53,44.39-53.74,74.21-30.49,59.52-37.4,83.65S103.16,282.32,110.61,286.62Z"/><path class="cls-2" d="M47.73,152.55c1.5-8.5,16.15-14.16,41.26-15.93s57.67.55,91.68,6.55,65.4,14.94,88.39,25.2,34.82,20.58,33.32,29.08-16.15,14.16-41.26,15.93-57.67-.55-91.68-6.55-65.4-14.94-88.39-25.2S46.23,161.05,47.73,152.55ZM302,197.38c1.49-8.47-10.3-18.77-33.22-29s-54.21-19.14-88.12-25.12-66.36-8.3-91.39-6.53-39.64,7.4-41.14,15.88,10.31,18.77,33.22,29,54.22,19.14,88.12,25.12,66.36,8.3,91.39,6.53S300.49,205.86,302,197.38Z"/><path class="cls-2" d="M47.73,152.55c1.5-8.5,16.15-14.16,41.26-15.93s57.67.55,91.68,6.55,65.4,14.94,88.39,25.2,34.82,20.58,33.32,29.08-16.15,14.16-41.26,15.93-57.67-.55-91.68-6.55-65.4-14.94-88.39-25.2S46.23,161.05,47.73,152.55ZM302,197.38c1.49-8.47-10.3-18.77-33.22-29s-54.21-19.14-88.12-25.12-66.36-8.3-91.39-6.53-39.64,7.4-41.14,15.88,10.31,18.77,33.22,29,54.22,19.14,88.12,25.12,66.36,8.3,91.39,6.54S300.49,205.86,302,197.38Z"/><path class="cls-2" d="M197.51,302.33C189,303.82,178.68,292,168.42,269s-19.2-54.38-25.2-88.39-8.32-66.56-6.55-91.67,7.43-39.77,15.93-41.27S171.44,58,181.69,81s19.2,54.38,25.2,88.39,8.32,66.56,6.55,91.67S206,300.83,197.51,302.33ZM152.67,48.07c-8.47,1.49-14.11,16.1-15.88,41.13s.55,57.49,6.53,91.4,14.9,65.19,25.12,88.11,20.52,34.72,29,33.22,14.11-16.1,15.88-41.13-.55-57.49-6.53-91.4-14.9-65.19-25.12-88.11S161.15,46.57,152.67,48.07Z"/><path class="cls-2" d="M197.51,302.33C189,303.82,178.68,292,168.42,269s-19.2-54.38-25.2-88.39-8.32-66.56-6.55-91.67,7.43-39.77,15.93-41.27S171.44,58,181.69,81s19.2,54.38,25.2,88.39,8.32,66.57,6.55,91.67S206,300.83,197.51,302.33ZM152.67,48.07c-8.47,1.49-14.11,16.1-15.88,41.13s.55,57.49,6.53,91.4,14.9,65.19,25.12,88.11,20.52,34.72,29,33.22,14.11-16.1,15.88-41.13-.55-57.49-6.53-91.4-14.9-65.19-25.12-88.11S161.15,46.57,152.67,48.07Z"/><path class="cls-2" d="M287,110.36c4.32,7.47-3.27,21.23-21.36,38.72S221.12,185.72,191.22,203s-59.71,30.59-83.91,37.51-39.91,6.62-44.22-.86,3.27-21.23,21.36-38.72S129,164.28,158.89,147s59.71-30.59,83.91-37.51S282.71,102.88,287,110.36ZM63.43,239.45c4.31,7.45,20,7.75,44.09.85s53.83-20.18,83.65-37.39,56.17-36.3,74.21-53.75S291,118,286.68,110.55s-20-7.75-44.09-.85-53.83,20.18-83.65,37.39-56.17,36.3-74.21,53.75S59.13,232,63.43,239.45Z"/><path class="cls-2" d="M287,110.36c4.32,7.47-3.27,21.23-21.36,38.72S221.12,185.72,191.22,203s-59.71,30.59-83.91,37.51-39.91,6.62-44.22-.86,3.27-21.23,21.36-38.72S129,164.28,158.89,147s59.71-30.59,83.91-37.51S282.71,102.88,287,110.36ZM63.43,239.45c4.31,7.45,20,7.75,44.09.85s53.83-20.18,83.65-37.39,56.17-36.3,74.21-53.75S291,118,286.68,110.55s-20-7.75-44.09-.85-53.83,20.18-83.65,37.39-56.17,36.3-74.21,53.75S59.13,232,63.43,239.45Z"/><path class="cls-2" d="M76,91.89c5.55-6.61,21.07-4.18,43.7,6.84s49.67,29.31,76.12,51.51,49.17,45.64,63.95,66,19.87,35.23,14.32,41.85-21.07,4.18-43.7-6.84S180.73,222,154.28,199.76s-49.17-45.64-63.95-66S70.47,98.51,76,91.89Zm197.78,166c5.53-6.59.47-21.41-14.27-41.72s-37.38-43.68-63.75-65.81S142.45,110,119.88,99s-38-13.4-43.56-6.81-.46,21.41,14.27,41.72,37.38,43.68,63.75,65.81,53.33,40.37,75.89,51.36S268.26,264.44,273.79,257.85Z"/><path class="cls-2" d="M76,91.89c5.55-6.61,21.07-4.18,43.7,6.84s49.67,29.31,76.12,51.51,49.17,45.64,63.95,66,19.87,35.23,14.32,41.85-21.07,4.18-43.7-6.84S180.73,222,154.28,199.76s-49.17-45.64-63.95-66S70.46,98.51,76,91.89Zm197.78,166c5.53-6.59.47-21.41-14.27-41.72s-37.38-43.68-63.75-65.81S142.45,110,119.88,99s-38-13.4-43.56-6.81-.46,21.41,14.27,41.72,37.38,43.68,63.75,65.81,53.33,40.37,75.89,51.36S268.26,264.44,273.79,257.85Z"/><path class="cls-2" d="M130.84,296.49c-8.12-2.95-11.14-18.36-8.53-43.4s10.56-56.69,22.37-89.15,26.08-61.81,40.17-82.67,26.31-30.72,34.43-27.76,11.14,18.36,8.52,43.4-10.56,56.69-22.37,89.14-26.08,61.82-40.16,82.67S139,299.45,130.84,296.49Zm88.3-242.61c-8.09-2.94-20.28,6.89-34.32,27.68s-28.27,50.07-40,82.42-19.7,63.91-22.31,88.87.41,40.32,8.5,43.27,20.28-6.89,34.33-27.68,28.26-50.07,40-82.42,19.69-63.91,22.3-88.87S227.23,56.83,219.14,53.88Z"/><path class="cls-2" d="M130.84,296.49c-8.12-2.95-11.14-18.36-8.53-43.4S132.87,196.4,144.68,164s26.08-61.82,40.17-82.67,26.31-30.73,34.43-27.77,11.14,18.36,8.52,43.4-10.56,56.69-22.37,89.14-26.08,61.82-40.17,82.68S139,299.45,130.84,296.49Zm88.3-242.61c-8.09-2.94-20.28,6.89-34.32,27.68s-28.27,50.07-40,82.42-19.7,63.91-22.31,88.87.41,40.32,8.5,43.27,20.28-6.89,34.33-27.68,28.26-50.07,40-82.42,19.69-63.91,22.3-88.87S227.23,56.83,219.14,53.88Z"/><path class="cls-2" d="M304.35,175c0,8.63-13.45,16.75-37.87,22.86s-56.89,9.46-91.42,9.46-67-3.36-91.43-9.46S45.77,183.63,45.77,175s13.44-16.75,37.86-22.86,56.89-9.46,91.43-9.46,67,3.36,91.42,9.46S304.35,166.37,304.35,175ZM46.16,175c0,8.61,13.41,16.7,37.76,22.79s56.71,9.43,91.14,9.43,66.79-3.35,91.14-9.43S304,183.61,304,175s-13.41-16.7-37.75-22.78-56.72-9.44-91.14-9.44-66.8,3.35-91.14,9.44S46.16,166.39,46.16,175Z"/><path class="cls-2" d="M304.35,175c0,8.63-13.45,16.75-37.87,22.86s-56.89,9.46-91.42,9.46-67-3.36-91.43-9.46S45.77,183.63,45.77,175s13.44-16.75,37.86-22.86,56.89-9.46,91.43-9.46,67,3.36,91.42,9.46S304.35,166.37,304.35,175ZM46.16,175c0,8.61,13.41,16.7,37.76,22.79s56.71,9.43,91.14,9.43,66.79-3.35,91.14-9.43S304,183.61,304,175s-13.41-16.7-37.75-22.78-56.72-9.44-91.14-9.44-66.8,3.35-91.14,9.44S46.16,166.39,46.16,175Z"/><path class="cls-2" d="M130.84,53.51c8.11-2.95,20.34,6.91,34.43,27.77s28.35,50.21,40.16,82.67,19.76,64.11,22.37,89.14-.41,40.45-8.52,43.4-20.34-6.91-34.43-27.76-28.36-50.22-40.17-82.67-19.75-64.12-22.37-89.15S122.72,56.46,130.84,53.51Zm88.3,242.61c8.09-2.95,11.11-18.31,8.5-43.27s-10.53-56.52-22.3-88.87-26-61.62-40-82.42S139.06,50.94,131,53.88s-11.1,18.31-8.5,43.27S133,153.67,144.78,186s26,61.62,40,82.42S211.05,299.06,219.14,296.12Z"/><path class="cls-2" d="M130.84,53.51c8.11-3,20.34,6.91,34.42,27.77s28.36,50.21,40.17,82.67,19.76,64.11,22.37,89.14-.41,40.45-8.52,43.4-20.34-6.91-34.43-27.76-28.36-50.22-40.17-82.68-19.75-64.11-22.37-89.14S122.72,56.46,130.84,53.51Zm88.3,242.61c8.09-2.95,11.11-18.31,8.5-43.27s-10.53-56.52-22.3-88.87-26-61.62-40-82.42S139.06,50.94,131,53.88s-11.1,18.31-8.5,43.27S133,153.67,144.78,186s26,61.62,40,82.42S211.05,299.06,219.14,296.12Z"/><path class="cls-2" d="M76,258.11c-5.55-6.62-.46-21.48,14.32-41.85s37.49-43.82,64-66,53.49-40.49,76.12-51.51,38.15-13.45,43.7-6.84.46,21.48-14.32,41.85-37.49,43.82-63.95,66-53.49,40.49-76.12,51.51S81.56,264.72,76,258.11Zm197.78-166c-5.53-6.59-21-4.17-43.56,6.81s-49.51,29.23-75.89,51.36-49,45.5-63.75,65.81-19.8,35.13-14.27,41.72,21,4.17,43.56-6.81,49.51-29.23,75.89-51.36,49-45.5,63.75-65.81S279.32,98.74,273.79,92.15Z"/><path class="cls-2" d="M76,258.11c-5.55-6.62-.46-21.48,14.32-41.85s37.49-43.82,64-66,53.49-40.49,76.12-51.51,38.15-13.45,43.7-6.84.46,21.48-14.32,41.85-37.49,43.82-63.95,66-53.49,40.49-76.12,51.51S81.56,264.72,76,258.11Zm197.78-166c-5.53-6.59-21-4.17-43.56,6.81s-49.51,29.23-75.89,51.36-49,45.5-63.75,65.81-19.8,35.13-14.27,41.72,21,4.17,43.56-6.81,49.51-29.23,75.89-51.36,49-45.5,63.75-65.81S279.32,98.74,273.79,92.15Z"/><path class="cls-2" d="M287,239.64c-4.31,7.48-20,7.79-44.22.86s-54-20.24-83.91-37.51-56.34-36.41-74.44-53.91-25.68-31.25-21.36-38.72,20-7.79,44.22-.86,54,20.24,83.91,37.51,56.34,36.41,74.44,53.91S291.34,232.17,287,239.64ZM63.43,110.55c-4.3,7.46,3.26,21.17,21.3,38.61s44.4,36.53,74.21,53.75,59.53,30.49,83.65,37.39,39.79,6.6,44.09-.85-3.26-21.17-21.3-38.61-44.4-36.53-74.21-53.75-59.53-30.49-83.65-37.39S67.74,103.1,63.43,110.55Z"/><path class="cls-2" d="M287,239.64c-4.31,7.48-20,7.79-44.22.86s-54-20.24-83.91-37.51-56.34-36.41-74.44-53.91-25.68-31.25-21.36-38.72,20-7.79,44.22-.86,54,20.24,83.91,37.51,56.34,36.41,74.44,53.91S291.34,232.17,287,239.64ZM63.43,110.55c-4.3,7.46,3.26,21.17,21.3,38.61s44.4,36.53,74.21,53.75,59.53,30.49,83.65,37.39,39.79,6.6,44.09-.85-3.26-21.17-21.3-38.61-44.4-36.53-74.21-53.75-59.53-30.49-83.65-37.39S67.74,103.1,63.43,110.55Z"/><path class="cls-2" d="M197.51,47.68c8.5,1.49,14.16,16.15,15.93,41.26s-.56,57.66-6.55,91.67S191.94,246,181.69,269s-20.58,34.82-29.08,33.33-14.17-16.16-15.94-41.27.56-57.66,6.55-91.67S158.17,104,168.42,81,189,46.18,197.51,47.68ZM152.67,301.93c8.48,1.5,18.78-10.3,29-33.22s19.14-54.21,25.12-88.11,8.3-66.37,6.53-91.4-7.41-39.64-15.88-41.13-18.78,10.3-29,33.22S149.3,135.5,143.32,169.4s-8.3,66.37-6.53,91.4S144.2,300.44,152.67,301.93Z"/><path class="cls-2" d="M197.51,47.67c8.5,1.5,14.16,16.16,15.93,41.27s-.56,57.66-6.55,91.67S191.94,246,181.69,269s-20.58,34.82-29.08,33.33-14.17-16.16-15.94-41.27.56-57.66,6.55-91.67S158.17,104,168.42,81,189,46.18,197.51,47.67ZM152.67,301.93c8.48,1.5,18.78-10.3,29-33.22s19.14-54.21,25.12-88.11,8.3-66.37,6.53-91.4-7.41-39.64-15.88-41.13-18.78,10.3-29,33.22S149.3,135.5,143.32,169.4s-8.3,66.37-6.53,91.4S144.2,300.44,152.67,301.93Z"/><path class="cls-2" d="M47.73,197.45c-1.5-8.5,10.34-18.83,33.32-29.08s54.38-19.2,88.39-25.2,66.57-8.33,91.68-6.55,39.76,7.43,41.26,15.93-10.33,18.83-33.32,29.08-54.38,19.2-88.39,25.2S114.1,215.16,89,213.38,49.23,206,47.73,197.45ZM302,152.62c-1.5-8.48-16.1-14.12-41.14-15.89s-57.48.56-91.39,6.54-65.2,14.9-88.12,25.12-34.71,20.52-33.22,29,16.11,14.12,41.14,15.88,57.49-.55,91.39-6.53,65.2-14.9,88.12-25.12S303.48,161.09,302,152.62Z"/><path class="cls-2" d="M47.73,197.45c-1.5-8.5,10.34-18.83,33.32-29.08s54.38-19.2,88.39-25.2,66.57-8.32,91.68-6.55,39.76,7.43,41.26,15.93-10.33,18.83-33.32,29.08-54.38,19.2-88.39,25.2S114.1,215.16,89,213.38,49.23,206,47.73,197.45ZM302,152.62c-1.5-8.48-16.1-14.12-41.14-15.88s-57.48.55-91.39,6.53-65.2,14.9-88.12,25.12-34.71,20.52-33.22,29,16.11,14.12,41.14,15.89,57.49-.56,91.39-6.54,65.2-14.9,88.12-25.12S303.48,161.09,302,152.62Z"/><path class="cls-2" d="M239.7,287c-7.48,4.31-21.23-3.27-38.73-21.37s-36.64-44.53-53.91-74.44-30.59-59.7-37.51-83.91-6.62-39.9.86-44.22,21.23,3.27,38.73,21.37,36.64,44.53,53.91,74.44,30.59,59.71,37.51,83.91S247.18,282.65,239.7,287ZM110.61,63.38c-7.45,4.3-7.76,20-.86,44.08s20.19,53.84,37.4,83.65,36.3,56.17,53.74,74.21,31.16,25.61,38.61,21.3,7.76-20,.86-44.08S220.18,188.7,203,158.89s-36.3-56.17-53.74-74.21S118.06,59.07,110.61,63.38Z"/><path class="cls-2" d="M239.7,287c-7.48,4.31-21.23-3.27-38.73-21.37s-36.64-44.53-53.91-74.44-30.59-59.71-37.51-83.91-6.62-39.9.86-44.22,21.23,3.27,38.73,21.37,36.64,44.53,53.91,74.44,30.59,59.71,37.51,83.91S247.18,282.65,239.7,287ZM110.61,63.38c-7.45,4.3-7.76,20-.86,44.08s20.19,53.84,37.4,83.65,36.3,56.17,53.74,74.21,31.16,25.61,38.61,21.3,7.76-20,.86-44.08S220.18,188.7,203,158.89s-36.3-56.17-53.74-74.21S118.06,59.07,110.61,63.38Z"/><path class="cls-2" d="M258.16,76c6.62,5.55,4.19,21.07-6.83,43.7S222,169.32,199.82,195.78s-45.65,49.16-66,63.94S98.56,279.59,92,274s-4.19-21.07,6.83-43.7,29.32-49.66,51.52-76.12,45.64-49.16,66-63.94S251.55,70.41,258.16,76Zm-166,197.78c6.59,5.53,21.41.46,41.72-14.28s43.68-37.37,65.81-63.75,40.37-53.32,51.35-75.88,13.41-38,6.82-43.57-21.41-.46-41.73,14.28-43.68,37.37-65.81,63.75S110,207.61,99,230.17,85.61,268.2,92.21,273.74Z"/><path class="cls-2" d="M258.16,76c6.62,5.55,4.19,21.07-6.83,43.7S222,169.32,199.82,195.78s-45.65,49.16-66,63.94S98.56,279.59,92,274s-4.19-21.07,6.83-43.7,29.32-49.66,51.52-76.12,45.64-49.16,66-63.94S251.55,70.41,258.16,76Zm-166,197.78c6.59,5.53,21.41.46,41.72-14.28s43.68-37.37,65.81-63.75,40.37-53.32,51.35-75.88,13.41-38,6.82-43.57-21.41-.46-41.72,14.28-43.69,37.37-65.82,63.75S110,207.61,99,230.17,85.61,268.2,92.21,273.74Z"/><path class="cls-2" d="M53.56,130.78c3-8.11,18.37-11.14,43.41-8.52s56.69,10.56,89.14,22.37,61.81,26.07,82.67,40.16,30.72,26.32,27.77,34.43-18.37,11.14-43.4,8.53-56.7-10.57-89.15-22.38-61.81-26.07-82.67-40.16S50.61,138.89,53.56,130.78Zm242.61,88.3c2.95-8.08-6.88-20.27-27.68-34.32s-50.06-28.26-82.41-40-63.92-19.7-88.87-22.3-40.33.41-43.27,8.5,6.88,20.27,27.68,34.32,50.06,28.26,82.42,40S228,225,252.91,227.58,293.23,227.17,296.17,219.08Z"/><path class="cls-2" d="M53.56,130.78c3-8.11,18.37-11.14,43.4-8.52s56.7,10.56,89.15,22.37,61.81,26.07,82.67,40.16,30.72,26.32,27.77,34.43-18.37,11.14-43.4,8.53-56.7-10.57-89.15-22.38-61.81-26.07-82.67-40.16S50.61,138.89,53.56,130.78Zm242.61,88.3c2.95-8.08-6.88-20.27-27.68-34.32s-50.06-28.26-82.41-40-63.92-19.7-88.87-22.3-40.33.41-43.27,8.5,6.88,20.27,27.68,34.32,50.06,28.26,82.42,40S228,225,252.91,227.58,293.23,227.17,296.17,219.08Z"/><path class="cls-2" d="M175.06,304.29c-8.64,0-16.75-13.45-22.86-37.87s-9.47-56.89-9.47-91.42,3.37-67,9.47-91.42,14.22-37.87,22.86-37.87,16.75,13.45,22.85,37.87,9.47,56.89,9.47,91.42-3.36,67-9.47,91.42S183.69,304.29,175.06,304.29Zm0-258.18c-8.61,0-16.7,13.41-22.79,37.75s-9.44,56.71-9.44,91.14,3.35,66.8,9.44,91.14,14.18,37.75,22.79,37.75,16.69-13.41,22.78-37.75,9.44-56.71,9.44-91.14-3.35-66.8-9.44-91.14S183.66,46.11,175.06,46.11Z"/><path class="cls-2" d="M175.06,304.29c-8.64,0-16.75-13.45-22.86-37.87s-9.47-56.89-9.47-91.42,3.37-67,9.47-91.42,14.22-37.87,22.86-37.87,16.75,13.45,22.85,37.87,9.47,56.89,9.47,91.42-3.36,67-9.47,91.42S183.69,304.29,175.06,304.29Zm0-258.18c-8.61,0-16.7,13.41-22.79,37.75s-9.44,56.71-9.44,91.14,3.35,66.8,9.44,91.14,14.18,37.75,22.79,37.75,16.69-13.41,22.78-37.75,9.44-56.71,9.44-91.14-3.35-66.8-9.44-91.14S183.66,46.11,175.06,46.11Z"/><circle class="cls-1" cx="175.06" cy="175" r="114.75"/><path class="cls-2" d="M175.06,290.34a115.33,115.33,0,1,1,81.56-33.78A114.56,114.56,0,0,1,175.06,290.34Zm0-229.49a114.14,114.14,0,1,0,80.71,33.43A113.41,113.41,0,0,0,175.06,60.85Z"/><path class="cls-2" d="M175.06,304.69a129.69,129.69,0,1,1,91.7-38A128.83,128.83,0,0,1,175.06,304.69Zm0-258.18a128.49,128.49,0,1,0,90.85,37.63A127.63,127.63,0,0,0,175.06,46.51Z"/><path class="cls-2" d="M174.86,284.57a109.56,109.56,0,1,1,77.47-32.09A108.88,108.88,0,0,1,174.86,284.57Zm0-215.15a105.57,105.57,0,1,0,74.66,30.92A104.88,104.88,0,0,0,174.86,69.42Z"/><path class="cls-2" d="M111.87,26a36.64,36.64,0,0,0,2.21,3.77c0,.35-.58.78-.87.64a5.07,5.07,0,0,0-6.46-1.29c-2.78,1.36-4.6,5.19-2.17,10.18s6.62,6.27,9.63,4.8,3.37-4.34,3.22-6.38a.81.81,0,0,1,1-.29,12.36,12.36,0,0,1,1,4.41,20.88,20.88,0,0,1-4.63,3.4,12.77,12.77,0,0,1-7.68,1.39,8.76,8.76,0,0,1-6.38-5,9.22,9.22,0,0,1-.21-8.12,12.2,12.2,0,0,1,5.86-5.62A34.59,34.59,0,0,1,111.87,26Z"/><path class="cls-2" d="M125.57,30.92c-1.09.35-1.11.39-.87,1.13l1.23,3.82c.8,2.47,1,2.66,2.28,2.44l.88-.17a.79.79,0,0,1,.3.93c-1.53.43-2.86.83-4.06,1.22s-2.59.86-3.93,1.35a.8.8,0,0,1-.3-.93l.61-.28c1.17-.56,1.22-.86.43-3.33L119,27.22c-.8-2.47-1-2.69-2.29-2.46l-.66.13a.8.8,0,0,1-.3-.94c1.32-.36,2.71-.78,4-1.19s2.51-.84,3.67-1.26a.8.8,0,0,1,.3.93l-.54.25c-1.09.53-1.16.85-.37,3.32l1,3.08c.25.77.29.79,1.38.43l5.52-1.77c1.11-.36,1.11-.39.86-1.16l-1-3.08c-.8-2.47-1-2.64-2.28-2.43l-.75.13a.81.81,0,0,1-.3-.94c1.48-.41,2.79-.81,4.06-1.22s2.51-.83,3.72-1.28a.8.8,0,0,1,.3.93l-.51.25c-1.16.58-1.24.87-.45,3.34l3.18,9.88c.8,2.47,1,2.6,2.31,2.42l.67-.1a.8.8,0,0,1,.3.93c-1.35.37-2.66.77-3.88,1.16s-2.62.87-3.88,1.34a.81.81,0,0,1-.3-.93l.56-.27c1.17-.55,1.22-.86.43-3.33l-1.24-3.82c-.23-.75-.24-.77-1.36-.42Z"/><path class="cls-2" d="M145.74,28.1c-.66.12-.74.16-.81.71l-.51,3.38a3.36,3.36,0,0,0,0,1c0,.17.41.27,1.2.27h.85c.2.16.37.79.12,1-1,.12-2,.29-3.12.47-.93.17-1.55.36-2.81.59-.33-.12-.41-.7-.26-1l.73-.22a1.9,1.9,0,0,0,1.43-1.67c.27-1.18.56-2.59.95-4.7l1.31-7.14c.32-1.85.62-2.89.39-3.67a5.55,5.55,0,0,0,2.1-2.08c.36-.06.55,0,.73.44.36.76.87,1.72,1.91,3.54l5.64,10.11c.87,1.54,1.23,2.13,2.28,2.11l1.07,0c.19.11.36.76.15,1-1.33.18-2.82.42-4.25.67s-2.44.46-3.69.74a.64.64,0,0,1-.23-1l.86-.29c.61-.23.68-.44.66-.6a12.49,12.49,0,0,0-.86-1.78l-1.16-2.23c-.21-.41-.44-.43-1.41-.26Zm2.87-2c.63-.11.75-.22.41-.89l-1.11-2.1c-.6-1.11-1.36-2.51-1.71-3-.1.67-.39,2.25-.58,3.59l-.32,2.18c-.11.78,0,.84.73.72Z"/><path class="cls-2" d="M158.07,14.51c-.23-.21-.25-.88.05-1,.95,0,2.15,0,3.52,0,.92,0,1.73-.06,2.73-.18.06,1.73,1.09,3.4,2.4,6l2,3.87c.27.55,1.33,2.28,1.75,3,.34-.68.76-1.56,1.45-3.23l1.33-3.11A35.28,35.28,0,0,0,175.69,13a24.66,24.66,0,0,0,2.76,0c.92,0,2.2-.1,3.2-.19.32.16.33.69.12,1l-.81.16c-1.13.24-1.68.59-1.63,2.07.18,5.74.34,8.75.62,12.25.1,1.29.23,1.95,1.32,2.05l.9.09c.23.21.25.85,0,1-1.28,0-2.48,0-3.85.05s-2.79.11-4.12.21a.63.63,0,0,1-.12-1l.84-.14c1.27-.21,1.26-.54,1.21-2.24L175.81,21l-.11-3.18h0c-1.92,4.53-4,9.26-5.69,14a.83.83,0,0,1-.55.21,1.41,1.41,0,0,1-.73-.14c-1.2-3.42-4.85-10.23-6.53-13.8h-.05c-.06,1.82,0,3.05,0,4.5,0,1.81.1,4.6.15,6.27.05,1.39.23,1.78,1.35,1.91l1.09.13a.79.79,0,0,1,0,1c-1,0-2.23,0-3.29,0-.89,0-2,.09-3.06.19-.37-.1-.39-.83-.14-1l.49-.1c1.42-.29,1.58-.47,1.69-2.2.1-1.37.1-3.8.18-6.45.05-1.87,0-4.13,0-5.64s-.68-2-1.8-2.15Z"/><path class="cls-2" d="M187,18c.31-2.8.29-3.14-.86-3.4l-.85-.21a.64.64,0,0,1,.16-.93c1.84.06,4,.18,6.43.44a14.37,14.37,0,0,1,5,1.27,5,5,0,0,1,2.86,5.17c-.49,4.54-5.14,4.71-6.61,4.55a8.3,8.3,0,0,1-.89-.12.55.55,0,0,1,0-.76c2.38-.47,3-2.05,3.25-4.11s-.59-4.38-3.08-4.65c-1-.11-1.12.19-1.24,1.3l-1.27,11.7c-.28,2.58-.13,2.81,1.09,3.14l.88.24a.6.6,0,0,1-.11.94c-1.54-.22-2.9-.4-4.23-.54s-2.66-.26-4.17-.37c-.28-.2-.27-.84.05-.95l.79-.05c1.27-.09,1.46-.26,1.74-2.84Z"/><path class="cls-2" d="M206.28,30.79c-.51,2.57-.39,2.8.83,3.27l.73.29a.79.79,0,0,1-.22.95c-1.46-.35-2.8-.65-4.08-.9s-2.69-.52-4.18-.76a.81.81,0,0,1,.2-1l.79,0c1.3,0,1.51-.12,2-2.69l2-10.07c.52-2.57.39-2.79-.82-3.26l-.74-.29a.81.81,0,0,1,.19-1c1.47.35,2.83.66,4.14.92s2.66.51,4.15.75a.81.81,0,0,1-.19,1l-.8,0c-1.3,0-1.5.12-2,2.69Z"/><path class="cls-2" d="M230.88,32.46c-1.85,5.8-6.84,8-12.55,6.22-5.34-1.7-8.1-6.45-6.33-12a9.6,9.6,0,0,1,12.46-6.3C230,22.14,232.59,27.07,230.88,32.46Zm-7-10.93c-3.26-1-6,1.46-7.41,5.9-1,3.24-1.55,8.81,2.78,10.19,3.48,1.11,5.92-1.86,7.29-6.17C228,26.91,227.15,22.58,223.85,21.53Z"/><path class="cls-2" d="M247,45.17c-.79,1.63-1.56,3.21-1.92,4.06a2.19,2.19,0,0,1-1.76-.14s-.23-1.7-.7-3.73l-2.29-10a42.53,42.53,0,0,0-1.16-4.55,4.87,4.87,0,0,0-.91,1.55l-2.38,4.86A19.77,19.77,0,0,0,234,42c0,.64.46,1.1,1.06,1.51l.66.45a.88.88,0,0,1-.43.87c-1.33-.71-2.32-1.22-3.32-1.71s-1.87-.88-2.85-1.3a.87.87,0,0,1,.43-.87l.46.13c.74.2,1.33.27,1.79-.15a20.77,20.77,0,0,0,2.59-4.42l3.1-6.37a6.25,6.25,0,0,0,.87-2.22c0-.52-.2-1-1-1.55l-.66-.44c-.08-.28.24-.87.53-.83,1.15.62,2.4,1.26,3.42,1.76.86.42,1.6.75,2.15,1-.3,1.25.4,3.95,1.34,7.73l.9,3.51c.46,1.85.76,3.08,1.06,3.94a4.07,4.07,0,0,0,.65-1.08l1.69-3.46a19.34,19.34,0,0,0,1.86-4.77c0-.64-.43-1.08-1.06-1.51l-.63-.44a.91.91,0,0,1,.43-.88c1.33.71,2.29,1.22,3.32,1.72s1.84.87,2.85,1.3a.89.89,0,0,1-.43.87l-.49-.14a1.7,1.7,0,0,0-1.76.17,19.66,19.66,0,0,0-2.61,4.4Z"/><path class="cls-2" d="M59.32,261.84c.54-.41.65-.5.23-1l-1.08-1.4c-1.27-1.65-2.54-1.43-4.71-.83a.79.79,0,0,1-.44-1,36,36,0,0,0,4.41-2.22.64.64,0,0,1,.35.23.62.62,0,0,1,.16.38c-.3.41-.34.55,1,2.26l6.49,8.4c1.15,1.49,1.43,1.81,2.06,1.65a.65.65,0,0,1,.3.24.63.63,0,0,1,.1.46A20.27,20.27,0,0,0,64,271.64c-.29,0-.81-.53-.72-.78,1.15-1.5,2-2.64.66-4.33l-1-1.35c-.41-.55-.53-.56-1.12-.11l-10,7.69c-2.1,1.62-2.18,1.9-1.53,3l.59,1a.93.93,0,0,1-.79.61c-1.09-1.5-1.94-2.65-2.73-3.66s-1.76-2.24-3-3.79a.83.83,0,0,1,.79-.61l.9.93c.9.93,1.2.91,3.3-.71Z"/><path class="cls-2" d="M66.29,274.31c2-2,2.2-2.27,1.48-3.24l-.46-.63c-.1-.3.4-.8.74-.66,1.61,1.41,3.26,2.91,5.17,4.83a12.06,12.06,0,0,1,3.22,4.69,4.67,4.67,0,0,1-1.23,4.76c-1.8,1.79-3.77,1.34-5.16.87-.31-.1-.43,0-.55.34-1.38,4-2.08,6.37-1.94,8.17a3.54,3.54,0,0,0,.78,1.92.54.54,0,0,1-.45.6,6.93,6.93,0,0,1-1.77-1.42,5.8,5.8,0,0,1-1.77-6,35.47,35.47,0,0,1,1.56-4.7,1.45,1.45,0,0,0-.35-1.78c-.71-.7-.79-.7-1.19-.3l-2.49,2.47c-1.86,1.85-1.88,2.11-1.14,3.19l.44.64c0,.24-.44.73-.71.71-1-1.12-1.93-2.07-2.89-3s-1.91-1.88-3-2.89c0-.28.45-.77.71-.71l.64.45c1.07.75,1.33.73,3.19-1.12Zm.18,5.33c-.71.7-.71.82.48,2a2.75,2.75,0,0,0,2.09,1A4.17,4.17,0,0,0,72,281.19c1.82-1.81,1.93-4.05.36-5.63-.82-.83-.92-.81-1.89.16Z"/><path class="cls-2" d="M90.47,301.55c-3.79,4.93-9.37,5.35-14.23,1.6-4.54-3.49-5.54-9-1.91-13.74a9.82,9.82,0,0,1,14.18-1.72C93.21,291.31,94,297,90.47,301.55Zm-2.94-13c-2.78-2.14-6.27-.69-9.18,3.08-2.12,2.76-4.56,7.94-.88,10.78,3,2.28,6.34.27,9.16-3.39C89.61,295.2,90.33,290.75,87.53,288.59Z"/><path class="cls-2" d="M97,299.87c1.44-2.5,1.56-2.82.6-3.54l-.71-.54c-.15-.26.16-.8.53-.82,1.71.82,3.69,1.84,5.84,3.08a14.61,14.61,0,0,1,4.15,3.25,5.07,5.07,0,0,1,.54,6c-2.34,4.05-6.75,2.29-8.06,1.53-.3-.17-.52-.3-.78-.48a.54.54,0,0,1,.31-.71c2.42.54,3.68-.67,4.74-2.5s1.26-4.35-1-5.63c-.92-.53-1.12-.29-1.7.7l-6,10.43c-1.32,2.29-1.29,2.58-.28,3.39l.72.58c.2.28-.13.85-.48.84-1.36-.85-2.55-1.57-3.74-2.26s-2.39-1.34-3.75-2.06c-.18-.31.09-.9.44-.87l.76.27c1.23.45,1.47.36,2.8-1.94Z"/><path class="cls-2" d="M114.47,314.83c-1.09-.44-1.12-.43-1.43.31l-1.56,3.8c-1,2.45-.94,2.75.18,3.4l.8.45a.81.81,0,0,1-.38.93c-1.48-.67-2.79-1.24-4-1.73s-2.59-1-4-1.53a.81.81,0,0,1,.38-.93l.66.18c1.28.34,1.52.13,2.53-2.32l4-9.82c1-2.45,1-2.77-.16-3.42l-.6-.34a.8.8,0,0,1,.38-.92c1.27.58,2.63,1.17,3.89,1.69s2.52,1,3.7,1.42a.81.81,0,0,1-.38.93l-.58-.15c-1.2-.31-1.47-.11-2.48,2.34l-1.25,3.06c-.32.77-.3.81.78,1.25l5.49,2.25c1.11.46,1.12.43,1.43-.33l1.26-3.06c1-2.46,1-2.72-.18-3.4l-.67-.4a.82.82,0,0,1,.38-.92c1.43.65,2.71,1.2,4,1.73s2.52,1,3.75,1.44a.8.8,0,0,1-.38.92l-.56-.14c-1.29-.31-1.54-.14-2.55,2.32l-4,9.81c-1,2.45-.93,2.7.2,3.41l.59.37a.8.8,0,0,1-.38.92c-1.3-.59-2.58-1.15-3.79-1.65s-2.62-1-3.91-1.51a.8.8,0,0,1,.38-.92l.61.16c1.28.33,1.52.13,2.53-2.33l1.56-3.8c.3-.74.31-.76-.8-1.22Z"/><path class="cls-2" d="M134,326.81c-.73,2.58-.62,2.82.58,3.4l.73.35a.82.82,0,0,1-.3.95c-1.47-.47-2.81-.88-4.1-1.25s-2.69-.73-4.19-1.1a.83.83,0,0,1,.27-1l.81.08c1.32.14,1.54,0,2.27-2.58L133,315.6c.73-2.58.62-2.82-.58-3.39l-.73-.36a.82.82,0,0,1,.27-1c1.47.48,2.83.9,4.15,1.27s2.67.73,4.17,1.09a.81.81,0,0,1-.28,1l-.8-.08c-1.33-.14-1.55,0-2.28,2.58Z"/><path class="cls-2" d="M146.38,322.22c-.14.79-.13.85.63,1l1.94.36c1.45.27,1.83.13,2.36-1.16l.27-.68c.24-.18.94-.05,1,.22-.22.89-.44,1.89-.64,3s-.35,2.08-.46,3a.82.82,0,0,1-1-.17V327c0-1.4-.32-1.69-1.78-2l-1.94-.36c-.75-.14-.79-.11-.94.73l-.62,3.33a5.16,5.16,0,0,0,0,2.75c.27.57.76.9,2.81,1.28,2.44.45,3.41.54,5.54-2.34a.69.69,0,0,1,1,.33,15.78,15.78,0,0,1-2,4.27c-1.47-.33-4.16-.86-6.46-1.28l-3.65-.68c-1.34-.25-2.72-.48-4.83-.81a.8.8,0,0,1,.18-1l1.35,0c1.3,0,1.5-.1,2-2.68L143,318.19c.47-2.55.34-2.75-.88-3.23l-.68-.27a.72.72,0,0,1,.24-1c1.31.29,2.68.58,4,.83l5.94,1.1c1.8.33,3.4.6,3.78.61-.06.46-.24,2.51-.45,4.42-.17.29-.82.22-1.05-.08a6.67,6.67,0,0,0-.66-2.41,3.68,3.68,0,0,0-2.59-1.38l-2.24-.42c-.93-.17-.94-.12-1.13.92Z"/><path class="cls-2" d="M161.39,336.26a9.93,9.93,0,0,1-4.75-1.47c-.49-.67-.7-2.74-.54-4.68a.7.7,0,0,1,1.08,0c.43,1.9,2.13,4.66,4.54,4.85a2.83,2.83,0,0,0,3.3-2.63c.18-2.3-1.87-3.84-3.51-4.82-2-1.19-4.08-3.07-3.86-5.89.23-3.21,2.91-5.24,7-4.91a11.47,11.47,0,0,1,3.21.71,6.47,6.47,0,0,0,1,.3,14.27,14.27,0,0,1,.19,4.11c-.17.33-.88.3-1.12,0-.37-1.49-1.43-3.66-3.47-3.82a2.64,2.64,0,0,0-3.11,2.41c-.11,1.31,1,2.6,2.33,3.45l1.8,1.14c1.69,1.08,3.8,2.91,3.56,6C168.74,334.55,165.69,336.59,161.39,336.26Z"/><path class="cls-2" d="M190.33,321.16c.19,2-1.52,3.06-2.3,3.65a14.57,14.57,0,0,1,4.6,3.58,24.74,24.74,0,0,0,1.23-3.15,9.49,9.49,0,0,0,.53-2.05c0-.26-.33-.4-.82-.44l-.52,0c-.27-.15-.31-.86,0-1l1.16-.11c2.19-.2,4.11-.49,5.58-.69a.66.66,0,0,1,.15,1l-.76.19a3.81,3.81,0,0,0-1.82,1,14.49,14.49,0,0,0-1.87,3L194,328.89a2.16,2.16,0,0,0-.33.78h.05c0-.11.07.14.56.78,1.12,1.21,2,2.82,4.48,2.59a5.34,5.34,0,0,0,2.48-1,.69.69,0,0,1,.41.68,7.49,7.49,0,0,1-5.44,2.79c-2,.19-3.21-.33-3.63-.89a17.5,17.5,0,0,1-1.09-1.48c-1.42,1.62-2.83,3.07-5.47,3.31-3.78.35-6.28-1.59-6.55-4.52-.31-3.29,2.47-5.21,3.89-6a4.48,4.48,0,0,1-2.16-3.24,4.6,4.6,0,0,1,4.32-4.95C188.3,317.51,190.13,319,190.33,321.16Zm-3,12.84a4.4,4.4,0,0,0,3.27-2.1c0-.09-.14-.22-.53-.78a14,14,0,0,0-4.63-3.87c-.36-.2-.57-.35-.72-.34a3.9,3.9,0,0,0-1.58,3.59A3.71,3.71,0,0,0,187.37,334Zm-1.65-15a1.87,1.87,0,0,0-1.51,2.23,3.52,3.52,0,0,0,2.47,2.83,3.86,3.86,0,0,0,.95-3.06C187.53,320,186.89,318.9,185.72,319Z"/><path class="cls-2" d="M214.59,324.86c-.66.19-.73.24-.75.81l-.16,3.48a3.09,3.09,0,0,0,.09,1.05c0,.16.45.22,1.25.14l.87-.09c.21.14.45.76.21,1-1,.22-2,.5-3.12.8-.93.27-1.54.53-2.8.89-.35-.08-.49-.67-.36-.94l.72-.29a2,2,0,0,0,1.28-1.85c.16-1.23.3-2.7.48-4.88l.6-7.41c.14-1.9.33-3,0-3.77a5.76,5.76,0,0,0,1.92-2.32c.36-.11.56,0,.79.37.44.73,1.06,1.65,2.3,3.4l6.79,9.7c1,1.48,1.47,2,2.53,1.92l1.09-.13c.2.09.45.73.25,1-1.34.32-2.83.72-4.25,1.12s-2.44.72-3.68,1.14a.65.65,0,0,1-.33-.95l.84-.38c.6-.29.65-.52.61-.68a13.48,13.48,0,0,0-1.05-1.72l-1.42-2.15c-.26-.4-.49-.39-1.45-.12Zm2.72-2.34c.63-.18.74-.3.32-.95l-1.35-2c-.71-1.07-1.63-2.41-2-2.92,0,.69-.17,2.33-.22,3.71l-.1,2.25c0,.81.12.86.81.66Z"/><path class="cls-2" d="M245.61,301a2.2,2.2,0,0,0-.92,1.09,19.17,19.17,0,0,0-.17,3.53c0,3.62,0,11.37.26,15.33a1.7,1.7,0,0,1-.77.59,1.27,1.27,0,0,1-.8.09c-.56-.5-1.37-1.27-2-1.86l-2.18-2a22.9,22.9,0,0,0-1.83-1.6c0,.54-.08,1.31-.09,2.19l-.1,3.06c0,1,0,1.89,0,2.94a1.7,1.7,0,0,1-.8.59,1.38,1.38,0,0,1-.8.1c-.9-.91-3-2.81-4.72-4.38l-8.29-7.36c-1.38-1.24-1.59-1.3-2.54-1.1l-.71.15a.72.72,0,0,1-.29-1c1-.37,2.1-.82,3.43-1.4,1.15-.51,2.16-1,3.13-1.46.25,0,.64.62.45.89l-.44.29c-.43.28-.56.49-.48.67a32.35,32.35,0,0,0,2.78,2.65l5.11,4.65c1.44,1.3,2.15,1.86,2.74,2.35.09-.66.15-2.15.16-3.28v-.9a2.93,2.93,0,0,0-.14-1,4.87,4.87,0,0,0-.71-.84L230,309.53c-1.18-1-1.44-1.15-2.48-.82l-.27.09c-.35-.1-.56-.72-.32-1,1.14-.43,2.18-.85,3.33-1.36,1.33-.58,2.31-1,3-1.39.34,0,.63.66.5.87l-.4.3c-.28.22-.62.49-.54.68a2.29,2.29,0,0,0,.58.68l1.57,1.46c.47.45,1.12,1,1.56,1.37l0-2.13v-.63a12.5,12.5,0,0,0-.09-2.26c-.08-.19-.21-.22-.68-.14l-1,.23a.83.83,0,0,1-.32-1c.78-.28,1.73-.66,2.6-1s2-.89,2.63-1.24a.82.82,0,0,1,.43.93l-.66.48c-.81.57-1,.65-1.22,2.62-.16,1.35-.24,2.94-.28,3.77a8.69,8.69,0,0,0,0,1.61,2,2,0,0,0,.49.56l2.38,2.1c1.31,1.14,2,1.82,2.36,2.12-.07-3.58-.08-7.53-.22-11.27a13.54,13.54,0,0,0-.25-2.41c-.11-.27-.58-.19-1-.14l-.65.09a.77.77,0,0,1-.32-.95c.86-.32,1.94-.76,2.73-1.1s1.66-.76,2.37-1.13c.29,0,.57.6.48.88Z"/><path class="cls-2" d="M252.17,309.43c-.59.35-.65.42-.51,1l.75,3.41a3.5,3.5,0,0,0,.35,1c.09.14.5.1,1.26-.19l.8-.32c.25.08.64.62.47.89-.89.46-1.77,1-2.81,1.58-.83.5-1.35.91-2.47,1.59-.36,0-.64-.51-.59-.81l.62-.47a2,2,0,0,0,.75-2.12c-.17-1.23-.41-2.68-.81-4.84l-1.36-7.3c-.36-1.88-.46-3-1-3.65a5.76,5.76,0,0,0,1.25-2.74c.31-.19.53-.16.85.15.62.59,1.46,1.32,3.11,2.69l9.09,7.58c1.39,1.16,2,1.59,2.94,1.19l1-.41c.22,0,.62.59.49.87-1.2.66-2.54,1.42-3.81,2.19s-2.16,1.33-3.25,2.06a.65.65,0,0,1-.57-.83l.71-.59c.51-.44.5-.67.41-.82a11.72,11.72,0,0,0-1.46-1.38l-1.92-1.7c-.36-.32-.59-.25-1.44.26Zm2-3c.56-.34.64-.49.06-1l-1.83-1.6c-1-.85-2.2-1.9-2.73-2.28.14.68.44,2.29.75,3.64l.49,2.2c.18.79.35.79,1,.42Z"/><path class="cls-2" d="M260.81,294.76c-1.76-2.24-2-2.46-3.05-1.85l-.68.38c-.31.07-.75-.49-.57-.82,1.6-1.43,3.28-2.89,5.42-4.56a11.91,11.91,0,0,1,5-2.64,4.67,4.67,0,0,1,4.58,1.77c1.57,2,.89,3.91.26,5.24-.14.29,0,.42.27.58,3.84,1.85,6.09,2.81,7.88,2.89a3.51,3.51,0,0,0,2-.55.54.54,0,0,1,.55.51,6.78,6.78,0,0,1-1.62,1.59,5.83,5.83,0,0,1-6.2,1.06,35.58,35.58,0,0,1-4.48-2.11,1.45,1.45,0,0,0-1.81.15c-.78.61-.79.69-.44,1.14l2.16,2.76c1.62,2.07,1.88,2.12,3,1.51l.7-.36c.24,0,.66.52.61.78-1.22.89-2.27,1.68-3.35,2.52s-2.1,1.68-3.23,2.64c-.28,0-.71-.54-.62-.79l.52-.59c.87-1,.89-1.23-.73-3.3Zm5.31.44c.62.79.74.81,2.06-.23a2.79,2.79,0,0,0,1.22-2,4.18,4.18,0,0,0-1.1-3.06c-1.58-2-3.79-2.39-5.54-1-.92.72-.92.83-.07,1.9Z"/><path class="cls-2" d="M275.31,283c-1.95-1.88-2.38-2.22-3.39-1.37l-.42.35c-.3.1-.9-.47-.68-.74,1.56-1.82,3-3.5,5.13-5.68a19.9,19.9,0,0,1,5.29-4.13,8.67,8.67,0,0,1,10,1.59,9.09,9.09,0,0,1,2.59,9.6,15.9,15.9,0,0,1-4.05,6.12c-.94,1-2.05,1.87-2.76,2.61-.95,1-1.94,2.05-3,3.26-.28.05-.78-.43-.72-.69l.51-.74c.75-1.06.7-1.34-1.18-3.16Zm9.34,3.35c1.13,1.09,1.91,1.76,2.7,1.81a3.12,3.12,0,0,0,2.24-1.13c3.43-3.55,1.43-7.82-1.36-10.51-3.69-3.57-7.77-3.74-11.36,0-.53.56-.81,1.05-.76,1.33s.41.68,1.05,1.29Z"/><path class="cls-2" d="M304,272.77a9.93,9.93,0,0,1-3.78,3.23c-.82.05-2.69-.88-4.24-2.05a.71.71,0,0,1,.58-.92c1.83.66,5.07.71,6.53-1.23a2.83,2.83,0,0,0-.45-4.19c-1.85-1.39-4.24-.48-6,.38-2.05,1-4.77,1.79-7,.1-2.59-1.92-2.86-5.26-.38-8.56a11.59,11.59,0,0,1,2.32-2.33,7.11,7.11,0,0,0,.76-.64,14.18,14.18,0,0,1,3.57,2c.19.32-.22.91-.6.94-1.45-.48-3.85-.75-5.09.89a2.65,2.65,0,0,0,.38,3.92c1,.79,2.7.57,4.15-.12l1.93-.91c1.82-.85,4.49-1.65,7,.23C306.51,265.66,306.6,269.33,304,272.77Z"/><path class="cls-3" d="M202.64,173.58c2.36-8.63.13-18.5,6.42-33.46a67.63,67.63,0,0,1,3.9-7.83v-.12a274.77,274.77,0,0,0-38.05-2.6h.32a274.51,274.51,0,0,0-38,2.6v.12a69,69,0,0,1,3.91,7.83c6.28,15,4,24.83,6.42,33.46a13.18,13.18,0,0,0,2.72,4.4,32.53,32.53,0,0,0,49.68,0A13.24,13.24,0,0,0,202.64,173.58Z"/><path class="cls-3" d="M189.74,189.37c-7.61,15.37-21.73,15.37-29.33,0,4,1.31,8.61,3.92,14.92,3.78C180.76,193,186.12,190.56,189.74,189.37Z"/><path class="cls-2" d="M174.91,113.08l.18.08.18-.08Z"/><polygon class="cls-1" points="175.09 113.39 174.07 112.88 176.1 112.88 175.09 113.39"/><path class="cls-3" d="M174.55,126.6A255.73,255.73,0,0,1,213,129.45a46.74,46.74,0,0,0-32-14.24,6.42,6.42,0,0,1-12.1,0,46.74,46.74,0,0,0-32,14.24,255.73,255.73,0,0,1,38.44-2.85"/><path class="cls-3" d="M132.66,132.65a16.19,16.19,0,0,1-10.78-3.91,11.64,11.64,0,0,1-4-6,29.8,29.8,0,0,1-.74-3.59c-.11-1-7.56,0-7.56,0s-.1.65-.26,2.2-.33,3.1-.39,4.64a65.25,65.25,0,0,0,0,9.17,32,32,0,0,0,1.69,8.6,19.84,19.84,0,0,0,4.42,6.45c4.73,4.63,9.66,4.48,14,6.31,3,1.26,6.52,3.81,9.7,9.22a1.59,1.59,0,0,1-2.42,2l-.06-.05c-1.15-1-5.77-4.57-7-5.33a28.89,28.89,0,0,0-8-3.49c-1.48-.44-3.07-.87-4.73-1.49a19,19,0,0,1-4.94-2.61,16.76,16.76,0,0,1-3.91-4.16,21.83,21.83,0,0,1-2.44-4.88,38,38,0,0,1-2-10.12,70.31,70.31,0,0,1,0-10c.06-1.65.27-3.27.41-4.91s.4-3.23.6-4.85l.31-2.44h18.32a22.63,22.63,0,0,0,1.89,9.61A23,23,0,0,0,132.66,132.65Z"/><path class="cls-3" d="M217.63,132.29a16.17,16.17,0,0,0,10.77-3.91,11.58,11.58,0,0,0,4-6,32,32,0,0,0,.75-3.59c.1-1,7.55,0,7.55,0s.1.66.27,2.21.33,3.09.38,4.63a63.78,63.78,0,0,1,0,9.17,32.64,32.64,0,0,1-1.69,8.6,20.2,20.2,0,0,1-4.42,6.45c-4.73,4.63-9.67,4.49-14,6.31-3,1.27-6.53,3.81-9.7,9.22a1.59,1.59,0,0,0,2.42,2l.05,0c1.16-1,5.78-4.57,7-5.34a28.58,28.58,0,0,1,8-3.48c1.49-.45,3.08-.88,4.74-1.49a19.34,19.34,0,0,0,4.94-2.62,16.51,16.51,0,0,0,3.9-4.15,22,22,0,0,0,2.45-4.89,37.93,37.93,0,0,0,2-10.12,70.32,70.32,0,0,0,0-10c-.07-1.65-.27-3.27-.41-4.9s-.41-3.24-.61-4.86l-.3-2.43H227.45a22.66,22.66,0,0,1-9.82,19.21Z"/><path class="cls-3" d="M184.53,202.77a13.17,13.17,0,1,1-17.92,0,19.79,19.79,0,0,0,8.66,2.14A20,20,0,0,0,184.53,202.77Z"/><path class="cls-3" d="M200.26,233a38.5,38.5,0,0,1-1.18-12.82h-7.47c-2.29,5.59-8.57,9.61-16,9.61s-13.69-4-16-9.61h-7.48a38.92,38.92,0,0,1-.88,11.39A45.88,45.88,0,0,1,145,246.18h61.19A45.45,45.45,0,0,1,200.26,233Z"/><path class="cls-1" d="M144.72,138.64a53.11,53.11,0,0,1,2.57,5.25c3,7.21,3.44,12.77,3.81,17.67a39,39,0,0,0,1,7.5,9.3,9.3,0,0,0,1.92,3.07,23.37,23.37,0,0,0,6.34,5.31c2-23.3-3-37.49-4-40C152.48,137.71,148.57,138.12,144.72,138.64Z"/><path class="cls-3" d="M166.18,103.66a5.79,5.79,0,0,1,2.79,2.42,5.86,5.86,0,0,1,.78,3.08,5.16,5.16,0,1,0,10.32,0,6.74,6.74,0,0,1,1.23-3.28,6.64,6.64,0,0,1,2.81-2.22Z"/><path class="cls-3" d="M179.5,93.43a7.13,7.13,0,0,1-3.32-4.29L175,84.94h-.09l-1.31,4.48a7.35,7.35,0,0,1-3.12,4.22,9,9,0,0,0-4.25,7.63h17.93A9,9,0,0,0,179.5,93.43Z"/><path class="cls-2" d="M137.55,257.26V274.5a107.94,107.94,0,0,0,76.16,0V257.26a7.17,7.17,0,0,0-7.17-7.17H144.72A7.17,7.17,0,0,0,137.55,257.26Z"/><path class="cls-1" d="M53.83,76.37a26.17,26.17,0,0,1,.25-7.19s2.94,3.88,3.74,6.15a.09.09,0,0,1,0,0h0c.53,2.13.09,4.07-1,4.35s-2.43-1.19-3-3.3A.35.35,0,0,1,53.83,76.37Z"/><path class="cls-2" d="M55.74,80.6a2.23,2.23,0,0,0,1.35.1c1.67-.44,2.4-2.83,1.71-5.56a1,1,0,0,0,0-.14,32.6,32.6,0,0,0-3.89-6.42l-1.38-1.82L53.1,69a27.14,27.14,0,0,0-.25,7.54h0l0,.14h0A5.65,5.65,0,0,0,55.74,80.6Zm1.14-4.95c.46,1.88,0,3-.29,3.12s-1.28-.72-1.79-2.6h0a18.85,18.85,0,0,1,0-4.32,21,21,0,0,1,2.12,3.77Zm-2.08.52-1,.26.95-.31Zm0,0Z"/><path class="cls-1" d="M61.83,81.63a25.87,25.87,0,0,0,6.11-3.8s-4.83-.62-7.19-.18l0,0h0c-2.11.59-3.58,1.93-3.28,3s2.24,1.51,4.36,1Z"/><path class="cls-2" d="M58.07,82.57a6.6,6.6,0,0,0,4,0h0a.5.5,0,0,0,.13,0h0a27.05,27.05,0,0,0,6.41-4l1.76-1.46-2.27-.29a32.76,32.76,0,0,0-7.5-.18l-.16,0c-2.7.76-4.4,2.58-3.95,4.25A2.46,2.46,0,0,0,58.07,82.57Zm3.46-1.89c-1.9.5-3.08,0-3.15-.25s.71-1.28,2.58-1.8h0a21.1,21.1,0,0,1,4.32,0A18,18,0,0,1,61.53,80.68Zm-.6-2.05Zm.09,0h0Z"/><path class="cls-2" d="M70.12,65.85l-2.21,2.09c-.74.7-1.48,1.38-2.18,2.11-1.42,1.45-2.86,2.88-4.21,4.4-.68.75-1.37,1.49-2.05,2.25L57.5,79l-1,1.15c-.32.39-.63.79-1,1.19l-1.9,2.38a143.78,143.78,0,0,0-13.24,20.45l-.73,1.35L39,106.89l-1.37,2.73-.34.68L37,111l-.63,1.39-1.25,2.78L33.94,118c-.39.94-.79,1.88-1.13,2.84-.7,1.91-1.45,3.8-2.07,5.75l-1,2.89c-.31,1-.57,2-.86,2.94s-.59,2-.84,2.93l-.73,3c-.48,2-1,4-1.36,6l-.59,3c-.18,1-.41,2-.54,3A145.23,145.23,0,0,0,31.3,222.5l1,2.86c.16.48.36.95.55,1.42l.58,1.41L34.62,231c.19.47.38.94.58,1.41l.64,1.38,1.28,2.76.64,1.37.33.69.35.67,2.85,5.37-2.58-5.49-.32-.69-.3-.7-.59-1.4-1.17-2.79-.59-1.4c-.19-.47-.35-.94-.53-1.42l-1.05-2.84-.52-1.42c-.18-.47-.36-.95-.5-1.43l-.92-2.89a159.63,159.63,0,0,1-5.59-23.5,156.28,156.28,0,0,1-1.77-24.06v-3c0-.51,0-1,.05-1.51l.07-1.51.15-3,.08-1.51c0-.5.09-1,.14-1.5.2-2,.38-4,.6-6l.87-6a155.66,155.66,0,0,1,15-45.7l1.39-2.68c.47-.89,1-1.76,1.47-2.64s1-1.77,1.5-2.63l1.56-2.58.78-1.3.83-1.26L51,89.27c.56-.84,1.15-1.66,1.72-2.49s1.15-1.66,1.75-2.47l1.81-2.43c.3-.4.59-.82.9-1.21l.94-1.19L60,77.11c.64-.78,1.3-1.54,2-2.31C64.52,71.71,67.3,68.77,70.12,65.85Z"/><circle class="cls-2" cx="26.44" cy="147.35" r="3.59"/><circle class="cls-1" cx="26.44" cy="147.35" r="1.79"/><path class="cls-1" d="M24.88,127.24c-.95-3.25-.61-8.52-.61-8.52s4,4.2,5.19,6.78c0,0,0,0,0,.06h0c.91,2.44.64,4.78-.62,5.26s-3-1.1-4-3.52Z"/><path class="cls-2" d="M27.71,131.81a2.47,2.47,0,0,0,1.5-.06c1.82-.69,2.34-3.5,1.21-6.54,0,0,0-.1-.07-.15-1.27-2.68-5.19-6.85-5.36-7l-1.57-1.67-.15,2.29c0,.22-.34,5.48.65,8.86l.06.14h0C24.84,129.88,26.28,131.42,27.71,131.81Zm.83-5.92h0c.8,2.16.43,3.81,0,4s-1.85-.81-2.68-2.95v0a22.86,22.86,0,0,1-.61-5.65A26.77,26.77,0,0,1,28.54,125.89Z"/><path class="cls-1" d="M37.1,130.54c2.46-2.33,4.82-7,4.82-7s-5.54,1.63-7.9,3.24l-.05,0h0c-2,1.65-3,3.82-2.11,4.86s3.16.57,5.19-1Z"/><path class="cls-2" d="M32.36,133.06c1.42.39,3.45-.22,5.31-1.7h0a1.09,1.09,0,0,0,.11-.1h0c2.56-2.42,4.93-7.13,5-7.33l1-2.05-2.19.65c-.24.07-5.72,1.7-8.18,3.38a.61.61,0,0,0-.14.1c-2.49,2-3.46,4.74-2.24,6.25A2.42,2.42,0,0,0,32.36,133.06Zm4.08-3.27h0c-1.8,1.43-3.48,1.59-3.8,1.2s.19-2,2-3.46h0a26.38,26.38,0,0,1,5.21-2.31A23.19,23.19,0,0,1,36.44,129.79Zm-1.86-2.24h0Zm.07,0h0Z"/><path class="cls-1" d="M32.55,108.27c-.71-3.3,0-8.54,0-8.54s3.64,4.49,4.68,7.14c0,0,0,0,0,.07h0c.72,2.49.28,4.81-1,5.2s-2.93-1.32-3.69-3.8A.41.41,0,0,0,32.55,108.27Z"/><path class="cls-2" d="M35,113a2.44,2.44,0,0,0,1.51,0c1.86-.55,2.58-3.32,1.68-6.43,0,0,0-.1-.06-.16-1.07-2.76-4.68-7.21-4.83-7.4l-1.45-1.77-.31,2.27c0,.22-.74,5.44,0,8.88l0,.15h0C32.32,110.91,33.65,112.55,35,113Zm1.27-5.84h0c.64,2.21.15,3.83-.33,4s-1.78-.94-2.45-3.13v0a22.42,22.42,0,0,1-.2-5.67A26.35,26.35,0,0,1,36.31,107.2Z"/><path class="cls-1" d="M43.48,113.43c2.83-1.86,6-6.11,6-6.11s-5.74.65-8.34,1.82l-.06,0h0c-2.26,1.27-3.57,3.24-2.92,4.42s3,1.11,5.3-.14Z"/><path class="cls-2" d="M38.67,115.21a6.82,6.82,0,0,0,5.23-.87h0l.13-.08h0c2.94-1.94,6.09-6.17,6.22-6.35l1.37-1.84-2.28.26c-.24,0-5.93.68-8.64,1.91l-.15.07c-2.81,1.59-4.23,4.07-3.29,5.77A2.54,2.54,0,0,0,38.67,115.21Zm4.3-2.63h0c-2,1.1-3.7,1-4,.52s.54-1.94,2.54-3.07h0a26.94,26.94,0,0,1,5.53-1.37A22.83,22.83,0,0,1,43,112.58Zm0,0Zm0,0h0Zm-1.42-2.55Zm.07,0Z"/><path class="cls-1" d="M42.22,90.9a28.08,28.08,0,0,1,.18-7.71s3.21,4.12,4.09,6.54c0,0,0,0,0,.06h0c.6,2.27.16,4.36-1,4.68S42.88,93.22,42.24,91Z"/><path class="cls-2" d="M44.35,95.35a2.27,2.27,0,0,0,1.41.08c1.74-.48,2.48-3,1.71-5.89a.83.83,0,0,0,0-.15c-.93-2.54-4.11-6.64-4.24-6.81l-1.41-1.81L41.42,83a29,29,0,0,0-.18,8.06h0l0,.13h0C41.87,93.34,43.07,94.87,44.35,95.35Zm1.2-5.28c.54,2,0,3.35-.32,3.44s-1.46-.78-2-2.82v0a20,20,0,0,1-.09-4.83A22.91,22.91,0,0,1,45.54,90Z"/><path class="cls-1" d="M52.11,96.24a28.27,28.27,0,0,0,6.5-4.15s-5.19-.61-7.72-.11l0,0h0c-2.26.66-3.81,2.12-3.48,3.29s2.43,1.59,4.69,1Z"/><path class="cls-2" d="M48.11,97.22a7,7,0,0,0,4.21,0h0l.14,0h0a28.67,28.67,0,0,0,6.81-4.33L61,91.36l-2.27-.26c-.22,0-5.38-.62-8-.1l-.15,0c-2.86.83-4.64,2.77-4.15,4.51A2.58,2.58,0,0,0,48.11,97.22Zm3.69-1.93h0c-2,.56-3.37,0-3.46-.28s.77-1.47,2.8-2.06h0A22.67,22.67,0,0,1,56,92.86,19.79,19.79,0,0,1,51.8,95.29Zm-.63-2.35Z"/><path class="cls-1" d="M18,164.37c-2.11,2.64-3.8,7.65-3.8,7.65s5.27-2.39,7.38-4.31l0,0h0c1.76-1.92,2.39-4.19,1.41-5.11s-3.21-.13-5,1.76A.23.23,0,0,0,18,164.37Z"/><path class="cls-2" d="M12.5,173.87l2.09-.94c.22-.1,5.43-2.48,7.63-4.48l.12-.12c2.18-2.37,2.77-5.17,1.35-6.49s-4.17-.56-6.4,1.8h0l-.09.1h0c-2.19,2.75-3.89,7.74-4,7.95ZM20.85,167A26.87,26.87,0,0,1,16,170a23.19,23.19,0,0,1,2.71-5h0c1.58-1.67,3.23-2.06,3.59-1.72s.09,2-1.47,3.7Zm0,0h0Zm.07-.06h0Z"/><path class="cls-1" d="M30.53,166c1.39,3.08,1.79,8.35,1.79,8.35s-4.51-3.62-6.09-6l0-.05h0C25,166,24.92,163.59,26.09,163s3.14.67,4.41,2.94Z"/><path class="cls-2" d="M33.48,176.51l-.17-2.29c0-.22-.42-5.48-1.87-8.68h0l-.07-.14h0c-1.58-2.83-4.05-4.26-5.76-3.32s-1.82,3.77-.3,6.61l0,0a.42.42,0,0,0,.07.13c1.64,2.48,6.1,6.07,6.29,6.23ZM29.64,166.4A23.12,23.12,0,0,1,31,171.9a26,26,0,0,1-3.94-4.11v0c-1.09-2-.95-3.71-.51-4s1.94.55,3.06,2.55Zm0,0Z"/><path class="cls-1" d="M18,184.53c-1.84,2.84-3,8-3,8s5-2.89,6.92-5l0,0h0c1.56-2.08,2-4.4.91-5.22s-3.21.19-4.8,2.24Z"/><path class="cls-2" d="M13.48,194.53l2-1.15c.21-.12,5.16-3,7.16-5.2a.94.94,0,0,0,.09-.12c2-2.59,2.27-5.43.72-6.61s-4.2-.14-6.19,2.42h0l-.09.12h0c-1.91,2.95-3.11,8.09-3.16,8.3Zm7.64-7.65a26.17,26.17,0,0,1-4.52,3.46,23.6,23.6,0,0,1,2.21-5.23l0,0c1.41-1.81,3-2.36,3.4-2.06s.29,2-1.07,3.8Zm0,0Zm-2.26-1.85h0Z"/><path class="cls-1" d="M30.05,183.61c2,2.74,3.4,7.83,3.4,7.83s-5.13-2.65-7.15-4.67l0-.05h0c-1.66-2-2.18-4.3-1.16-5.16s3.21,0,4.9,2Z"/><path class="cls-2" d="M35,193.38l-.62-2.21c-.06-.22-1.5-5.29-3.55-8.15l-.1-.11h0c-2.11-2.46-4.82-3.38-6.3-2.13s-1,4.08,1,6.57l.1.11c2.11,2.12,7.19,4.75,7.4,4.86Zm-5.77-9.16a23.21,23.21,0,0,1,2.46,5.12A25.66,25.66,0,0,1,27,186.09h0c-1.48-1.78-1.67-3.46-1.28-3.78s2,.15,3.5,1.89Zm0,0Z"/><path class="cls-1" d="M21.08,204.87A28.08,28.08,0,0,0,19,212.3s4.28-3,5.84-5.05l0-.05h0c1.24-2,1.43-4.12.41-4.77s-2.87.42-4.15,2.39Z"/><path class="cls-2" d="M17.67,214.43l1.88-1.32c.18-.12,4.42-3.11,6.06-5.26l.08-.13c1.59-2.52,1.63-5.16.1-6.13s-3.89.18-5.51,2.69h0a.76.76,0,0,0-.08.11h0A29,29,0,0,0,18,212.16ZM24,206.68A22.06,22.06,0,0,1,20.43,210a19.85,19.85,0,0,1,1.51-4.6h0c1.15-1.78,2.48-2.27,2.77-2.09s.4,1.6-.71,3.38Zm0,0Z"/><path class="cls-1" d="M32.1,202.68a28.39,28.39,0,0,1,5,5.89s-5.14-.95-7.41-2.18l0,0h0c-2-1.29-3-3.15-2.35-4.17s2.79-.81,4.77.46Z"/><path class="cls-2" d="M39.16,210,37.93,208a29,29,0,0,0-5.23-6.14h0l-.12-.08h0c-2.51-1.61-5.15-1.68-6.13-.16s.15,3.9,2.63,5.54h0l.13.09c2.37,1.27,7.47,2.23,7.69,2.27Zm-7.63-6.47a20.18,20.18,0,0,1,3.28,3.55,22.26,22.26,0,0,1-4.61-1.51l-.05,0c-1.73-1.15-2.22-2.49-2-2.78s1.61-.38,3.39.76Zm0,0Z"/><path class="cls-1" d="M28.07,225.37a26.21,26.21,0,0,0-1.46,7s3.78-3.07,5.09-5.09l0,0h0c1-1.93,1.06-3.92.07-4.46s-2.64.59-3.7,2.51Z"/><path class="cls-2" d="M25.46,234.64l1.78-1.45c.16-.13,3.91-3.19,5.29-5.31l.08-.13c1.32-2.49,1.17-5-.35-5.8s-3.69.43-5,2.9h0a.6.6,0,0,0-.06.11h0a26.81,26.81,0,0,0-1.53,7.38Zm5.38-7.81A20.72,20.72,0,0,1,27.9,230,17.63,17.63,0,0,1,29,225.82v0c.93-1.7,2.1-2.23,2.34-2.1s.44,1.39-.45,3.09Zm0,0Z"/><path class="cls-1" d="M37.09,222.16a26.31,26.31,0,0,1,5,5.14s-4.83-.54-7-1.53l0,0h0c-1.91-1.07-3-2.72-2.46-3.71s2.53-.94,4.46.1Z"/><path class="cls-2" d="M44.29,228.54l-1.37-1.84a27,27,0,0,0-5.28-5.37l-.13-.07h0c-2.47-1.35-5-1.23-5.8.28s.39,3.69,2.85,5.07l.12.07c2.31,1,7.13,1.58,7.33,1.61ZM36.56,223a17.79,17.79,0,0,1,3.16,2.93,20,20,0,0,1-4.18-1.06h0c-1.7-1-2.21-2.14-2.08-2.37s1.4-.43,3.11.5Zm.48-.88-.42.9-.06,0Z"/><path class="cls-1" d="M296.17,76.37a26.17,26.17,0,0,0-.25-7.19s-2.94,3.88-3.74,6.15a.09.09,0,0,0,0,0h0c-.53,2.13-.09,4.07,1,4.35s2.43-1.19,3-3.3A.35.35,0,0,0,296.17,76.37Z"/><path class="cls-2" d="M294.26,80.6a2.23,2.23,0,0,1-1.35.1c-1.67-.44-2.4-2.83-1.71-5.56a1,1,0,0,1,0-.14,32.6,32.6,0,0,1,3.89-6.42l1.38-1.82L296.9,69a27.14,27.14,0,0,1,.25,7.54h0l0,.14h0A5.65,5.65,0,0,1,294.26,80.6Zm-1.14-4.95c-.46,1.88,0,3,.29,3.12s1.28-.72,1.79-2.6h0a18.85,18.85,0,0,0,.05-4.32,21,21,0,0,0-2.12,3.77Zm2.08.52,1,.26-1-.31Zm0,0Z"/><path class="cls-1" d="M288.17,81.63a25.87,25.87,0,0,1-6.11-3.8s4.83-.62,7.19-.18l.05,0h0c2.11.59,3.58,1.93,3.28,3s-2.24,1.51-4.36,1Z"/><path class="cls-2" d="M291.93,82.57a6.6,6.6,0,0,1-4,0h0a.5.5,0,0,1-.13,0h0a27.05,27.05,0,0,1-6.41-4l-1.76-1.46,2.27-.29a32.76,32.76,0,0,1,7.5-.18l.16,0c2.7.76,4.4,2.58,4,4.25A2.46,2.46,0,0,1,291.93,82.57Zm-3.46-1.89c1.9.5,3.08,0,3.15-.25s-.71-1.28-2.58-1.8h0a21.1,21.1,0,0,0-4.32,0A18,18,0,0,0,288.47,80.68Zm.6-2.05Zm-.09,0h0Z"/><path class="cls-2" d="M279.88,65.85l2.21,2.09c.74.7,1.48,1.38,2.18,2.11,1.42,1.45,2.86,2.88,4.21,4.4.68.75,1.37,1.49,2,2.25l2,2.31,1,1.15c.32.39.63.79.95,1.19l1.9,2.38a143.78,143.78,0,0,1,13.24,20.45l.73,1.35c.23.45.45.9.68,1.36l1.37,2.73.34.68.31.7.63,1.39,1.25,2.78,1.16,2.83c.39.94.79,1.88,1.13,2.84.7,1.91,1.45,3.8,2.07,5.75l1,2.89c.31,1,.57,2,.86,2.94s.59,2,.84,2.93l.73,3c.48,2,1,4,1.36,6l.59,3c.18,1,.41,2,.54,3a145.23,145.23,0,0,1-6.44,72.22l-1,2.86c-.16.48-.36.95-.55,1.42l-.58,1.41L315.38,231c-.19.47-.38.94-.58,1.41l-.64,1.38-1.28,2.76-.64,1.37-.33.69-.35.67-2.85,5.37,2.58-5.49.32-.69.3-.7.59-1.4,1.17-2.79.59-1.4c.19-.47.35-.94.53-1.42l1-2.84.52-1.42c.18-.47.36-.95.5-1.43l.92-2.89a159.63,159.63,0,0,0,5.59-23.5,156.28,156.28,0,0,0,1.77-24.06v-3c0-.51,0-1-.05-1.51l-.07-1.51-.15-3-.08-1.51c0-.5-.09-1-.14-1.5-.2-2-.38-4-.6-6l-.87-6a155.66,155.66,0,0,0-14.95-45.7l-1.39-2.68c-.47-.89-1-1.76-1.47-2.64s-1-1.77-1.5-2.63l-1.56-2.58-.78-1.3-.83-1.26-1.64-2.54c-.56-.84-1.15-1.66-1.72-2.49s-1.15-1.66-1.75-2.47l-1.81-2.43c-.3-.4-.59-.82-.9-1.21l-.94-1.19L290,77.11c-.64-.78-1.3-1.54-2-2.31C285.48,71.71,282.7,68.77,279.88,65.85Z"/><circle class="cls-2" cx="323.56" cy="147.35" r="3.59"/><circle class="cls-1" cx="323.56" cy="147.35" r="1.79"/><path class="cls-1" d="M325.12,127.24c.95-3.25.61-8.52.61-8.52s-4,4.2-5.19,6.78c0,0,0,0,0,.06h0c-.91,2.44-.64,4.78.62,5.26s3-1.1,4-3.52Z"/><path class="cls-2" d="M322.29,131.81a2.47,2.47,0,0,1-1.5-.06c-1.82-.69-2.34-3.5-1.21-6.54,0,0,0-.1.07-.15,1.27-2.68,5.19-6.85,5.36-7l1.57-1.67.15,2.29c0,.22.34,5.48-.65,8.86l-.06.14h0C325.16,129.88,323.72,131.42,322.29,131.81Zm-.83-5.92h0c-.8,2.16-.43,3.81,0,4s1.85-.81,2.68-2.95v0a22.86,22.86,0,0,0,.61-5.65A26.77,26.77,0,0,0,321.46,125.89Z"/><path class="cls-1" d="M312.9,130.54c-2.46-2.33-4.82-7-4.82-7s5.54,1.63,7.9,3.24l0,0h0c2,1.65,3,3.82,2.11,4.86s-3.16.57-5.19-1Z"/><path class="cls-2" d="M317.64,133.06c-1.42.39-3.45-.22-5.31-1.7h0a1.09,1.09,0,0,1-.11-.1h0c-2.56-2.42-4.93-7.13-5-7.33l-1-2.05,2.19.65c.24.07,5.72,1.7,8.18,3.38a.61.61,0,0,1,.14.1c2.49,2,3.46,4.74,2.24,6.25A2.42,2.42,0,0,1,317.64,133.06Zm-4.08-3.27h0c1.8,1.43,3.48,1.59,3.8,1.2s-.19-2-2-3.46h0a26.38,26.38,0,0,0-5.21-2.31A23.19,23.19,0,0,0,313.56,129.79Zm1.86-2.24h0Zm-.07,0h0Z"/><path class="cls-1" d="M317.45,108.27c.71-3.3,0-8.54,0-8.54s-3.64,4.49-4.68,7.14c0,0,0,0,0,.07h0c-.72,2.49-.28,4.81,1,5.2s2.93-1.32,3.69-3.8A.41.41,0,0,1,317.45,108.27Z"/><path class="cls-2" d="M315,113a2.44,2.44,0,0,1-1.51,0c-1.86-.55-2.58-3.32-1.68-6.43,0,0,0-.1.06-.16,1.07-2.76,4.68-7.21,4.83-7.4l1.45-1.77.31,2.27c0,.22.74,5.44,0,8.88l0,.15h0C317.68,110.91,316.35,112.55,315,113Zm-1.27-5.84h0c-.64,2.21-.15,3.83.33,4s1.78-.94,2.45-3.13v0a22.42,22.42,0,0,0,.2-5.67A26.35,26.35,0,0,0,313.69,107.2Z"/><path class="cls-1" d="M306.52,113.43c-2.83-1.86-6-6.11-6-6.11s5.74.65,8.34,1.82l.06,0h0c2.26,1.27,3.57,3.24,2.92,4.42s-3,1.11-5.3-.14Z"/><path class="cls-2" d="M311.33,115.21a6.82,6.82,0,0,1-5.23-.87h0l-.13-.08h0c-2.94-1.94-6.09-6.17-6.22-6.35l-1.37-1.84,2.28.26c.24,0,5.93.68,8.64,1.91l.15.07c2.81,1.59,4.23,4.07,3.29,5.77A2.54,2.54,0,0,1,311.33,115.21Zm-4.3-2.63h0c2,1.1,3.7,1,3.95.52s-.54-1.94-2.54-3.07h0a26.94,26.94,0,0,0-5.53-1.37A22.83,22.83,0,0,0,307,112.58Zm0,0Zm0,0h0Zm1.42-2.55Zm-.07,0Z"/><path class="cls-1" d="M307.78,90.9a28.08,28.08,0,0,0-.18-7.71s-3.21,4.12-4.09,6.54c0,0,0,0,0,.06h0c-.6,2.27-.16,4.36,1,4.68s2.62-1.25,3.26-3.51A.39.39,0,0,1,307.78,90.9Z"/><path class="cls-2" d="M305.65,95.35a2.27,2.27,0,0,1-1.41.08c-1.74-.48-2.48-3-1.71-5.89a.83.83,0,0,1,0-.15c.93-2.54,4.11-6.64,4.24-6.81l1.41-1.81.36,2.26a29,29,0,0,1,.18,8.06h0l0,.13h0C308.13,93.34,306.93,94.87,305.65,95.35Zm-1.2-5.28c-.54,2,0,3.35.32,3.44s1.46-.78,2-2.82v0a20,20,0,0,0,.09-4.83A22.91,22.91,0,0,0,304.46,90Z"/><path class="cls-1" d="M297.89,96.24a28.27,28.27,0,0,1-6.5-4.15s5.19-.61,7.72-.11l.05,0h0c2.26.66,3.81,2.12,3.48,3.29s-2.43,1.59-4.69,1Z"/><path class="cls-2" d="M301.89,97.22a7,7,0,0,1-4.21,0h0l-.14,0h0a28.67,28.67,0,0,1-6.81-4.33L289,91.36l2.27-.26c.22,0,5.38-.62,8-.1l.15,0c2.86.83,4.64,2.77,4.15,4.51A2.58,2.58,0,0,1,301.89,97.22Zm-3.69-1.93h0c2,.56,3.37,0,3.46-.28s-.77-1.47-2.8-2.06h0a22.67,22.67,0,0,0-4.85-.09A19.79,19.79,0,0,0,298.2,95.29Zm.63-2.35Z"/><path class="cls-1" d="M332,164.37c2.11,2.64,3.8,7.65,3.8,7.65s-5.27-2.39-7.38-4.31l0,0h0c-1.76-1.92-2.39-4.19-1.41-5.11s3.21-.13,5,1.76A.23.23,0,0,1,332,164.37Z"/><path class="cls-2" d="M337.5,173.87l-2.09-.94c-.22-.1-5.43-2.48-7.63-4.48l-.12-.12c-2.18-2.37-2.77-5.17-1.35-6.49s4.17-.56,6.4,1.8h0l.09.1h0c2.19,2.75,3.89,7.74,4,7.95ZM329.15,167a26.87,26.87,0,0,0,4.84,3,23.19,23.19,0,0,0-2.71-5h0c-1.58-1.67-3.23-2.06-3.59-1.72s-.09,2,1.47,3.7Zm0,0h0Zm-.07-.06h0Z"/><path class="cls-1" d="M319.47,166c-1.39,3.08-1.79,8.35-1.79,8.35s4.51-3.62,6.09-6l0-.05h0c1.23-2.28,1.28-4.65.11-5.29s-3.14.67-4.41,2.94Z"/><path class="cls-2" d="M316.52,176.51l.17-2.29c0-.22.42-5.48,1.87-8.68h0l.07-.14h0c1.58-2.83,4.05-4.26,5.76-3.32s1.82,3.77.3,6.61l0,0a.42.42,0,0,1-.07.13c-1.64,2.48-6.1,6.07-6.29,6.23Zm3.84-10.11a23.12,23.12,0,0,0-1.39,5.5,26,26,0,0,0,3.94-4.11v0c1.09-2,.95-3.71.51-4s-1.94.55-3.06,2.55Zm0,0Z"/><path class="cls-1" d="M332,184.53c1.84,2.84,3,8,3,8s-5-2.89-6.92-5l0,0h0c-1.56-2.08-2-4.4-.91-5.22s3.21.19,4.8,2.24Z"/><path class="cls-2" d="M336.52,194.53l-2-1.15c-.21-.12-5.16-3-7.16-5.2a.94.94,0,0,1-.09-.12c-2-2.59-2.27-5.43-.72-6.61s4.2-.14,6.19,2.42h0l.09.12h0c1.91,2.95,3.11,8.09,3.16,8.3Zm-7.64-7.65a26.17,26.17,0,0,0,4.52,3.46,23.6,23.6,0,0,0-2.21-5.23l0,0c-1.41-1.81-3-2.36-3.4-2.06s-.29,2,1.07,3.8Zm0,0Zm2.26-1.85h0Z"/><path class="cls-1" d="M320,183.61c-2,2.74-3.4,7.83-3.4,7.83s5.13-2.65,7.15-4.67l0-.05h0c1.66-2,2.18-4.3,1.16-5.16s-3.21,0-4.9,2Z"/><path class="cls-2" d="M315,193.38l.62-2.21c.06-.22,1.5-5.29,3.55-8.15l.1-.11h0c2.11-2.46,4.82-3.38,6.3-2.13s1,4.08-1,6.57l-.1.11c-2.11,2.12-7.19,4.75-7.4,4.86Zm5.77-9.16a23.21,23.21,0,0,0-2.46,5.12,25.66,25.66,0,0,0,4.68-3.25h0c1.48-1.78,1.67-3.46,1.28-3.78s-2,.15-3.5,1.89Zm0,0Z"/><path class="cls-1" d="M328.92,204.87a28.08,28.08,0,0,1,2.1,7.43s-4.28-3-5.84-5.05l0-.05h0c-1.24-2-1.43-4.12-.41-4.77s2.87.42,4.15,2.39Z"/><path class="cls-2" d="M332.33,214.43l-1.88-1.32c-.18-.12-4.42-3.11-6.06-5.26l-.08-.13c-1.59-2.52-1.63-5.16-.1-6.13s3.89.18,5.51,2.69h0a.76.76,0,0,1,.08.11h0a29,29,0,0,1,2.21,7.76ZM326,206.68a22.06,22.06,0,0,0,3.56,3.29,19.85,19.85,0,0,0-1.51-4.6h0c-1.15-1.78-2.48-2.27-2.77-2.09s-.4,1.6.71,3.38Zm0,0Z"/><path class="cls-1" d="M317.9,202.68a28.39,28.39,0,0,0-5,5.89s5.14-.95,7.41-2.18l0,0h0c2-1.29,3-3.15,2.35-4.17s-2.79-.81-4.77.46Z"/><path class="cls-2" d="M310.84,210l1.23-1.94a29,29,0,0,1,5.23-6.14h0l.12-.08h0c2.51-1.61,5.15-1.68,6.13-.16s-.15,3.9-2.63,5.54h0l-.13.09c-2.37,1.27-7.47,2.23-7.69,2.27Zm7.63-6.47a20.18,20.18,0,0,0-3.28,3.55,22.26,22.26,0,0,0,4.61-1.51l.05,0c1.73-1.15,2.22-2.49,2-2.78s-1.61-.38-3.39.76Zm0,0Z"/><path class="cls-1" d="M321.93,225.37a26.21,26.21,0,0,1,1.46,7s-3.78-3.07-5.09-5.09c0,0,0,0,0,0h0c-1-1.93-1.06-3.92-.07-4.46s2.64.59,3.7,2.51Z"/><path class="cls-2" d="M324.54,234.64l-1.78-1.45c-.16-.13-3.91-3.19-5.29-5.31l-.08-.13c-1.32-2.49-1.17-5,.35-5.8s3.69.43,5,2.9h0a.6.6,0,0,1,.06.11h0a26.81,26.81,0,0,1,1.53,7.38Zm-5.38-7.81A20.72,20.72,0,0,0,322.1,230a17.63,17.63,0,0,0-1.06-4.16v0c-.93-1.7-2.1-2.23-2.34-2.1s-.44,1.39.45,3.09Zm0,0Z"/><path class="cls-1" d="M312.91,222.16a26.31,26.31,0,0,0-5,5.14s4.83-.54,7-1.53l0,0h0c1.91-1.07,3-2.72,2.46-3.71s-2.53-.94-4.46.1Z"/><path class="cls-2" d="M305.71,228.54l1.37-1.84a27,27,0,0,1,5.28-5.37l.13-.07h0c2.47-1.35,5-1.23,5.8.28s-.39,3.69-2.85,5.07l-.12.07c-2.31,1-7.13,1.58-7.33,1.61Zm7.73-5.53a17.79,17.79,0,0,0-3.16,2.93,20,20,0,0,0,4.18-1.06h0c1.7-1,2.21-2.14,2.08-2.37s-1.4-.43-3.11.5Zm-.48-.88.42.9.06,0Z"/></svg>