<svg id="Layer_1" data-name="Layer 1" xmlns="http://www.w3.org/2000/svg" xmlns:xlink="http://www.w3.org/1999/xlink" viewBox="0 0 250 158"><defs><style>.cls-1,.cls-5{fill:none;}.cls-2{clip-path:url(#clip-path);}.cls-3{fill:#fff;}.cls-4{fill:#6d2323;}.cls-5{stroke:#000;stroke-miterlimit:10;stroke-width:0.17px;}.cls-6{fill:#8e7f55;}</style><clipPath id="clip-path"><rect class="cls-1" x="-0.5" width="250" height="158"/></clipPath></defs><title>logo</title><g class="cls-2"><circle class="cls-3" cx="125" cy="79" r="125"/><rect class="cls-1" x="-9.87" y="-0.41" width="269.74" height="158.82"/><path class="cls-4" d="M218.45-.41H31.55a122.61,122.61,0,0,0,0,158.82h186.9a122.61,122.61,0,0,0,0-158.82Z"/><circle class="cls-3" cx="125" cy="79" r="79" transform="translate(-19.25 111.53) rotate(-45)"/><path d="M125,141A61.95,61.95,0,0,1,81.22,35.19a62,62,0,1,1,87.61,87.62A61.54,61.54,0,0,1,125,141Zm0-121.17A59.22,59.22,0,1,0,166.9,37.12,58.85,58.85,0,0,0,125,19.78Z"/><ellipse class="cls-5" cx="125.03" cy="79" rx="58.95" ry="14.74" transform="translate(-21.54 98.76) rotate(-39.97)"/><path d="M170.28,41.07c2.53,3,.2,9.81-6.55,19.11s-17.14,20-29.22,30.13-24.44,18.48-34.78,23.51-17.42,6.13-20,3.11-.2-9.81,6.55-19.11,17.14-20,29.22-30.13S140,49.21,150.32,44.18,167.74,38.05,170.28,41.07ZM79.91,116.81c2.53,3,9.59,1.91,19.9-3.1s22.62-13.33,34.67-23.43,22.39-20.77,29.13-30,9-16,6.53-19.05-9.59-1.91-19.9,3.1-22.62,13.33-34.67,23.43-22.39,20.77-29.13,30S77.39,113.8,79.91,116.81Z"/><ellipse class="cls-5" cx="125.03" cy="79" rx="14.74" ry="58.95" transform="matrix(0.5, -0.87, 0.87, 0.5, -5.94, 147.7)"/><path d="M73.91,49.45c2-3.41,9.15-3.55,20.19-.38s24.66,9.26,38.31,17.15,25.72,16.64,34,24.64,11.72,14.28,9.75,17.69-9.14,3.55-20.19.38-24.66-9.26-38.31-17.15-25.72-16.64-34-24.64S71.94,52.86,73.91,49.45Zm102.07,59c2-3.4-1.48-9.67-9.71-17.64S146,74.13,132.39,66.26,105.22,52.32,94.2,49.16s-18.17-3-20.13.38,1.48,9.67,9.72,17.64,20.26,16.69,33.87,24.56,27.17,13.94,38.19,17.1S174,111.86,176,108.46Z"/><ellipse class="cls-5" cx="125.03" cy="79" rx="58.95" ry="14.74" transform="translate(25.46 188.35) rotate(-79.97)"/><path d="M114.74,137.14c-3.88-.69-6.46-7.38-7.26-18.85s.26-26.33,3-41.86S117.33,46.57,122,36.07s9.41-15.9,13.29-15.21,6.46,7.38,7.26,18.85-.26,26.33-3,41.86-6.84,29.86-11.53,40.36S118.62,137.83,114.74,137.14ZM135.28,21c-3.87-.68-8.58,4.7-13.25,15.16S113.27,61,110.54,76.44s-3.81,30.3-3,41.73,3.37,18.11,7.24,18.79,8.58-4.7,13.25-15.16,8.76-24.76,11.5-40.24,3.8-30.3,3-41.73S139.15,21.72,135.28,21Z"/><ellipse class="cls-5" cx="125.03" cy="79" rx="58.95" ry="14.74" transform="translate(-11.79 22.84) rotate(-9.97)"/><path d="M183.18,68.78c.68,3.88-4.73,8.59-15.23,13.27s-24.84,8.76-40.37,11.49-30.4,3.78-41.87,3-18.15-3.4-18.83-7.29S71.6,80.63,82.1,76s24.84-8.76,40.37-11.49,30.4-3.78,41.87-3S182.49,64.89,183.18,68.78ZM67.05,89.19c.69,3.87,7.35,6.45,18.79,7.26s26.25-.24,41.73-3S157.35,86.7,167.82,82,183.68,72.68,183,68.81s-7.35-6.45-18.78-7.26-26.26.24-41.74,3S92.7,71.3,82.23,76,66.37,85.32,67.05,89.19Z"/><ellipse class="cls-5" cx="125.03" cy="79" rx="14.74" ry="58.95" transform="translate(-22.75 73.02) rotate(-29.97)"/><path d="M95.53,27.85c3.41-2,9.69,1.5,17.68,9.77s16.72,20.34,24.6,34,14,27.27,17.11,38.32,3,18.23-.4,20.2-9.69-1.5-17.68-9.77-16.72-20.34-24.6-34-14-27.27-17.11-38.32S92.11,29.82,95.53,27.85ZM154.43,130c3.41-2,3.55-9.11.4-20.13s-9.2-24.59-17.06-38.21S121.21,46,113.25,37.75,99,26.05,95.62,28s-3.55,9.11-.4,20.13,9.2,24.59,17.06,38.21,16.56,25.66,24.52,33.9S151,132,154.43,130Z"/><ellipse class="cls-5" cx="125.03" cy="79" rx="58.95" ry="14.74" transform="translate(-15.88 123.93) rotate(-49.97)"/><path d="M87.05,124.21c-3-2.53-1.9-9.62,3.13-19.95s13.4-22.68,23.54-34.75,20.86-22.45,30.16-29.19S160,31.25,163,33.79s1.91,9.62-3.13,20-13.4,22.68-23.54,34.75-20.86,22.45-30.16,29.19S90.07,126.75,87.05,124.21Zm75.83-90.28c-3-2.53-9.78-.22-19,6.51s-20,17.06-30.07,29.1S95.31,93.88,90.29,104.18s-6.13,17.36-3.12,19.89,9.78.22,19.06-6.51,20-17.06,30.06-29.1,18.45-24.34,23.47-34.64S165.89,36.46,162.88,33.93Z"/><ellipse class="cls-5" cx="125.03" cy="79" rx="14.74" ry="58.95" transform="translate(7.99 169.41) rotate(-69.97)"/><path d="M180.5,99.22c-1.35,3.7-8.39,5.08-19.82,3.88S134.79,98.27,120,92.87,91.75,81,82.23,74.51s-14-12-12.68-15.73,8.39-5.08,19.82-3.88,25.89,4.83,40.71,10.23,28.22,11.92,37.74,18.36S181.85,95.51,180.5,99.22ZM69.72,58.84c-1.34,3.7,3.14,9.27,12.64,15.68S105.22,87.44,120,92.83s29.18,9,40.58,10.2,18.41-.18,19.76-3.87-3.14-9.27-12.64-15.68-22.85-12.92-37.63-18.31-29.18-9-40.58-10.2S71.07,55.15,69.72,58.84Z"/><ellipse class="cls-5" cx="125.03" cy="79" rx="14.74" ry="58.95"/><path d="M125.05,20c3.94,0,7.65,6.14,10.43,17.3s4.31,26,4.31,41.75-1.55,30.59-4.34,41.74S128.94,138,125,138s-7.65-6.14-10.43-17.3-4.31-26-4.31-41.75,1.55-30.59,4.35-41.74S121.11,20,125.05,20Zm0,117.9c3.93,0,7.63-6.12,10.41-17.24s4.32-25.89,4.33-41.61-1.52-30.51-4.29-41.63S129,20.14,125.05,20.14s-7.63,6.12-10.41,17.24S110.32,63.27,110.31,79s1.52,30.51,4.29,41.63S121.07,137.86,125,137.86Z"/><ellipse class="cls-5" cx="125.03" cy="79" rx="58.95" ry="14.74" transform="translate(-19.47 47.47) rotate(-19.98)"/><path d="M69.54,99.17c-1.35-3.7,3.15-9.29,12.68-15.72S105.16,70.52,120,65.13s29.28-9,40.72-10.2,18.47.19,19.81,3.9-3.15,9.29-12.68,15.72-22.94,12.93-37.76,18.32-29.28,9-40.72,10.2S70.88,102.88,69.54,99.17Zm110.8-40.28C179,55.2,172,53.82,160.59,55S134.77,59.8,120,65.17,91.85,77,82.35,83.44s-14,12-12.64,15.67,8.36,5.07,19.75,3.89,25.82-4.8,40.59-10.17S158.2,81,167.7,74.56,181.69,62.58,180.34,58.89Z"/><ellipse class="cls-5" cx="125.03" cy="79" rx="14.74" ry="58.95" transform="translate(-21.54 98.79) rotate(-39.98)"/><path d="M163,124.24c-3,2.54-9.81.21-19.11-6.54s-20-17.13-30.14-29.22S95.23,64.05,90.2,53.71s-6.13-17.42-3.11-20,9.81-.21,19.11,6.54,20,17.13,30.14,29.22S154.82,94,159.85,104.29,166,121.71,163,124.24ZM87.21,33.9c-3,2.52-1.91,9.59,3.1,19.89s13.34,22.62,23.44,34.66,20.77,22.4,30,29.13,16,9,19.05,6.52,1.91-9.59-3.1-19.89S146.4,81.59,136.3,69.55s-20.77-22.4-30-29.13S90.22,31.37,87.21,33.9Z"/><ellipse class="cls-5" cx="125.03" cy="79" rx="58.95" ry="14.74" transform="matrix(0.5, -0.87, 0.87, 0.5, -5.93, 147.73)"/><path d="M154.56,27.88c3.42,2,3.55,9.14.39,20.19s-9.25,24.66-17.14,38.31-16.64,25.73-24.63,34-14.28,11.72-17.69,9.75-3.55-9.14-.39-20.19,9.26-24.66,17.15-38.31,16.63-25.73,24.63-34S151.15,25.91,154.56,27.88ZM95.58,130c3.4,2,9.66-1.48,17.63-9.72S129.9,100,137.77,86.36s13.93-27.18,17.09-38.19,3-18.17-.39-20.13-9.66,1.48-17.63,9.72S120.15,58,112.28,71.64,98.35,98.82,95.19,109.83,92.17,128,95.58,130Z"/><ellipse class="cls-5" cx="125.03" cy="79" rx="14.74" ry="58.95" transform="translate(25.48 188.38) rotate(-79.98)"/><path d="M66.88,68.73c.69-3.88,7.38-6.47,18.85-7.27s26.33.26,41.86,3S157.46,71.3,168,76s15.9,9.41,15.22,13.29-7.38,6.47-18.85,7.27-26.33-.26-41.86-3S92.59,86.7,82.1,82,66.2,72.61,66.88,68.73ZM183,89.24c.68-3.87-4.7-8.57-15.17-13.25s-24.75-8.75-40.23-11.48-30.31-3.8-41.74-3-18.1,3.38-18.79,7.25S71.77,77.33,82.23,82,107,90.76,122.47,93.49s30.3,3.8,41.73,3S182.3,93.11,183,89.24Z"/><ellipse class="cls-5" cx="125.03" cy="79" rx="14.74" ry="58.95" transform="translate(-11.8 22.87) rotate(-9.98)"/><path d="M135.26,137.15c-3.88.68-8.6-4.72-13.28-15.22s-8.76-24.84-11.49-40.37-3.79-30.4-3-41.87,3.4-18.15,7.28-18.84,8.6,4.72,13.28,15.22,8.76,24.84,11.49,40.37,3.79,30.4,3,41.87S139.14,136.46,135.26,137.15ZM114.82,21c-3.87.68-6.45,7.35-7.26,18.78s.25,26.26,3,41.74,6.8,29.78,11.46,40.24,9.37,15.86,13.24,15.18,6.45-7.35,7.26-18.78-.25-26.26-3-41.74-6.8-29.78-11.46-40.24S118.69,20.35,114.82,21Z"/><ellipse class="cls-5" cx="125.03" cy="79" rx="58.95" ry="14.74" transform="translate(-22.75 73.06) rotate(-29.98)"/><path d="M176.17,49.49c2,3.42-1.5,9.7-9.77,17.69s-20.34,16.72-34,24.6-27.27,14-38.32,17.12-18.22,3-20.19-.39,1.49-9.7,9.76-17.69,20.34-16.72,34-24.61,27.27-14,38.32-17.11S174.2,46.08,176.17,49.49ZM74,108.42c2,3.4,9.12,3.54,20.14.39s24.58-9.21,38.2-17.06S158,75.18,166.28,67.21,178,53,176,49.58s-9.12-3.54-20.13-.39-24.59,9.21-38.21,17.06S92,82.82,83.78,90.79,72.08,105,74,108.42Z"/><ellipse class="cls-5" cx="125.03" cy="79" rx="14.74" ry="58.95" transform="translate(-15.87 123.96) rotate(-49.99)"/><path d="M79.81,41c2.53-3,9.62-1.91,20,3.12s22.68,13.39,34.76,23.54S157,88.54,163.71,97.85s9.07,16.09,6.53,19.11-9.62,1.91-20-3.12-22.68-13.4-34.76-23.54S93.09,69.46,86.34,60.15,77.27,44.06,79.81,41Zm90.3,75.81c2.52-3,.21-9.78-6.52-19.06s-17.06-20-29.1-30.06S110.14,49.29,99.84,44.27,82.47,38.14,80,41.15s-.22,9.78,6.51,19.06,17.06,19.95,29.1,30.06,24.35,18.44,34.65,23.46S167.58,119.86,170.11,116.85Z"/><ellipse class="cls-5" cx="125.03" cy="79" rx="58.95" ry="14.74" transform="translate(8.01 169.44) rotate(-69.99)"/><path d="M104.82,134.48c-3.71-1.35-5.09-8.39-3.89-19.82S105.76,88.77,111.16,74s11.91-28.23,18.35-37.75,12-14,15.72-12.68,5.09,8.39,3.89,19.82-4.83,25.89-10.23,40.71S127,112.28,120.54,121.8,108.52,135.83,104.82,134.48ZM145.17,23.69c-3.69-1.34-9.26,3.15-15.68,12.64S116.58,59.19,111.2,74s-9,29.19-10.2,40.59.19,18.41,3.88,19.76,9.26-3.15,15.68-12.64S133.47,98.81,138.85,84s9-29.19,10.2-40.59S148.86,25,145.17,23.69Z"/><ellipse class="cls-5" cx="125.03" cy="79" rx="58.95" ry="14.74"/><path d="M184.07,79c0,3.94-6.15,7.65-17.3,10.44s-26,4.31-41.75,4.31-30.59-1.54-41.75-4.33S66,82.93,66,79s6.15-7.65,17.3-10.44,26-4.31,41.75-4.31,30.6,1.54,41.75,4.33S184.07,75.07,184.07,79ZM66.17,79c0,3.93,6.12,7.62,17.23,10.41s25.9,4.31,41.62,4.32,30.51-1.53,41.62-4.31,17.24-6.47,17.25-10.4-6.13-7.62-17.24-10.41-25.9-4.31-41.62-4.31-30.51,1.52-41.62,4.3S66.17,75.06,66.17,79Z"/><ellipse class="cls-5" cx="125.03" cy="79" rx="14.74" ry="58.95" transform="translate(-19.47 47.5) rotate(-19.99)"/><path d="M104.84,23.51c3.71-1.34,9.29,3.16,15.72,12.69S133.51,59.13,138.9,74s9,29.28,10.21,40.72-.2,18.47-3.9,19.82-9.29-3.16-15.72-12.69-12.94-22.93-18.34-37.75-9-29.28-10.2-40.72S101.14,24.86,104.84,23.51Zm40.31,110.8c3.69-1.34,5.07-8.36,3.88-19.75S144.23,88.74,138.85,74,127,45.83,120.58,36.33s-12-14-15.68-12.64S99.83,32.05,101,43.44,105.82,69.26,111.2,84s11.86,28.14,18.27,37.64S141.45,135.66,145.15,134.31Z"/><ellipse class="cls-5" cx="125.03" cy="79" rx="58.95" ry="14.74" transform="translate(-21.53 98.82) rotate(-39.99)"/><path d="M79.79,116.94c-2.53-3-.21-9.8,6.54-19.11s17.13-20,29.21-30.14S140,49.2,150.3,44.17s17.43-6.13,20-3.11.21,9.8-6.54,19.11-17.13,20-29.21,30.14-24.43,18.49-34.76,23.52S82.32,120,79.79,116.94Zm90.33-75.77c-2.53-3-9.59-1.91-19.89,3.11s-22.62,13.34-34.66,23.45S93.18,88.5,86.45,97.78s-9,16-6.52,19,9.59,1.91,19.89-3.11,22.62-13.34,34.66-23.45,22.39-20.77,29.12-30S172.65,44.18,170.12,41.17Z"/><ellipse class="cls-5" cx="125.03" cy="79" rx="14.74" ry="58.95" transform="translate(-5.91 147.76) rotate(-59.99)"/><path d="M176.15,108.53c-2,3.41-9.14,3.55-20.19.39s-24.66-9.25-38.32-17.14-25.72-16.63-34-24.62S71.93,52.89,73.9,49.47s9.14-3.55,20.19-.39,24.66,9.25,38.32,17.14,25.73,16.63,34,24.62S178.12,105.11,176.15,108.53Zm-102.09-59c-2,3.41,1.48,9.67,9.72,17.64s20.27,16.68,33.89,24.54,27.18,13.93,38.19,17.09,18.17,3,20.14-.39-1.49-9.67-9.73-17.64S146,74.12,132.38,66.26,105.2,52.33,94.19,49.17,76,46.16,74.06,49.56Z"/><ellipse class="cls-5" cx="125.03" cy="79" rx="58.95" ry="14.74" transform="translate(25.5 188.4) rotate(-79.99)"/><path d="M135.28,20.86c3.89.68,6.47,7.37,7.28,18.84s-.26,26.33-3,41.86-6.83,29.87-11.51,40.37-9.4,15.9-13.28,15.21-6.47-7.37-7.28-18.84.26-26.33,3-41.86S117.32,46.57,122,36.07,131.4,20.17,135.28,20.86ZM114.8,137c3.87.69,8.57-4.7,13.24-15.16S136.78,97,139.52,81.56s3.79-30.31,3-41.74-3.38-18.1-7.25-18.78S126.68,25.74,122,36.2,113.27,61,110.53,76.44s-3.79,30.31-3,41.74S110.93,136.28,114.8,137Z"/><ellipse class="cls-5" cx="125.03" cy="79" rx="58.95" ry="14.74" transform="translate(-11.81 22.9) rotate(-9.99)"/><path d="M66.88,89.25C66.2,85.36,71.6,80.65,82.1,76s24.83-8.77,40.36-11.51,30.4-3.79,41.87-3,18.16,3.39,18.84,7.27S178.45,77.35,168,82s-24.83,8.77-40.36,11.51-30.4,3.79-41.87,3S67.56,93.13,66.88,89.25ZM183,68.78c-.68-3.87-7.35-6.44-18.78-7.25s-26.26.25-41.74,3S92.7,71.31,82.23,76,66.38,85.34,67.06,89.22s7.35,6.44,18.78,7.25,26.26-.25,41.74-3,29.77-6.8,40.24-11.47S183.67,72.66,183,68.78Z"/><ellipse class="cls-5" cx="125.03" cy="79" rx="14.74" ry="58.95" transform="translate(-22.75 73.09) rotate(-30)"/><path d="M154.54,130.13c-3.41,2-9.69-1.49-17.68-9.75s-16.73-20.34-24.62-34-14-27.27-17.13-38.32-3-18.22.4-20.19,9.69,1.49,17.68,9.75,16.73,20.34,24.62,34,14,27.27,17.13,38.32S158,128.16,154.54,130.13ZM95.6,28c-3.41,2-3.54,9.12-.39,20.14s9.21,24.58,17.07,38.2,16.58,25.65,24.54,33.89,14.23,11.69,17.63,9.73,3.55-9.12.39-20.14-9.21-24.58-17.07-38.2S121.19,46,113.23,37.75,99,26.06,95.6,28Z"/><ellipse class="cls-5" cx="125.03" cy="79" rx="58.95" ry="14.74" transform="translate(-15.86 123.99) rotate(-50)"/><path d="M163,33.77c3,2.54,1.91,9.62-3.12,20s-13.39,22.68-23.53,34.76-20.84,22.45-30.15,29.2-16.09,9.07-19.11,6.54-1.91-9.62,3.12-20,13.39-22.68,23.53-34.76,20.84-22.45,30.15-29.2S160,31.24,163,33.77ZM87.19,124.09c3,2.52,9.78.21,19-6.52s20-17.07,30.06-29.11,18.43-24.35,23.45-34.65,6.12-17.37,3.11-19.9-9.78-.21-19.05,6.52-20,17.07-30.06,29.11S95.32,93.89,90.3,104.19,84.18,121.56,87.19,124.09Z"/><ellipse class="cls-5" cx="125.03" cy="79" rx="14.74" ry="58.95" transform="translate(8.03 169.46) rotate(-70)"/><path d="M69.54,58.81c1.35-3.71,8.39-5.09,19.82-3.9s25.89,4.83,40.71,10.22S158.3,77,167.83,83.47s14,12,12.68,15.72-8.39,5.09-19.82,3.9S134.8,98.26,120,92.87,91.75,81,82.22,74.53,68.2,62.51,69.54,58.81Zm110.8,40.32c1.34-3.69-3.15-9.26-12.65-15.67s-22.86-12.91-37.63-18.29-29.19-9-40.59-10.18-18.41.18-19.75,3.88,3.14,9.26,12.64,15.67S105.22,87.45,120,92.83s29.19,9,40.59,10.18S179,102.83,180.34,99.13Z"/><ellipse class="cls-5" cx="125.03" cy="79" rx="14.74" ry="58.95"/><path d="M125,138c-4,0-7.65-6.14-10.44-17.29s-4.33-26-4.33-41.75,1.54-30.6,4.33-41.75S121.08,20,125,20s7.64,6.14,10.43,17.29,4.33,26,4.33,41.75-1.54,30.6-4.33,41.75S129,138,125,138Zm0-117.9c-3.94,0-7.63,6.12-10.41,17.24s-4.31,25.9-4.31,41.62,1.53,30.5,4.31,41.62,6.47,17.24,10.41,17.24,7.62-6.12,10.4-17.24,4.31-25.9,4.31-41.62-1.53-30.5-4.31-41.62S129,20.14,125,20.14Z"/><circle class="cls-3" cx="125.03" cy="79" r="52.4"/><path d="M125,131.67a52.66,52.66,0,1,1,37.24-15.42A52.37,52.37,0,0,1,125,131.67Zm0-104.8a52.12,52.12,0,1,0,36.86,15.27A51.75,51.75,0,0,0,125,26.87Z"/><path d="M125,138.22a59.22,59.22,0,1,1,41.87-17.34A58.85,58.85,0,0,1,125,138.22Zm0-117.9a58.67,58.67,0,1,0,41.49,17.19A58.33,58.33,0,0,0,125,20.32Z"/><path d="M124.93,129a50.05,50.05,0,1,1,35.38-14.66A49.72,49.72,0,0,1,124.93,129Zm0-98.26A48.23,48.23,0,1,0,159,44.91,47.91,47.91,0,0,0,124.93,30.78Z"/><path d="M95.18,11.39a17.37,17.37,0,0,0,1,1.71c0,.16-.26.36-.39.29a2.32,2.32,0,0,0-3-.54c-1.27.64-2.07,2.4-.93,4.66s3.07,2.82,4.43,2.13a2.75,2.75,0,0,0,1.43-2.93.36.36,0,0,1,.47-.14,5.48,5.48,0,0,1,.47,2,9.26,9.26,0,0,1-2.09,1.59,5.81,5.81,0,0,1-3.5.68,4,4,0,0,1-3-2.25,4.22,4.22,0,0,1-.15-3.7,5.62,5.62,0,0,1,2.64-2.61A15.38,15.38,0,0,1,95.18,11.39Z"/><path d="M101.77,13.43c-.5.17-.51.19-.39.52l.58,1.74c.37,1.13.48,1.21,1.05,1.1l.4-.08a.37.37,0,0,1,.14.42l-1.85.58c-.58.19-1.18.41-1.78.64a.36.36,0,0,1-.14-.43l.27-.13c.53-.26.55-.4.18-1.52l-1.5-4.49c-.37-1.13-.47-1.23-1-1.12l-.3.07a.38.38,0,0,1-.15-.43c.6-.17,1.24-.37,1.82-.56s1.14-.4,1.66-.6a.36.36,0,0,1,.14.43l-.24.12c-.49.24-.52.39-.15,1.51l.47,1.4c.11.35.13.36.62.19l2.52-.83c.5-.17.5-.18.38-.53L104,10c-.38-1.12-.47-1.19-1-1.09l-.35.06a.37.37,0,0,1-.14-.43c.67-.19,1.27-.38,1.85-.57s1.14-.4,1.69-.61a.37.37,0,0,1,.14.43l-.23.11c-.52.27-.56.41-.19,1.53l1.5,4.49c.38,1.12.48,1.19,1.06,1.1l.31,0a.37.37,0,0,1,.14.42c-.61.18-1.21.36-1.76.55s-1.19.41-1.77.63a.37.37,0,0,1-.14-.43l.26-.12c.53-.26.55-.4.17-1.52l-.58-1.74c-.11-.34-.11-.35-.62-.18Z"/><path d="M111.24,12c-.3.05-.33.07-.37.32l-.22,1.55a1.33,1.33,0,0,0,0,.46c0,.08.19.12.55.12h.39c.09.07.17.35,0,.44-.44,0-.89.14-1.42.22s-.71.17-1.28.27c-.15-.05-.19-.31-.12-.43l.33-.1a.86.86,0,0,0,.65-.76c.12-.54.25-1.19.42-2.15l.58-3.26A4.8,4.8,0,0,0,111,7a2.51,2.51,0,0,0,1-1c.16,0,.25,0,.34.2.16.34.4.78.87,1.61l2.61,4.59c.4.71.56,1,1,1h.49c.09,0,.17.35.07.44-.61.09-1.28.2-1.94.32s-1.11.21-1.68.35a.29.29,0,0,1-.1-.44l.38-.13c.28-.11.32-.2.3-.28a4.29,4.29,0,0,0-.39-.81l-.54-1c-.1-.19-.2-.2-.64-.12Zm1.31-.93c.29-.05.34-.1.18-.41l-.51-.95c-.28-.51-.63-1.14-.79-1.38,0,.3-.17,1-.25,1.63L111,11c-.05.36,0,.39.33.33Z"/><path d="M117.19,5.72c-.1-.1-.11-.4,0-.45.43,0,1,0,1.6,0,.42,0,.79,0,1.25-.08a7.28,7.28,0,0,0,1.1,2.73l.9,1.76c.12.25.6,1,.79,1.35.16-.31.35-.71.67-1.47l.6-1.43A15.29,15.29,0,0,0,125.23,5a10.61,10.61,0,0,0,1.27,0c.42,0,1,0,1.46-.09.14.07.15.32,0,.45l-.37.07c-.51.11-.76.27-.74,1,.09,2.62.16,4,.29,5.59,0,.59.11.89.6.94l.41,0c.11.1.12.4,0,.45-.58,0-1.13,0-1.76,0s-1.27.06-1.88.1a.28.28,0,0,1,0-.44l.38-.06c.58-.1.58-.25.55-1l-.14-3.31,0-1.45h0c-.87,2.07-1.82,4.23-2.59,6.41a.47.47,0,0,1-.25.1.7.7,0,0,1-.33-.07c-.55-1.56-2.22-4.66-3-6.29h0c0,.82,0,1.39,0,2.05,0,.83,0,2.1.07,2.86s.1.81.61.87l.5.06a.36.36,0,0,1,0,.45c-.47,0-1,0-1.5,0s-.89,0-1.4.09c-.17,0-.18-.38-.07-.45l.23,0c.65-.14.72-.22.77-1,0-.63,0-1.73.08-2.95,0-.85,0-1.88,0-2.57s-.31-.91-.82-1Z"/><path d="M130.74,7.34c.14-1.28.13-1.43-.39-1.55l-.39-.1c-.11-.07-.08-.35.07-.42.84,0,1.84.09,2.94.21a6.58,6.58,0,0,1,2.28.59,2.26,2.26,0,0,1,1.3,2.36c-.24,2.07-2.36,2.14-3,2.07l-.4-.06a.24.24,0,0,1,0-.35c1.08-.21,1.38-.93,1.49-1.87a1.74,1.74,0,0,0-1.4-2.13c-.47,0-.51.09-.57.59L132,12c-.13,1.18-.06,1.29.5,1.44l.39.11a.27.27,0,0,1,0,.43L131,13.75c-.6-.07-1.21-.13-1.9-.18-.13-.09-.12-.38,0-.43l.36,0c.58,0,.66-.12.79-1.3Z"/><path d="M139.7,13.24c-.25,1.17-.19,1.27.36,1.49l.34.14a.37.37,0,0,1-.1.43c-.67-.17-1.28-.31-1.87-.43s-1.22-.24-1.9-.35a.36.36,0,0,1,.09-.44H137c.6,0,.69-.05.93-1.23l1-4.59c.24-1.17.19-1.27-.37-1.49l-.33-.14a.34.34,0,0,1,.09-.43c.67.17,1.29.31,1.89.43s1.21.24,1.89.35a.38.38,0,0,1-.09.44h-.36c-.6,0-.69,0-.94,1.22Z"/><path d="M151.17,14.17c-.87,2.64-3.16,3.64-5.76,2.78a4.16,4.16,0,0,1-2.84-5.51,4.39,4.39,0,0,1,5.72-2.82A4.21,4.21,0,0,1,151.17,14.17Zm-3.16-5c-1.48-.5-2.74.63-3.41,2.65-.49,1.48-.75,4,1.22,4.67,1.58.52,2.71-.82,3.36-2.78S149.51,9.64,148,9.15Z"/><path d="M158.71,20.2c-.37.73-.73,1.45-.9,1.84A1,1,0,0,1,157,22s-.1-.78-.3-1.71l-1-4.57a19.45,19.45,0,0,0-.51-2.08,2.26,2.26,0,0,0-.42.7l-1.12,2.2a9.1,9.1,0,0,0-.88,2.16c0,.29.2.5.48.7l.29.21a.39.39,0,0,1-.2.39c-.6-.33-1-.57-1.51-.8s-.84-.42-1.28-.61a.4.4,0,0,1,.2-.4l.21.07c.33.09.6.13.81-.06a9.05,9.05,0,0,0,1.21-2l1.46-2.88a2.86,2.86,0,0,0,.41-1c0-.24-.08-.46-.45-.71l-.29-.21c0-.13.11-.4.24-.37l1.55.83c.39.19.72.35,1,.44a11.23,11.23,0,0,0,.57,3.54l.38,1.61c.2.84.33,1.4.46,1.8a1.9,1.9,0,0,0,.3-.49l.8-1.57A9.1,9.1,0,0,0,160.3,15c0-.29-.19-.5-.48-.7l-.28-.2a.4.4,0,0,1,.2-.39c.6.33,1,.57,1.51.8s.83.41,1.28.61a.4.4,0,0,1-.2.4l-.22-.07a.75.75,0,0,0-.8.06,8.61,8.61,0,0,0-1.22,2Z"/><path d="M75,122.21c.23-.21.28-.25.07-.49l-.54-.6c-.63-.71-1.2-.57-2.17-.23a.36.36,0,0,1-.23-.44,15.73,15.73,0,0,0,1.94-1.15.4.4,0,0,1,.17.09.3.3,0,0,1,.08.18c-.12.19-.13.26.52,1l3.22,3.62c.57.64.71.78,1,.68a.31.31,0,0,1,.14.1.3.3,0,0,1,.06.21,9.13,9.13,0,0,0-1.8,1.34c-.13,0-.39-.21-.35-.33.47-.72.81-1.27.16-2l-.52-.59c-.21-.23-.26-.24-.52,0L72,127.42c-.9.8-.93.93-.6,1.42l.3.43a.43.43,0,0,1-.34.31c-.54-.65-1-1.15-1.36-1.59s-.87-1-1.5-1.63c0-.13.22-.33.34-.3l.44.39c.44.4.58.38,1.48-.42Z"/><path d="M78.14,127.23c.87-1,.94-1.1.59-1.52l-.23-.27c0-.14.16-.38.32-.33.78.61,1.57,1.25,2.49,2.07a5.58,5.58,0,0,1,1.59,2A2.13,2.13,0,0,1,80.13,132c-.14,0-.19,0-.23.17a10.52,10.52,0,0,0-.67,3.77,1.63,1.63,0,0,0,.4.85.24.24,0,0,1-.18.29,3,3,0,0,1-.85-.6,2.66,2.66,0,0,1-1-2.7,15.79,15.79,0,0,1,.59-2.18.66.66,0,0,0-.21-.8c-.34-.31-.37-.31-.55-.11l-1.07,1.19c-.8.9-.8,1-.43,1.48l.22.29c0,.11-.19.34-.31.34-.49-.48-.93-.89-1.4-1.31s-.92-.81-1.44-1.24c0-.13.18-.36.3-.34l.31.19c.51.31.62.29,1.42-.6Zm.22,2.42c-.3.34-.3.39.28.91a1.26,1.26,0,0,0,1,.39,1.92,1.92,0,0,0,1.28-.74,1.71,1.71,0,0,0,0-2.57c-.4-.36-.44-.35-.86.12Z"/><path d="M89.32,138.64c-1.62,2.33-4.16,2.65-6.46,1.05a4.25,4.25,0,0,1-1.18-6.23,4.48,4.48,0,0,1,6.43-1.1A4.32,4.32,0,0,1,89.32,138.64Zm-1.64-5.85c-1.32-.91-2.88-.17-4.12,1.62-.91,1.3-1.9,3.72-.16,4.93,1.4,1,2.9,0,4.11-1.75S89,133.71,87.68,132.79Z"/><path d="M91.63,137.38c.61-1.17.66-1.32.21-1.63l-.34-.23c-.07-.11.06-.37.23-.38.79.34,1.72.77,2.72,1.29a6.6,6.6,0,0,1,2,1.41,2.31,2.31,0,0,1,.36,2.74c-1,1.89-3,1.17-3.65.84a3.07,3.07,0,0,1-.36-.2.24.24,0,0,1,.13-.33A1.83,1.83,0,0,0,95,139.66a1.78,1.78,0,0,0-.54-2.55c-.43-.22-.52-.11-.76.35l-2.56,4.87c-.56,1.07-.54,1.2-.06,1.55l.34.25a.3.3,0,0,1-.21.4c-.63-.37-1.19-.67-1.75-1s-1.11-.57-1.74-.87c-.1-.14,0-.41.18-.4l.35.11c.57.18.68.13,1.24-.94Z"/><path d="M99.24,143.64c-.5-.19-.51-.18-.64.16l-.66,1.75c-.43,1.14-.4,1.28.12,1.56l.38.19a.38.38,0,0,1-.16.43c-.69-.29-1.3-.53-1.84-.74s-1.2-.43-1.84-.64a.38.38,0,0,1,.16-.43l.31.07c.59.14.7,0,1.12-1.09l1.71-4.54c.43-1.13.41-1.28-.12-1.56l-.28-.15a.37.37,0,0,1,.16-.43c.59.25,1.22.5,1.8.72s1.17.43,1.71.61a.36.36,0,0,1-.16.42l-.27-.06c-.55-.12-.67,0-1.1,1.11l-.53,1.41c-.13.36-.12.37.38.56l2.53.95c.51.2.52.18.65-.17l.53-1.41c.43-1.14.41-1.26-.12-1.55l-.31-.18a.35.35,0,0,1,.16-.42c.66.27,1.25.51,1.84.73s1.16.42,1.73.61a.37.37,0,0,1-.16.43l-.26-.06c-.59-.12-.7,0-1.13,1.09l-1.71,4.54c-.42,1.13-.38,1.25.14,1.55l.28.16a.38.38,0,0,1-.16.43c-.61-.25-1.2-.49-1.76-.7s-1.21-.44-1.81-.64a.38.38,0,0,1,.16-.43l.29.07c.58.14.69,0,1.12-1.1l.66-1.75c.13-.34.13-.36-.38-.55Z"/><path d="M107.74,148.7c-.3,1.18-.25,1.29.3,1.54l.34.16a.38.38,0,0,1-.13.44c-.67-.21-1.29-.38-1.88-.53s-1.24-.31-1.93-.47a.38.38,0,0,1,.12-.44l.37,0c.6,0,.7,0,1-1.2l1.21-4.64c.31-1.19.26-1.29-.3-1.55l-.33-.15a.39.39,0,0,1,.11-.45c.68.21,1.3.38,1.91.54s1.23.31,1.91.46a.37.37,0,0,1-.11.44l-.37,0c-.61-.05-.71,0-1,1.2Z"/><path d="M112.87,146.4c-.07.36-.06.39.29.45l.89.15c.66.11.83.05,1.07-.54l.12-.31c.1-.09.42,0,.47.09-.1.4-.19.86-.27,1.35s-.15,1-.2,1.37c-.08.11-.4.07-.47-.06v-.34c0-.64-.16-.77-.83-.88l-.89-.15c-.34-.06-.36-.05-.42.34l-.27,1.52a2.34,2.34,0,0,0,0,1.26c.13.26.35.4,1.29.56,1.12.2,1.56.23,2.52-1.1a.31.31,0,0,1,.46.15,7.21,7.21,0,0,1-.89,2c-.68-.14-1.91-.37-3-.55l-1.67-.28c-.62-.11-1.25-.2-2.22-.34a.39.39,0,0,1,.08-.45h.62c.59,0,.68-.05.89-1.23l.82-4.79c.2-1.17.13-1.26-.43-1.48l-.31-.12a.32.32,0,0,1,.11-.44c.6.13,1.22.25,1.84.35l2.72.47c.82.14,1.56.25,1.73.25,0,.21-.09,1.15-.17,2-.08.14-.38.11-.49,0a3,3,0,0,0-.31-1.09,1.7,1.7,0,0,0-1.19-.62l-1-.17c-.42-.08-.43,0-.51.42Z"/><path d="M119.21,152.67A4.64,4.64,0,0,1,117,152a4.14,4.14,0,0,1-.26-2.14.32.32,0,0,1,.49,0c.2.86,1,2.12,2.09,2.2a1.3,1.3,0,0,0,1.5-1.21c.07-1.05-.87-1.75-1.62-2.19a3,3,0,0,1-1.78-2.68c.1-1.47,1.31-2.4,3.2-2.26a5.32,5.32,0,0,1,1.46.31,2.78,2.78,0,0,0,.44.14,6.52,6.52,0,0,1,.1,1.87c-.08.16-.41.15-.51,0-.18-.68-.67-1.67-1.6-1.74a1.2,1.2,0,0,0-1.41,1.11,1.89,1.89,0,0,0,1.07,1.57l.82.52a3,3,0,0,1,1.65,2.74C122.56,151.87,121.17,152.81,119.21,152.67Z"/><path d="M131.54,145.79c.08.93-.7,1.39-1.06,1.66a6.62,6.62,0,0,1,2.09,1.65,13.3,13.3,0,0,0,.57-1.43,4.27,4.27,0,0,0,.24-.94c0-.12-.14-.18-.37-.2l-.23,0c-.13-.07-.14-.4,0-.46l.53,0c1-.09,1.88-.22,2.55-.3a.29.29,0,0,1,.06.45l-.34.08a1.75,1.75,0,0,0-.84.47,6.87,6.87,0,0,0-.86,1.38l-.68,1.24a1,1,0,0,0-.15.36h0c0-.06,0,.06.25.35.5.56.9,1.3,2,1.2a2.39,2.39,0,0,0,1.14-.45.32.32,0,0,1,.19.31,3.45,3.45,0,0,1-2.5,1.26,1.88,1.88,0,0,1-1.65-.42,5.31,5.31,0,0,1-.49-.68,3.6,3.6,0,0,1-2.52,1.5c-1.72.15-2.86-.75-3-2.09a2.93,2.93,0,0,1,1.79-2.71,2.07,2.07,0,0,1-1-1.49,2.1,2.1,0,0,1,2-2.25A1.82,1.82,0,0,1,131.54,145.79Zm-1.4,5.86a2,2,0,0,0,1.5-1s-.06-.1-.24-.36a6.32,6.32,0,0,0-2.09-1.78,1.26,1.26,0,0,0-.33-.16,1.76,1.76,0,0,0-.74,1.63A1.7,1.7,0,0,0,130.14,151.65Zm-.7-6.86a.87.87,0,0,0-.7,1,1.62,1.62,0,0,0,1.12,1.3,1.71,1.71,0,0,0,.44-1.4C130.26,145.23,130,144.75,129.44,144.79Z"/><path d="M141.65,147.8c-.3.08-.34.1-.35.36l-.11,1.59a1.36,1.36,0,0,0,0,.47c0,.08.2.11.57.08l.4,0c.1.07.2.36.09.45-.45.09-.9.21-1.43.34s-.71.22-1.29.38c-.16,0-.22-.31-.15-.43l.33-.13a.91.91,0,0,0,.6-.83c.08-.56.16-1.23.26-2.23l.34-3.37a4.84,4.84,0,0,0,.05-1.72,2.72,2.72,0,0,0,.9-1c.16-.05.25,0,.35.17.2.34.47.77,1,1.58l3,4.49c.46.68.65.94,1.14.9l.5,0a.39.39,0,0,1,.1.44c-.61.13-1.3.3-1.95.47l-1.69.48a.29.29,0,0,1-.14-.43l.38-.17c.28-.12.31-.23.29-.3a4.88,4.88,0,0,0-.47-.8l-.62-1c-.12-.18-.22-.18-.66-.07Zm1.26-1.05c.29-.07.34-.13.16-.43l-.6-.93c-.32-.5-.72-1.12-.91-1.36,0,.32-.09,1.07-.13,1.7l-.07,1c0,.37,0,.39.36.31Z"/><path d="M155.44,137.51a1,1,0,0,0-.44.48,8.71,8.71,0,0,0-.13,1.61c0,1.65-.14,5.19-.1,7a.88.88,0,0,1-.36.26.61.61,0,0,1-.37,0c-.25-.24-.6-.6-.88-.88l-1-.94c-.32-.32-.63-.62-.81-.76,0,.25,0,.6-.08,1l-.08,1.39c0,.46,0,.87-.06,1.34,0,.09-.19.19-.37.26a.64.64,0,0,1-.36,0c-.4-.43-1.32-1.33-2.09-2.07l-3.68-3.48c-.61-.58-.71-.61-1.14-.54l-.33.06c-.14-.08-.23-.33-.12-.44.46-.16,1-.35,1.59-.6s1-.41,1.45-.62c.11,0,.28.3.19.42l-.2.12c-.21.12-.27.22-.23.3a14.23,14.23,0,0,0,1.22,1.25l2.27,2.19c.64.62,1,.88,1.22,1.12,0-.3.1-1,.11-1.5l0-.41a1.25,1.25,0,0,0-.05-.47,2.27,2.27,0,0,0-.31-.39l-2.18-2.09c-.52-.5-.64-.55-1.12-.41l-.12,0c-.16,0-.25-.34-.14-.44.53-.19,1-.36,1.54-.58s1.07-.44,1.38-.59c.16,0,.28.31.22.41l-.19.13c-.13.09-.29.21-.26.3a1.28,1.28,0,0,0,.25.32l.7.69c.21.21.5.47.7.64l0-1v-.28a5.3,5.3,0,0,0,0-1c0-.08-.1-.1-.31-.07l-.47.09c-.12-.05-.22-.34-.14-.44.36-.12.8-.28,1.2-.44s.92-.38,1.22-.53a.38.38,0,0,1,.19.43l-.31.21c-.38.25-.46.28-.59,1.18-.1.61-.16,1.34-.19,1.71a3.71,3.71,0,0,0,0,.74s0,.1.21.26l1.06,1c.58.54.91.85,1.05,1,0-1.64.07-3.44.06-5.15a7,7,0,0,0-.08-1.1c0-.13-.26-.1-.44-.08l-.29,0a.36.36,0,0,1-.14-.44c.4-.13.9-.31,1.26-.46s.77-.32,1.1-.48c.13,0,.25.28.21.41Z"/><path d="M157.71,141.77c-.27.15-.3.18-.25.44l.28,1.57a1.38,1.38,0,0,0,.14.45c0,.07.23.06.58-.06l.37-.13c.11,0,.28.29.2.41-.41.2-.83.42-1.31.68s-.63.39-1.16.67c-.16,0-.28-.24-.25-.38l.29-.2a.9.9,0,0,0,.38-.95c-.06-.57-.14-1.23-.28-2.23l-.49-3.35a4.65,4.65,0,0,0-.37-1.69,2.53,2.53,0,0,0,.62-1.23c.15-.08.25-.06.39.09s.64.63,1.37,1.28l4,3.63c.61.56.86.76,1.32.6l.47-.17c.1,0,.27.28.21.41-.56.28-1.19.6-1.78.93s-1,.57-1.53.88a.3.3,0,0,1-.24-.39l.34-.26c.24-.19.24-.29.2-.36a5.08,5.08,0,0,0-.64-.66l-.85-.81c-.16-.16-.26-.13-.66.09Zm1-1.32c.26-.14.3-.2,0-.45l-.8-.76c-.43-.41-1-.91-1.21-1.1.05.32.16,1.06.28,1.68l.18,1c.07.37.14.37.43.21Z"/><path d="M161.4,135.59c-.75-1.07-.86-1.17-1.35-.92l-.32.16a.3.3,0,0,1-.24-.39c.76-.61,1.56-1.24,2.57-1.95a5.48,5.48,0,0,1,2.36-1.09,2.13,2.13,0,0,1,2.05,3.31c-.07.13,0,.19.11.27a10.81,10.81,0,0,0,3.53,1.5,1.59,1.59,0,0,0,.92-.21.26.26,0,0,1,.24.25,3.27,3.27,0,0,1-.78.69,2.67,2.67,0,0,1-2.85.34,17,17,0,0,1-2-1.07.66.66,0,0,0-.83,0c-.37.26-.38.3-.23.51l.92,1.31c.69,1,.81,1,1.35.76l.33-.15c.11,0,.29.25.26.37-.58.37-1.08.71-1.59,1.07s-1,.72-1.53,1.13c-.13,0-.31-.26-.26-.38l.24-.25c.42-.42.44-.54-.25-1.52Zm2.41.32c.26.37.32.38.95-.06a1.24,1.24,0,0,0,.59-.87,1.86,1.86,0,0,0-.42-1.42,1.72,1.72,0,0,0-2.51-.59c-.44.31-.43.35-.07.87Z"/><path d="M167.74,131c-.83-.91-1-1.08-1.51-.72l-.2.15c-.14,0-.39-.24-.28-.35.76-.79,1.47-1.52,2.49-2.45a8.91,8.91,0,0,1,2.53-1.73,3.93,3.93,0,0,1,4.5,1,4.16,4.16,0,0,1,.91,4.45,7.27,7.27,0,0,1-2,2.68c-.45.41-1,.79-1.33,1.11s-.94.88-1.47,1.4c-.13,0-.34-.22-.31-.33l.25-.32c.37-.47.36-.6-.45-1.48Zm4.17,1.78c.48.53.82.86,1.17.9a1.39,1.39,0,0,0,1.06-.45c1.66-1.52.87-3.52-.33-4.82-1.58-1.73-3.44-1.92-5.18-.33-.25.24-.39.45-.38.58s.17.32.44.62Z"/><path d="M180.65,127.66a4.67,4.67,0,0,1-1.83,1.35,4.33,4.33,0,0,1-1.87-1.07.33.33,0,0,1,.3-.4,2.79,2.79,0,0,0,3-.35,1.3,1.3,0,0,0-.07-1.93c-.79-.69-1.92-.35-2.72,0a3,3,0,0,1-3.21-.18c-1.12-1-1.14-2.48.1-3.91a5,5,0,0,1,1.13-1,4,4,0,0,0,.37-.27,6.3,6.3,0,0,1,1.56,1c.08.15-.13.41-.3.41a2.08,2.08,0,0,0-2.35.24,1.22,1.22,0,0,0,0,1.8,1.92,1.92,0,0,0,1.9.08l.91-.35a3,3,0,0,1,3.18.33C182,124.5,181.94,126.17,180.65,127.66Z"/><path class="cls-6" d="M137.62,78.35c1.08-3.94.06-8.45,2.93-15.28a30.39,30.39,0,0,1,1.79-3.57v-.06A126.63,126.63,0,0,0,125,58.25h.15a126.67,126.67,0,0,0-17.38,1.19v.06a30.65,30.65,0,0,1,1.78,3.57c2.87,6.83,1.85,11.34,2.93,15.28a6,6,0,0,0,1.25,2,14.86,14.86,0,0,0,22.69,0A6.1,6.1,0,0,0,137.62,78.35Z"/><path class="cls-6" d="M131.73,85.56c-3.47,7-9.92,7-13.39,0,1.82.6,3.93,1.79,6.81,1.73C127.63,87.24,130.08,86.1,131.73,85.56Z"/><path d="M125,50.72l.08,0,.08,0Z"/><polygon class="cls-3" points="125.04 50.86 124.58 50.63 125.5 50.63 125.04 50.86"/><path class="cls-6" d="M124.8,56.9a116.37,116.37,0,0,1,17.55,1.3,21.28,21.28,0,0,0-14.63-6.5,2.93,2.93,0,0,1-5.52,0,21.28,21.28,0,0,0-14.63,6.5,116.37,116.37,0,0,1,17.55-1.3"/><path class="cls-6" d="M105.66,59.66a7.41,7.41,0,0,1-4.92-1.79,5.33,5.33,0,0,1-1.85-2.75,16.18,16.18,0,0,1-.34-1.64c0-.45-3.45,0-3.45,0s0,.3-.12,1-.15,1.42-.17,2.12a27.91,27.91,0,0,0,0,4.19,14.58,14.58,0,0,0,.77,3.92,9.23,9.23,0,0,0,2,3c2.16,2.11,4.41,2,6.39,2.88a9.42,9.42,0,0,1,4.43,4.21.72.72,0,0,1-1.1.91l0,0c-.53-.46-2.64-2.09-3.18-2.44a13.24,13.24,0,0,0-3.65-1.59c-.68-.2-1.41-.4-2.17-.68A8.88,8.88,0,0,1,96,69.75a7.67,7.67,0,0,1-1.79-1.9,9.87,9.87,0,0,1-1.11-2.23A16.84,16.84,0,0,1,92.22,61a31.42,31.42,0,0,1,0-4.55c0-.75.12-1.49.19-2.24s.18-1.47.27-2.21l.14-1.12h8.37a10.35,10.35,0,0,0,4.48,8.78Z"/><path class="cls-6" d="M144.47,59.5a7.41,7.41,0,0,0,4.92-1.79A5.33,5.33,0,0,0,151.24,55a16.18,16.18,0,0,0,.34-1.64c0-.45,3.45,0,3.45,0s0,.3.12,1,.15,1.41.17,2.12a27.77,27.77,0,0,1,0,4.18,14.66,14.66,0,0,1-.77,3.93,9.23,9.23,0,0,1-2,3c-2.16,2.11-4.41,2-6.39,2.88a9.42,9.42,0,0,0-4.43,4.21.72.72,0,0,0,1.1.91l0,0c.53-.46,2.64-2.09,3.18-2.44a13.24,13.24,0,0,1,3.65-1.59c.68-.21,1.41-.4,2.17-.68a8.61,8.61,0,0,0,2.25-1.2,7.46,7.46,0,0,0,1.79-1.89A9.87,9.87,0,0,0,157,65.46a16.91,16.91,0,0,0,.92-4.62,31.42,31.42,0,0,0,0-4.55c0-.75-.12-1.49-.19-2.24s-.18-1.48-.27-2.21l-.14-1.12H149a10.42,10.42,0,0,1-.86,4.39A10.55,10.55,0,0,1,144.47,59.5Z"/><path class="cls-6" d="M129.35,91.68a6,6,0,1,1-8.18,0,9.1,9.1,0,0,0,8.18,0Z"/><path class="cls-6" d="M136.53,105.49a17.43,17.43,0,0,1-.53-5.85h-3.42a8.26,8.26,0,0,1-14.59,0h-3.41a17.68,17.68,0,0,1-.4,5.2,21,21,0,0,1-2.86,6.66h27.94A20.47,20.47,0,0,1,136.53,105.49Z"/><path class="cls-3" d="M111.17,62.4a21.13,21.13,0,0,1,1.17,2.39,23.35,23.35,0,0,1,1.75,8.07,18.47,18.47,0,0,0,.46,3.43,4.46,4.46,0,0,0,.88,1.4,10.89,10.89,0,0,0,2.9,2.43c.9-10.65-1.39-17.12-1.84-18.29C114.72,62,112.93,62.16,111.17,62.4Z"/><path class="cls-6" d="M121,46.42a2.72,2.72,0,0,1,1.28,1.11,2.65,2.65,0,0,1,.35,1.4,2.36,2.36,0,1,0,4.72,0,3,3,0,0,1,.56-1.49,3.13,3.13,0,0,1,1.28-1Z"/><path class="cls-6" d="M127.06,41.75a3.29,3.29,0,0,1-1.52-2L125,37.87h0l-.59,2.05a3.39,3.39,0,0,1-1.43,1.93A4.1,4.1,0,0,0,121,45.33h8.19A4.1,4.1,0,0,0,127.06,41.75Z"/><path d="M107.9,116.56v7.88a49.28,49.28,0,0,0,34.78,0v-7.88a3.28,3.28,0,0,0-3.28-3.27H111.17A3.27,3.27,0,0,0,107.9,116.56Z"/><path class="cls-3" d="M69.66,34a12,12,0,0,1,.12-3.28,15.3,15.3,0,0,1,1.71,2.8v0h0c.25,1,.05,1.85-.45,2S69.93,35,69.67,34Z"/><path d="M70.54,35.89a.94.94,0,0,0,.62,0c.76-.19,1.09-1.29.78-2.53a.64.64,0,0,1,0-.07,15.39,15.39,0,0,0-1.78-2.93l-.63-.83-.18,1A12.66,12.66,0,0,0,69.22,34h0s0,.05,0,.06h0A2.56,2.56,0,0,0,70.54,35.89Zm.52-2.26c.21.86,0,1.39-.13,1.42s-.59-.32-.82-1.18h0a8.1,8.1,0,0,1,0-2,8.89,8.89,0,0,1,1,1.72Zm-1,.24-.44.12.43-.14Zm0,0Z"/><path class="cls-3" d="M73.32,36.36a11.7,11.7,0,0,0,2.79-1.73,14.74,14.74,0,0,0-3.28-.09h0c-1,.27-1.63.89-1.49,1.38s1,.7,2,.44Z"/><path d="M71.6,36.79a3.06,3.06,0,0,0,1.81,0h0l.06,0h0A12.58,12.58,0,0,0,76.4,35l.81-.67-1-.13a14.67,14.67,0,0,0-3.43-.08h-.07c-1.23.35-2,1.18-1.8,1.94A1.14,1.14,0,0,0,71.6,36.79Zm1.58-.86c-.87.22-1.4,0-1.44-.12s.33-.58,1.18-.82h0a9.08,9.08,0,0,1,2,0A7.91,7.91,0,0,1,73.18,35.93ZM72.91,35Zm0,0Z"/><path d="M77.1,29.16l-1,.95c-.34.32-.68.63-1,1-.65.66-1.3,1.32-1.92,2-.31.34-.63.68-.94,1l-.9,1-.45.53-.44.54-.87,1.09a66.49,66.49,0,0,0-6,9.34l-.33.61-.32.63-.62,1.24-.16.32-.14.31-.29.64-.57,1.27L60.58,53c-.17.43-.36.86-.51,1.3-.32.87-.67,1.73-1,2.62l-.44,1.32c-.14.45-.26.9-.39,1.34s-.27.89-.38,1.34l-.34,1.36c-.22.9-.46,1.8-.62,2.72l-.26,1.37c-.09.46-.2.91-.25,1.37a67.63,67.63,0,0,0,.11,22.22,66.57,66.57,0,0,0,2.83,10.76l.47,1.31c.07.22.16.43.25.65l.26.64.53,1.29.27.64.29.63.59,1.26.29.63.15.31.16.31,1.3,2.45-1.18-2.51-.15-.32-.13-.31-.27-.64-.54-1.28-.27-.64-.24-.64-.48-1.3-.23-.65c-.08-.22-.17-.43-.23-.65l-.42-1.32a69.2,69.2,0,0,1-3.36-21.72V77.45c0-.23,0-.46,0-.69l0-.69.07-1.37,0-.69.06-.68c.1-.92.18-1.83.28-2.75l.39-2.72A71.22,71.22,0,0,1,64.16,47l.64-1.23c.21-.4.45-.8.67-1.2s.44-.81.68-1.2l.72-1.18.35-.59L67.6,41l.75-1.16c.26-.39.53-.76.79-1.14s.52-.76.8-1.12l.82-1.12.41-.55.43-.54.87-1.08c.29-.36.59-.71.89-1.06C74.55,31.83,75.82,30.49,77.1,29.16Z"/><path d="M55.58,66a1.64,1.64,0,0,0,3.16.85A1.64,1.64,0,1,0,55.58,66Z"/><path class="cls-3" d="M56.37,66.16a.81.81,0,0,0,.57,1,.82.82,0,1,0,.43-1.58A.81.81,0,0,0,56.37,66.16Z"/><path class="cls-3" d="M56.45,57.19a14.2,14.2,0,0,1-.29-3.89,17.7,17.7,0,0,1,2.38,3.09,0,0,0,0,0,0,0h0c.41,1.12.29,2.19-.29,2.4s-1.37-.5-1.8-1.6A.1.1,0,0,1,56.45,57.19Z"/><path d="M57.74,59.27a1.05,1.05,0,0,0,.68,0c.83-.31,1.07-1.6.55-3a.25.25,0,0,0,0-.07A18.39,18.39,0,0,0,56.5,53l-.72-.76-.07,1a14.53,14.53,0,0,0,.3,4l0,.06h0A3,3,0,0,0,57.74,59.27Zm.38-2.7h0c.37,1,.2,1.74,0,1.82s-.84-.37-1.22-1.35h0a10.64,10.64,0,0,1-.29-2.58A12.41,12.41,0,0,1,58.12,56.57Z"/><path class="cls-3" d="M62,58.7a14.52,14.52,0,0,0,2.2-3.22A17.17,17.17,0,0,0,60.62,57h0c-.91.75-1.34,1.74-1,2.21s1.44.26,2.37-.48Z"/><path d="M59.86,59.85a3,3,0,0,0,2.43-.78h0l.05,0h0a14.29,14.29,0,0,0,2.29-3.35l.47-.94-1,.3a17.89,17.89,0,0,0-3.74,1.54l-.06.05c-1.14.93-1.58,2.16-1,2.85A1.19,1.19,0,0,0,59.86,59.85Zm1.87-1.5h0c-.82.65-1.59.73-1.73.55s.08-.92.89-1.58h0a12.18,12.18,0,0,1,2.38-1A10.47,10.47,0,0,1,61.73,58.35Zm-.85-1h0Zm0,0h0Z"/><path class="cls-3" d="M60,48.53a14.41,14.41,0,0,1,0-3.9,17.76,17.76,0,0,1,2.13,3.26,0,0,0,0,1,0,0h0c.33,1.14.13,2.2-.46,2.37s-1.33-.6-1.68-1.73Z"/><path d="M61.09,50.7a1.06,1.06,0,0,0,.68,0c.85-.25,1.18-1.52.77-2.94a.64.64,0,0,1,0-.07,18.46,18.46,0,0,0-2.21-3.38l-.66-.81-.14,1a14.14,14.14,0,0,0,0,4s0,.05,0,.07h0A3,3,0,0,0,61.09,50.7ZM61.66,48h0c.29,1,.06,1.75-.16,1.82s-.81-.43-1.12-1.44h0a10.69,10.69,0,0,1-.09-2.59A12,12,0,0,1,61.66,48Z"/><path class="cls-3" d="M64.94,50.88a14.27,14.27,0,0,0,2.73-2.79,17.52,17.52,0,0,0-3.81.84h0c-1,.58-1.63,1.48-1.33,2s1.37.51,2.41-.06Z"/><path d="M62.74,51.7a3.16,3.16,0,0,0,2.39-.4h0l.06,0h0A14.15,14.15,0,0,0,68,48.36l.63-.84-1,.12a17.65,17.65,0,0,0-4,.87l-.07,0c-1.28.72-1.93,1.85-1.5,2.63A1.15,1.15,0,0,0,62.74,51.7Zm2-1.21h0c-.93.5-1.69.44-1.81.24s.25-.89,1.16-1.4h0a11.86,11.86,0,0,1,2.53-.62A10.29,10.29,0,0,1,64.7,50.49Zm0,0h0Zm0,0ZM64,49.34Zm0,0Z"/><path class="cls-3" d="M64.37,40.6a12.72,12.72,0,0,1,.08-3.53,16.59,16.59,0,0,1,1.87,3v0h0c.28,1,.07,2-.46,2.13s-1.2-.56-1.49-1.6Z"/><path d="M65.33,42.63a1,1,0,0,0,.65,0c.8-.22,1.13-1.37.78-2.69a.25.25,0,0,0,0-.07,16.46,16.46,0,0,0-1.93-3.11L64.16,36,64,37a12.78,12.78,0,0,0-.08,3.68h0a.19.19,0,0,0,0,.07h0A2.77,2.77,0,0,0,65.33,42.63Zm.56-2.41c.24.92,0,1.52-.15,1.57s-.67-.36-.93-1.29h0a8.58,8.58,0,0,1,0-2.21,10.46,10.46,0,0,1,1.11,1.92Z"/><path class="cls-3" d="M68.88,43a12.75,12.75,0,0,0,3-1.89,15.89,15.89,0,0,0-3.53,0h0c-1,.3-1.74,1-1.59,1.5s1.11.73,2.14.44Z"/><path d="M67.05,43.48a3.2,3.2,0,0,0,1.92,0h0l.07,0h0a13.09,13.09,0,0,0,3.1-2l.8-.68-1-.12a16.21,16.21,0,0,0-3.66,0l-.07,0c-1.31.38-2.12,1.27-1.9,2.06A1.21,1.21,0,0,0,67.05,43.48Zm1.69-.88h0c-.93.26-1.54,0-1.58-.13s.35-.67,1.28-.94h0a10.11,10.11,0,0,1,2.22,0A9.41,9.41,0,0,1,68.74,42.6Zm-.29-1.08h0Z"/><path class="cls-3" d="M53.29,74.15a14.24,14.24,0,0,0-1.73,3.49,17.72,17.72,0,0,0,3.37-2v0h0c.8-.87,1.09-1.91.64-2.33s-1.46-.06-2.28.8Z"/><path d="M50.79,78.49l1-.44a17.47,17.47,0,0,0,3.49-2l.05-.06c1-1.08,1.27-2.36.62-3s-1.9-.25-2.92.82h0l0,0h0a14.57,14.57,0,0,0-1.8,3.63Zm3.81-3.14a12.17,12.17,0,0,1-2.2,1.37,10.46,10.46,0,0,1,1.23-2.28h0c.72-.77,1.47-.94,1.64-.79s0,.92-.67,1.69Zm0,0Zm0,0h0Z"/><path class="cls-3" d="M59,74.87a14.33,14.33,0,0,1,.81,3.81,17.67,17.67,0,0,1-2.78-2.74v0h0c-.56-1-.59-2.13,0-2.42s1.43.3,2,1.34Z"/><path d="M60.37,79.69l-.08-1a14.13,14.13,0,0,0-.85-4h0l0-.06h0c-.72-1.29-1.85-2-2.63-1.52s-.83,1.72-.14,3h0l0,.06A17,17,0,0,0,59.56,79Zm-1.75-4.62a10.34,10.34,0,0,1,.63,2.52,12.44,12.44,0,0,1-1.79-1.88h0c-.5-.93-.43-1.69-.23-1.8s.88.24,1.39,1.16Zm0,0Z"/><path class="cls-3" d="M53.3,83.35A14.33,14.33,0,0,0,51.92,87a17.78,17.78,0,0,0,3.16-2.29s0,0,0,0h0c.71-1,.9-2,.41-2.38s-1.46.08-2.19,1C53.32,83.33,53.31,83.35,53.3,83.35Z"/><path d="M51.24,87.92l.91-.53A17.81,17.81,0,0,0,55.42,85l0-.06c.89-1.18,1-2.48.33-3s-1.92-.07-2.83,1.1h0l0,.06h0a14.42,14.42,0,0,0-1.44,3.79Zm3.49-3.49A12.62,12.62,0,0,1,52.66,86a11.21,11.21,0,0,1,1-2.39h0c.64-.83,1.37-1.08,1.56-.94s.13.9-.49,1.73Zm0,0Zm-1-.84Z"/><path class="cls-3" d="M58.8,82.93a14,14,0,0,1,1.56,3.58,17.49,17.49,0,0,1-3.27-2.14,0,0,0,0,1,0,0h0c-.76-.91-1-2-.53-2.36s1.46,0,2.24.92A0,0,0,0,1,58.8,82.93Z"/><path d="M61.08,87.39l-.28-1a14.87,14.87,0,0,0-1.63-3.72l0,0h0c-1-1.12-2.2-1.54-2.88-1s-.47,1.86.48,3l0,0a17.48,17.48,0,0,0,3.38,2.22Zm-2.63-4.18a10.71,10.71,0,0,1,1.12,2.34,12.53,12.53,0,0,1-2.14-1.48h0c-.68-.81-.76-1.58-.59-1.72s.92.06,1.6.86Zm0,0h0Z"/><path class="cls-3" d="M54.71,92.64a12.7,12.7,0,0,0-1,3.39,16.63,16.63,0,0,0,2.67-2.3s0,0,0,0h0c.57-.91.66-1.88.19-2.17s-1.31.19-1.9,1.09A0,0,0,0,0,54.71,92.64Z"/><path d="M53.15,97l.86-.6A16.12,16.12,0,0,0,56.78,94l0-.06c.72-1.15.74-2.35,0-2.8s-1.78.09-2.52,1.23h0l0,0h0a12.85,12.85,0,0,0-1,3.54ZM56,93.47A10.46,10.46,0,0,1,54.41,95a9.24,9.24,0,0,1,.69-2.1h0c.52-.81,1.13-1,1.26-1s.19.73-.32,1.54Zm0,0h0Z"/><path class="cls-3" d="M59.74,91.64A12.84,12.84,0,0,1,62,94.33a16.55,16.55,0,0,1-3.38-1l0,0h0c-.9-.59-1.38-1.44-1.08-1.9s1.27-.37,2.18.21Z"/><path d="M63,95l-.57-.88A13,13,0,0,0,60,91.28h0l-.06,0h0c-1.14-.73-2.35-.76-2.8-.07s.07,1.78,1.21,2.53h0a.15.15,0,0,0,.06,0,16.46,16.46,0,0,0,3.51,1Zm-3.49-3A9.34,9.34,0,0,1,61,93.64,10.66,10.66,0,0,1,58.87,93l0,0c-.79-.52-1-1.13-.93-1.26s.74-.18,1.55.34Zm0,0Z"/><path class="cls-3" d="M57.9,102a11.83,11.83,0,0,0-.66,3.22,15,15,0,0,0,2.32-2.32v0h0c.47-.89.48-1.8,0-2s-1.21.27-1.69,1.14Z"/><path d="M56.71,106.23l.81-.66a14.58,14.58,0,0,0,2.42-2.42l0-.06c.61-1.14.54-2.28-.15-2.65s-1.69.19-2.31,1.32h0s0,0,0,0h0a12.56,12.56,0,0,0-.7,3.37Zm2.45-3.56a9.53,9.53,0,0,1-1.34,1.44,8.28,8.28,0,0,1,.49-1.9h0c.43-.78,1-1,1.07-1s.2.63-.2,1.41Zm0,0Z"/><path class="cls-3" d="M62,100.54a11.81,11.81,0,0,1,2.3,2.34,14.75,14.75,0,0,1-3.21-.69l0,0h0c-.87-.49-1.38-1.24-1.13-1.69s1.16-.43,2,0Z"/><path d="M65.31,103.45l-.62-.84a12.67,12.67,0,0,0-2.42-2.45l-.06,0h0c-1.13-.61-2.27-.55-2.65.14s.18,1.68,1.3,2.31l.06,0a15.34,15.34,0,0,0,3.35.73Zm-3.53-2.53a8.27,8.27,0,0,1,1.44,1.34,9.34,9.34,0,0,1-1.91-.48h0c-.78-.44-1-1-1-1.09s.64-.19,1.42.23Zm.22-.4-.2.42,0,0Z"/><path class="cls-3" d="M180.33,34a11.69,11.69,0,0,0-.11-3.28,15.3,15.3,0,0,0-1.71,2.8v0h0c-.25,1,0,1.85.45,2s1.11-.54,1.37-1.5Z"/><path d="M179.46,35.89a.94.94,0,0,1-.62,0c-.76-.19-1.09-1.29-.78-2.53a.64.64,0,0,0,0-.07,15.39,15.39,0,0,1,1.78-2.93l.63-.83.18,1a12.66,12.66,0,0,1,.11,3.44h0s0,.05,0,.06h0A2.56,2.56,0,0,1,179.46,35.89Zm-.52-2.26c-.21.86,0,1.39.13,1.42s.59-.32.82-1.18h0a8.1,8.1,0,0,0,0-2,8.89,8.89,0,0,0-1,1.72Zm.95.24.44.12-.43-.14Zm0,0Z"/><path class="cls-3" d="M176.68,36.36a11.7,11.7,0,0,1-2.79-1.73,14.74,14.74,0,0,1,3.28-.09h0c1,.27,1.63.89,1.49,1.38s-1,.7-2,.44Z"/><path d="M178.4,36.79a3.06,3.06,0,0,1-1.81,0h0l-.06,0h0A12.58,12.58,0,0,1,173.6,35l-.81-.67,1-.13a14.67,14.67,0,0,1,3.43-.08h.07c1.23.35,2,1.18,1.8,1.94A1.14,1.14,0,0,1,178.4,36.79Zm-1.58-.86c.87.22,1.4,0,1.44-.12s-.33-.58-1.18-.82h0a9.08,9.08,0,0,0-2,0A7.91,7.91,0,0,0,176.82,35.93Zm.27-.94Zm0,0Z"/><path d="M172.9,29.16l1,.95c.34.32.68.63,1,1,.65.66,1.3,1.32,1.92,2,.31.34.63.68.94,1l.9,1,.45.53.44.54.87,1.09a66.49,66.49,0,0,1,6,9.34l.33.61.32.63.62,1.24.16.32.14.31.29.64.57,1.27.53,1.29c.17.43.36.86.51,1.3.32.87.67,1.73.95,2.62l.44,1.32c.14.45.26.9.39,1.34s.27.89.38,1.34l.34,1.36c.22.9.46,1.8.62,2.72l.26,1.37c.09.46.2.91.25,1.37a67.63,67.63,0,0,1-.11,22.22,66.57,66.57,0,0,1-2.83,10.76l-.47,1.31c-.07.22-.16.43-.25.65l-.26.64-.53,1.29-.27.64-.29.63-.59,1.26-.29.63-.15.31-.16.31-1.3,2.45,1.18-2.51.15-.32.13-.31.27-.64.54-1.28.27-.64.24-.64.48-1.3.23-.65c.08-.22.17-.43.23-.65l.42-1.32a69.2,69.2,0,0,0,3.36-21.72V77.45c0-.23,0-.46,0-.69l0-.69-.07-1.37,0-.69-.06-.68c-.1-.92-.18-1.83-.28-2.75l-.39-2.72A71.22,71.22,0,0,0,185.84,47l-.64-1.23c-.21-.4-.45-.8-.67-1.2s-.44-.81-.68-1.2l-.72-1.18-.35-.59L182.4,41l-.75-1.16c-.26-.39-.53-.76-.79-1.14s-.52-.76-.8-1.12l-.82-1.12-.41-.55-.43-.54-.87-1.08c-.29-.36-.59-.71-.89-1.06C175.45,31.83,174.18,30.49,172.9,29.16Z"/><path d="M194.42,66a1.64,1.64,0,0,1-3.16.85,1.64,1.64,0,1,1,3.16-.85Z"/><path class="cls-3" d="M193.63,66.16a.81.81,0,0,1-.57,1,.82.82,0,1,1-.43-1.58A.81.81,0,0,1,193.63,66.16Z"/><path class="cls-3" d="M193.55,57.19a14.2,14.2,0,0,0,.29-3.89,17.7,17.7,0,0,0-2.38,3.09,0,0,0,0,1,0,0h0c-.41,1.12-.29,2.19.29,2.4s1.37-.5,1.8-1.6A.1.1,0,0,0,193.55,57.19Z"/><path d="M192.26,59.27a1.05,1.05,0,0,1-.68,0c-.83-.31-1.07-1.6-.55-3a.25.25,0,0,1,0-.07A18.39,18.39,0,0,1,193.5,53l.72-.76.07,1a14.53,14.53,0,0,1-.3,4l0,.06h0A3,3,0,0,1,192.26,59.27Zm-.38-2.7h0c-.37,1-.2,1.74,0,1.82s.84-.37,1.22-1.35h0a10.64,10.64,0,0,0,.29-2.58A11.89,11.89,0,0,0,191.88,56.57Z"/><path class="cls-3" d="M188,58.7a14.52,14.52,0,0,1-2.2-3.22A17.39,17.39,0,0,1,189.38,57h0c.91.75,1.34,1.74,1,2.21s-1.44.26-2.37-.48Z"/><path d="M190.14,59.85a3,3,0,0,1-2.43-.78h0l-.05,0h0a14.29,14.29,0,0,1-2.29-3.35l-.47-.94,1,.3a17.89,17.89,0,0,1,3.74,1.54l.06.05c1.14.93,1.58,2.16,1,2.85A1.19,1.19,0,0,1,190.14,59.85Zm-1.87-1.5h0c.82.65,1.59.73,1.73.55s-.08-.92-.89-1.58h0a12.18,12.18,0,0,0-2.38-1A10.47,10.47,0,0,0,188.27,58.35Zm.85-1h0Zm0,0h0Z"/><path class="cls-3" d="M190.05,48.53a14.41,14.41,0,0,0,0-3.9,17.76,17.76,0,0,0-2.13,3.26,0,0,0,0,0,0,0h0c-.33,1.14-.13,2.2.46,2.37s1.33-.6,1.68-1.73Z"/><path d="M188.91,50.7a1.06,1.06,0,0,1-.68,0c-.85-.25-1.18-1.52-.77-2.94a.64.64,0,0,0,0-.07,18.46,18.46,0,0,1,2.21-3.38l.66-.81.14,1a14.14,14.14,0,0,1,0,4s0,.05,0,.07h0A3,3,0,0,1,188.91,50.7ZM188.34,48h0c-.29,1-.06,1.75.16,1.82s.81-.43,1.12-1.44h0a10.69,10.69,0,0,0,.09-2.59A12,12,0,0,0,188.34,48Z"/><path class="cls-3" d="M185.06,50.88a14.27,14.27,0,0,1-2.73-2.79,17.52,17.52,0,0,1,3.81.84h0c1,.58,1.63,1.48,1.33,2s-1.37.51-2.41-.06Z"/><path d="M187.26,51.7a3.16,3.16,0,0,1-2.39-.4h0l-.06,0h0a14.15,14.15,0,0,1-2.84-2.9l-.63-.84,1,.12a17.65,17.65,0,0,1,4,.87l.07,0c1.28.72,1.93,1.85,1.5,2.63A1.15,1.15,0,0,1,187.26,51.7Zm-2-1.21h0c.93.5,1.69.44,1.81.24s-.25-.89-1.16-1.4h0a11.86,11.86,0,0,0-2.53-.62A10.29,10.29,0,0,0,185.3,50.49Zm0,0h0Zm0,0Zm.65-1.16Zm0,0Z"/><path class="cls-3" d="M185.63,40.6a12.72,12.72,0,0,0-.08-3.53,16.59,16.59,0,0,0-1.87,3v0h0c-.28,1-.07,2,.46,2.13s1.2-.56,1.49-1.6Z"/><path d="M184.67,42.63a1,1,0,0,1-.65,0c-.8-.22-1.13-1.37-.78-2.69a.25.25,0,0,1,0-.07,16.46,16.46,0,0,1,1.93-3.11l.65-.82.16,1a12.78,12.78,0,0,1,.08,3.68h0a.19.19,0,0,1,0,.07h0A2.77,2.77,0,0,1,184.67,42.63Zm-.56-2.41c-.24.92,0,1.52.15,1.57s.67-.36.93-1.29h0a9.05,9.05,0,0,0,0-2.21,10.46,10.46,0,0,0-1.11,1.92Z"/><path class="cls-3" d="M181.12,43a12.75,12.75,0,0,1-3-1.89,15.89,15.89,0,0,1,3.53,0h0c1,.3,1.74,1,1.59,1.5s-1.11.73-2.14.44Z"/><path d="M183,43.48a3.2,3.2,0,0,1-1.92,0h0l-.07,0h0a13.09,13.09,0,0,1-3.1-2l-.8-.68,1-.12a16.21,16.21,0,0,1,3.66,0l.07,0c1.31.38,2.12,1.27,1.9,2.06A1.21,1.21,0,0,1,183,43.48Zm-1.69-.88h0c.93.26,1.54,0,1.58-.13s-.35-.67-1.28-.94h0a10.11,10.11,0,0,0-2.22,0A9.41,9.41,0,0,0,181.26,42.6Zm.29-1.08h0Z"/><path class="cls-3" d="M196.71,74.15a14.24,14.24,0,0,1,1.73,3.49,17.72,17.72,0,0,1-3.37-2v0h0c-.8-.87-1.09-1.91-.64-2.33s1.46-.06,2.28.8Z"/><path d="M199.21,78.49l-1-.44a17.47,17.47,0,0,1-3.49-2l-.05-.06c-1-1.08-1.27-2.36-.62-3s1.9-.25,2.92.82h0l0,0h0a14.57,14.57,0,0,1,1.8,3.63Zm-3.81-3.14a12.17,12.17,0,0,0,2.2,1.37,10.46,10.46,0,0,0-1.23-2.28h0c-.72-.77-1.47-.94-1.64-.79s0,.92.67,1.69Zm0,0Zm0,0h0Z"/><path class="cls-3" d="M191,74.87a14.33,14.33,0,0,0-.81,3.81,17.67,17.67,0,0,0,2.78-2.74v0h0c.56-1,.59-2.13.05-2.42s-1.43.3-2,1.34Z"/><path d="M189.63,79.69l.08-1a14.13,14.13,0,0,1,.85-4h0l0-.06h0c.72-1.29,1.85-2,2.63-1.52s.83,1.72.14,3h0l0,.06A17,17,0,0,1,190.44,79Zm1.75-4.62a10.34,10.34,0,0,0-.63,2.52,12.44,12.44,0,0,0,1.79-1.88h0c.5-.93.43-1.69.23-1.8s-.88.24-1.39,1.16Zm0,0Z"/><path class="cls-3" d="M196.7,83.35A14.33,14.33,0,0,1,198.08,87a17.78,17.78,0,0,1-3.16-2.29s0,0,0,0h0c-.71-1-.9-2-.41-2.38s1.46.08,2.19,1Z"/><path d="M198.76,87.92l-.91-.53A17.81,17.81,0,0,1,194.58,85l0-.06c-.89-1.18-1-2.48-.33-3s1.92-.07,2.83,1.1h0l0,.06h0a14.42,14.42,0,0,1,1.44,3.79Zm-3.49-3.49A12.62,12.62,0,0,0,197.34,86a11.21,11.21,0,0,0-1-2.39h0c-.64-.83-1.37-1.08-1.56-.94s-.13.9.49,1.73Zm0,0Zm1-.84Z"/><path class="cls-3" d="M191.2,82.93a14,14,0,0,0-1.56,3.58,17.49,17.49,0,0,0,3.27-2.14,0,0,0,0,0,0,0h0c.76-.91,1-2,.53-2.36s-1.46,0-2.24.92A0,0,0,0,0,191.2,82.93Z"/><path d="M188.92,87.39l.28-1a14.87,14.87,0,0,1,1.63-3.72l0,0h0c1-1.12,2.2-1.54,2.88-1s.47,1.86-.48,3l0,0a17.48,17.48,0,0,1-3.38,2.22Zm2.63-4.18a10.71,10.71,0,0,0-1.12,2.34,12.53,12.53,0,0,0,2.14-1.48h0c.68-.81.76-1.58.59-1.72s-.92.06-1.6.86Zm0,0h0Z"/><path class="cls-3" d="M195.29,92.64a12.7,12.7,0,0,1,1,3.39,16.63,16.63,0,0,1-2.67-2.3s0,0,0,0h0c-.57-.91-.66-1.88-.19-2.17s1.31.19,1.9,1.09A0,0,0,0,1,195.29,92.64Z"/><path d="M196.85,97l-.86-.6a16.12,16.12,0,0,1-2.77-2.4l0-.06c-.72-1.15-.74-2.35,0-2.8s1.78.09,2.52,1.23h0l0,0h0a12.85,12.85,0,0,1,1,3.54ZM194,93.47a10.46,10.46,0,0,0,1.63,1.5,9.24,9.24,0,0,0-.69-2.1h0c-.52-.81-1.13-1-1.26-1s-.19.73.32,1.54Zm0,0h0Z"/><path class="cls-3" d="M190.26,91.64A12.84,12.84,0,0,0,188,94.33a16.55,16.55,0,0,0,3.38-1s0,0,0,0h0c.9-.59,1.38-1.44,1.08-1.9s-1.28-.37-2.18.21Z"/><path d="M187,95l.57-.88A13,13,0,0,1,190,91.28h0l.06,0h0c1.14-.73,2.35-.76,2.8-.07s-.07,1.78-1.21,2.53h0a.15.15,0,0,1-.06,0,16.46,16.46,0,0,1-3.51,1Zm3.49-3a9.34,9.34,0,0,0-1.5,1.63,10.66,10.66,0,0,0,2.11-.69l0,0c.79-.52,1-1.13.93-1.26s-.74-.18-1.55.34Zm0,0Z"/><path class="cls-3" d="M192.1,102a11.83,11.83,0,0,1,.66,3.22,15,15,0,0,1-2.32-2.32,0,0,0,0,0,0,0h0c-.47-.89-.48-1.8,0-2s1.21.27,1.69,1.14Z"/><path d="M193.29,106.23l-.81-.66a14.58,14.58,0,0,1-2.42-2.42l0-.06c-.61-1.14-.54-2.28.15-2.65s1.69.19,2.31,1.32h0s0,0,0,0h0a12.56,12.56,0,0,1,.7,3.37Zm-2.46-3.56a10.21,10.21,0,0,0,1.35,1.44,8.28,8.28,0,0,0-.49-1.9h0c-.43-.78-1-1-1.07-1s-.2.63.2,1.41Zm0,0Z"/><path class="cls-3" d="M188,100.54a11.81,11.81,0,0,0-2.3,2.34,14.75,14.75,0,0,0,3.21-.69l0,0h0c.87-.49,1.38-1.24,1.13-1.69s-1.16-.43-2,0Z"/><path d="M184.69,103.45l.62-.84a12.67,12.67,0,0,1,2.42-2.45l.05,0h0c1.14-.61,2.28-.55,2.66.14s-.18,1.68-1.3,2.31l-.06,0a15.34,15.34,0,0,1-3.35.73Zm3.53-2.53a8.27,8.27,0,0,0-1.44,1.34,9.34,9.34,0,0,0,1.91-.48h0c.78-.44,1-1,.95-1.09s-.64-.19-1.42.23Zm-.22-.4.2.42,0,0Z"/></g></svg>