<svg id="Layer_2" data-name="Layer 2" xmlns="http://www.w3.org/2000/svg" viewBox="0 0 179.73 180"><defs><style>.cls-1{fill:#2b2b2b;}</style></defs><title>1</title><path class="cls-1" d="M118.1,150.88h-56a6.39,6.39,0,0,0-6.39,6.39V180h68.73V157.27A6.38,6.38,0,0,0,118.1,150.88Z"/><path class="cls-1" d="M89.66,43.56h0Z"/><path class="cls-1" d="M123.54,46v-.11a246.43,246.43,0,0,0-67.47,0V46a60.67,60.67,0,0,1,3.48,7c5.59,13.32,3.61,22.11,5.71,29.79a11.9,11.9,0,0,0,2.43,3.92,29,29,0,0,0,44.24,0,11.73,11.73,0,0,0,2.43-3.92c2.11-7.68.12-16.47,5.72-29.79A61,61,0,0,1,123.54,46ZM77.18,88.54l-.6-.17A23.73,23.73,0,0,1,70,82.94a9.79,9.79,0,0,1-2-3.22c-1.73-6.31-.1-13.54-4.7-24.48a49.92,49.92,0,0,0-2.86-5.73v-.09c3.92-.54,8.13-1,12.62-1.35C73.11,48.08,79.5,62.9,77.18,88.54Z"/><path class="cls-1" d="M90,100.18c-5.62.12-9.74-2.2-13.29-3.37,6.78,13.7,19.35,13.7,26.12,0C99.64,97.87,94.86,100.08,90,100.18Z"/><path class="cls-1" d="M123.57,43.45A41.6,41.6,0,0,0,95.05,30.77a5.72,5.72,0,0,1-10.78,0A41.6,41.6,0,0,0,55.75,43.45a228.52,228.52,0,0,1,67.82,0Z"/><path class="cls-1" d="M57.41,75.75c-2.83-4.81-5.95-7.08-8.64-8.21-3.86-1.62-8.25-1.5-12.46-5.62a17.73,17.73,0,0,1-3.94-5.74,28.84,28.84,0,0,1-1.51-7.66,58.62,58.62,0,0,1,0-8.17c.05-1.37.23-2.75.34-4.13s.24-2,.24-2,6.63-.88,6.73,0a27.68,27.68,0,0,0,.66,3.2,10.4,10.4,0,0,0,3.6,5.36A14.37,14.37,0,0,0,52,46.3a20.17,20.17,0,0,1-8.74-17.11H27l-.27,2.17c-.18,1.44-.39,2.88-.54,4.32s-.31,2.9-.36,4.37a62.39,62.39,0,0,0,0,8.86,33.89,33.89,0,0,0,1.79,9,19.26,19.26,0,0,0,2.18,4.35A14.71,14.71,0,0,0,33.26,66a17,17,0,0,0,4.4,2.33c1.48.55,2.89.93,4.22,1.33A25.54,25.54,0,0,1,49,72.73c1.07.68,5.19,3.87,6.21,4.75l0,0A1.42,1.42,0,0,0,57.41,75.75Z"/><path class="cls-1" d="M153.93,39.73c-.05-1.47-.23-2.91-.36-4.36s-.36-2.88-.54-4.33l-.27-2.17H136.44a20.2,20.2,0,0,1-1.68,8.56A20.57,20.57,0,0,1,127.7,46a14.4,14.4,0,0,0,9.6-3.49,10.35,10.35,0,0,0,3.6-5.36,27.26,27.26,0,0,0,.66-3.2c.1-.88,6.73,0,6.73,0s.09.59.24,2,.29,2.75.34,4.13a58.48,58.48,0,0,1,0,8.16,28.76,28.76,0,0,1-1.51,7.66,17.81,17.81,0,0,1-3.93,5.74c-4.22,4.13-8.61,4-12.47,5.62-2.69,1.13-5.81,3.4-8.64,8.22a1.41,1.41,0,0,0,2.16,1.77l0,0c1-.89,5.14-4.07,6.21-4.75a25.56,25.56,0,0,1,7.11-3.11c1.33-.4,2.74-.78,4.22-1.32a17.3,17.3,0,0,0,4.4-2.33A14.71,14.71,0,0,0,150,62a19.54,19.54,0,0,0,2.18-4.36,33.82,33.82,0,0,0,1.79-9A62.53,62.53,0,0,0,153.93,39.73Z"/><path class="cls-1" d="M90,110.64a17.7,17.7,0,0,1-7.71-1.9,11.73,11.73,0,1,0,16,0A17.88,17.88,0,0,1,90,110.64Z"/><path class="cls-1" d="M63.05,147.4h54.5a40.52,40.52,0,0,1-5.32-11.72,34.19,34.19,0,0,1-1-11.41h-6.65c-2,5-7.63,8.56-14.23,8.56s-12.19-3.58-14.22-8.56H69.42a34.93,34.93,0,0,1-.78,10.14A40.75,40.75,0,0,1,63.05,147.4Z"/><path class="cls-1" d="M84.56,22.65a5.56,5.56,0,0,1,.64,2.74,4.29,4.29,0,1,0,8.53,0,6.2,6.2,0,0,1,1-2.92,5.63,5.63,0,0,1,2.31-2H82.25A5,5,0,0,1,84.56,22.65Z"/><path class="cls-1" d="M93.75,11.38a6.35,6.35,0,0,1-3-3.82L89.7,3.82h-.09l-1.16,4a6.55,6.55,0,0,1-2.78,3.76,8,8,0,0,0-3.79,6.79h16A8,8,0,0,0,93.75,11.38Z"/></svg>