<svg id="Layer_2" data-name="Layer 2" xmlns="http://www.w3.org/2000/svg" viewBox="0 0 179.73 180"><defs><style>.cls-1{fill:#2b2b2b;}</style></defs><title>1</title><path class="cls-1" d="M118.71,150.25H61.54A6.53,6.53,0,0,0,55,156.78V180h70.23V156.78A6.53,6.53,0,0,0,118.71,150.25Z"/><path class="cls-1" d="M89.65,40.6h0Z"/><path class="cls-1" d="M124.27,43.08V43a251.86,251.86,0,0,0-68.94,0v.11a62.92,62.92,0,0,1,3.55,7.13c5.72,13.6,3.69,22.59,5.84,30.43a12.18,12.18,0,0,0,2.48,4,29.59,29.59,0,0,0,45.2,0,12,12,0,0,0,2.48-4c2.15-7.84.12-16.83,5.84-30.43A62.92,62.92,0,0,1,124.27,43.08ZM76.9,86.56l-.61-.18a23.91,23.91,0,0,1-6.69-5.55,10.08,10.08,0,0,1-2-3.29c-1.76-6.45-.1-13.83-4.79-25a51.17,51.17,0,0,0-2.92-5.85v-.09c4-.56,8.31-1,12.9-1.38C72.75,45.21,79.28,60.36,76.9,86.56Z"/><path class="cls-1" d="M90,98.45c-5.74.12-10-2.25-13.57-3.44,6.92,14,19.76,14,26.68,0C99.85,96.09,95,98.35,90,98.45Z"/><path class="cls-1" d="M124.3,40.49a42.57,42.57,0,0,0-29.14-13,5.85,5.85,0,0,1-11,0A42.52,42.52,0,0,0,55,40.49a233,233,0,0,1,69.29,0Z"/><path class="cls-1" d="M56.7,73.49c-2.88-4.92-6.07-7.23-8.82-8.39-4-1.66-8.43-1.53-12.74-5.74a18.23,18.23,0,0,1-4-5.87,29.49,29.49,0,0,1-1.54-7.82,58,58,0,0,1,0-8.34c.05-1.41.23-2.82.35-4.22s.24-2,.24-2,6.78-.9,6.87,0a29.7,29.7,0,0,0,.68,3.27,10.53,10.53,0,0,0,3.68,5.47,14.81,14.81,0,0,0,9.81,3.57A21,21,0,0,1,44,34.66a20.71,20.71,0,0,1-1.72-8.74H25.61l-.28,2.22c-.18,1.47-.39,2.94-.55,4.41s-.32,3-.37,4.46a62.28,62.28,0,0,0,0,9.06,34.53,34.53,0,0,0,1.83,9.2,19.93,19.93,0,0,0,2.23,4.45A15,15,0,0,0,32,63.5a17.55,17.55,0,0,0,4.49,2.38c1.52.56,3,1,4.32,1.36a26,26,0,0,1,7.27,3.17c1.09.69,5.29,3.94,6.34,4.85l0,0A1.44,1.44,0,0,0,56.7,73.49Z"/><path class="cls-1" d="M155.32,36.69c0-1.5-.24-3-.37-4.46s-.37-2.94-.55-4.42l-.28-2.21H137.45a20.64,20.64,0,0,1-8.93,17.48,14.73,14.73,0,0,0,9.81-3.56A10.57,10.57,0,0,0,142,34a29.63,29.63,0,0,0,.68-3.26c.09-.9,6.87,0,6.87,0s.09.59.24,2,.3,2.82.35,4.22a58.17,58.17,0,0,1,0,8.35,29.57,29.57,0,0,1-1.54,7.82,18.34,18.34,0,0,1-4,5.87c-4.31,4.21-8.79,4.08-12.74,5.74-2.75,1.15-5.94,3.47-8.82,8.39a1.44,1.44,0,0,0,2.2,1.81l0,0c1-.91,5.25-4.16,6.34-4.86a26.27,26.27,0,0,1,7.27-3.17c1.36-.41,2.8-.79,4.32-1.35a17.87,17.87,0,0,0,4.49-2.38,15.14,15.14,0,0,0,3.55-3.78A19.93,19.93,0,0,0,153.48,55a34.6,34.6,0,0,0,1.83-9.2A62.28,62.28,0,0,0,155.32,36.69Z"/><path class="cls-1" d="M90,109.14a18.25,18.25,0,0,1-7.88-1.94,12,12,0,1,0,16.3,0A18.17,18.17,0,0,1,90,109.14Z"/><path class="cls-1" d="M62.47,146.7h55.68a41.15,41.15,0,0,1-5.43-12,34.73,34.73,0,0,1-1.08-11.66h-6.8c-2.07,5.09-7.79,8.75-14.53,8.75s-12.46-3.66-14.53-8.75H69a35.54,35.54,0,0,1-.8,10.37A41.63,41.63,0,0,1,62.47,146.7Z"/><path class="cls-1" d="M84.44,19.23A5.67,5.67,0,0,1,85.1,22a4.38,4.38,0,1,0,8.71,0,6.41,6.41,0,0,1,1-3,5.79,5.79,0,0,1,2.37-2H82.09A5.05,5.05,0,0,1,84.44,19.23Z"/><path class="cls-1" d="M93.83,7.72a6.47,6.47,0,0,1-3-3.9L89.69,0h-.08L88.42,4.07a6.69,6.69,0,0,1-2.84,3.84,8.16,8.16,0,0,0-3.87,6.94H98A8.17,8.17,0,0,0,93.83,7.72Z"/></svg>