<svg id="Layer_2" data-name="Layer 2" xmlns="http://www.w3.org/2000/svg" viewBox="0 0 179.73 180"><defs><style>.cls-1{fill:#2b2b2b;}</style></defs><title>2</title><path class="cls-1" d="M135.32,53.17h-.12a9.88,9.88,0,0,1-9-9V44a.82.82,0,0,0-.79-.71h-71a.82.82,0,0,0-.79.74h0v.09a9.88,9.88,0,0,1-9,9h-.12a.81.81,0,0,0-.7.78s0,0,0,0,0,0,0,0v97.21a.33.33,0,0,0,0,.16.81.81,0,0,0,.73.74h0a9.9,9.9,0,0,1,9.12,9.12h0a.81.81,0,0,0,.72.74h71.16a.81.81,0,0,0,.71-.71v-.09a9.89,9.89,0,0,1,9.12-9.06h0a.82.82,0,0,0,.74-.82V54A.83.83,0,0,0,135.32,53.17ZM89.87,55.42A13.76,13.76,0,1,1,76.11,69.18,13.76,13.76,0,0,1,89.87,55.42ZM62.45,91.9h54.83V98H62.45Zm62.88,45.37H54.4v-2h70.93Zm0-5.68H54.4v-2h70.93Zm0-5.67H54.4v-2h70.93Zm0-5.68H54.4v-2h70.93Zm0-5.67H54.4v-2h70.93Zm0-5.68H54.4v-2h70.93Z"/><path class="cls-1" d="M150,39.29v-.1a1.08,1.08,0,0,0-.92-1l-.15,0a12.89,12.89,0,0,1-11.78-11.79s0-.08,0-.12a1.08,1.08,0,0,0-1-.93H43.6a1.07,1.07,0,0,0-1,1h0v.11A12.88,12.88,0,0,1,30.79,38.16h0l-.16,0a1.06,1.06,0,0,0-.91,1,.43.43,0,0,0,0,.05.43.43,0,0,1,0,0V166a.31.31,0,0,0,0,.1.34.34,0,0,0,0,.1,1.07,1.07,0,0,0,1,1h0A12.89,12.89,0,0,1,42.57,179h0a1.07,1.07,0,0,0,.94,1h92.72a1.07,1.07,0,0,0,.93-.92s0-.09,0-.13a12.89,12.89,0,0,1,11.88-11.8h0a1.09,1.09,0,0,0,1-1.07Zm-9.71,10.22V155.84a.9.9,0,0,1-.81.9h0a10.79,10.79,0,0,0-10,9.9s0,.06,0,.1a.9.9,0,0,1-.78.78H51a.9.9,0,0,1-.78-.82h0a10.81,10.81,0,0,0-10-10h0a.89.89,0,0,1-.8-.8s0-.06,0-.09,0-.06,0-.09V49.42a.9.9,0,0,1,.77-.84h.13a10.81,10.81,0,0,0,9.87-9.87v-.09h0a.91.91,0,0,1,.87-.82h77.6a.9.9,0,0,1,.86.79v.1a10.82,10.82,0,0,0,9.87,9.89h.13a.89.89,0,0,1,.77.84s0,0,0,0Z"/></svg>