<svg id="Layer_2" data-name="Layer 2" xmlns="http://www.w3.org/2000/svg" viewBox="0 0 179.73 180"><defs><style>.cls-1{fill:#2b2b2b;}</style></defs><title>3</title><path class="cls-1" d="M106.08,113.54A34.91,34.91,0,0,0,93,109.72c-1-.1-2.08-.15-3.14-.15a35.27,35.27,0,0,0-3.73.2,34.84,34.84,0,0,0-12.42,3.74,35.21,35.21,0,1,0,32.37,0ZM89.86,170.21a25.43,25.43,0,1,1,25.43-25.43A25.45,25.45,0,0,1,89.86,170.21Z"/><path class="cls-1" d="M89.65,123.67a21.12,21.12,0,1,0,21.11,21.11A21.12,21.12,0,0,0,89.65,123.67Zm-5.24,26.89c-.85-.05-2.28-.07-3.75-.07s-3,0-3.85.07c-.24-.07-.26-.69,0-.83l1-.08c1.16-.09,1.3-.33,1.3-2.23v-7.67c0-1.57-.09-1.93-1.14-2.07l-1.09-.14a.64.64,0,0,1,0-.83,28.39,28.39,0,0,0,3-.67c1-.31,2-.76,2.12-.76a.34.34,0,0,1,.33.26c0,.55-.07,1.64-.07,2.83v9c0,1.9.14,2.14,1.3,2.23l1,.08C84.67,149.87,84.65,150.49,84.41,150.56Zm6.18.26a4.7,4.7,0,0,1-3-.74,6.18,6.18,0,0,1-.38-2.68.57.57,0,0,1,.81-.05c.31,1,1.21,2.38,2.42,2.38a1.15,1.15,0,0,0,1.24-1.24c0-.88-.76-1.38-1.57-1.78-1.43-.72-2.45-1.57-2.45-3,0-2.06,1.74-3.06,3.78-3.06a5.71,5.71,0,0,1,2.54.5,6.49,6.49,0,0,1,.36,2.37c-.1.27-.69.27-.83.1-.48-1.38-1.07-1.88-1.86-1.88a1.06,1.06,0,0,0-1.18,1c0,.54.45,1,1.52,1.52,1.61.78,2.61,1.78,2.61,3.32C94.63,149.75,92.82,150.82,90.59,150.82Zm12.52-1.38a4.87,4.87,0,0,1-3.42,1.38A2.39,2.39,0,0,1,97,148.11v-5.3c0-.5,0-.55-.45-.55h-.73a.49.49,0,0,1-.15-.73,9.08,9.08,0,0,0,2-1.07,7.5,7.5,0,0,0,1.75-1.85.68.68,0,0,1,.72.11v1.79c0,.45,0,.47.45.47h2.11a.54.54,0,0,1,.19.45c0,.26-.07.69-.31.83h-2.13c-.31,0-.34,0-.34.55v3.56c0,1.34,0,2.81,1.67,2.81a1.93,1.93,0,0,0,1-.36A.54.54,0,0,1,103.11,149.44Z"/><path class="cls-1" d="M89.65,108.24,58.74,29.44h-7.3l31,79.39A62.23,62.23,0,0,1,89.65,108.24Z"/><path class="cls-1" d="M40.74,29.44l32.48,82.82a24.77,24.77,0,0,1,6.5-2.29L48.3,29.44Z"/><path class="cls-1" d="M100.39,110.1a23.25,23.25,0,0,1,6.18,2.2l32.49-82.86h-7.2Z"/><path class="cls-1" d="M128.72,29.44h-7.63L90.18,108.25a58,58,0,0,1,7.54.66Z"/><path class="cls-1" d="M125.28,11.09H54.45A12.83,12.83,0,0,0,43,18h93.81A12.83,12.83,0,0,0,125.28,11.09Z"/><path class="cls-1" d="M138.91,20.89H40.82a33.57,33.57,0,0,0-.41,4.24v2.69h98.91V25.13A33.57,33.57,0,0,0,138.91,20.89Z"/></svg>