<svg id="Layer_2" data-name="Layer 2" xmlns="http://www.w3.org/2000/svg" viewBox="0 0 179.73 180"><defs><style>.cls-1{fill:#2b2b2b;}</style></defs><title>3</title><path class="cls-1" d="M107.14,109.18A37.18,37.18,0,0,0,93.2,105.1C92.1,105,91,105,89.86,105a37.57,37.57,0,1,0,17.28,4.23ZM89.86,169.57a27.1,27.1,0,1,1,27.1-27.1A27.13,27.13,0,0,1,89.86,169.57Z"/><path class="cls-1" d="M83.07,147.66c-1.24-.1-1.4-.35-1.4-2.38v-9.64c0-1.27,0-2.43.08-3a.37.37,0,0,0-.36-.28c-.17,0-1.13.49-2.25.81a27.51,27.51,0,0,1-3.24.71.7.7,0,0,0,0,.89l1.17.15c1.11.15,1.21.53,1.21,2.2v8.18c0,2-.15,2.28-1.39,2.38l-1,.08c-.23.15-.2.81,0,.88.91-.05,2.43-.07,4.1-.07s3.09,0,4,.07c.26-.07.28-.73,0-.88Z"/><path class="cls-1" d="M92.18,142c-1.14-.56-1.62-1-1.62-1.63a1.13,1.13,0,0,1,1.26-1.11c.84,0,1.47.53,2,2,.15.18.78.18.89-.1a7.1,7.1,0,0,0-.38-2.53,6.16,6.16,0,0,0-2.71-.53c-2.18,0-4,1.06-4,3.26,0,1.52,1.09,2.43,2.61,3.19.86.43,1.67,1,1.67,1.9a1.23,1.23,0,0,1-1.32,1.32c-1.29,0-2.25-1.5-2.58-2.53a.6.6,0,0,0-.86,0,6.8,6.8,0,0,0,.4,2.86,5.06,5.06,0,0,0,3.14.78c2.38,0,4.31-1.14,4.33-3.39C95,143.86,93.9,142.8,92.18,142Z"/><path class="cls-1" d="M103.62,146.78a2.1,2.1,0,0,1-1.06.38c-1.77,0-1.77-1.57-1.77-3v-3.8c0-.56,0-.58.35-.58h2.28c.25-.15.33-.61.33-.89a.59.59,0,0,0-.2-.48h-2.26c-.45,0-.48,0-.48-.51V136a.69.69,0,0,0-.76-.13,7.93,7.93,0,0,1-1.87,2,9.77,9.77,0,0,1-2.1,1.14.53.53,0,0,0,.15.79H97c.46,0,.48.05.48.58V146c0,1.67.74,2.88,2.84,2.88a5.18,5.18,0,0,0,3.65-1.47A.56.56,0,0,0,103.62,146.78Z"/><path class="cls-1" d="M89.63,103.53l-32.93-84H49.92l33,84.61A40.15,40.15,0,0,1,89.63,103.53Z"/><path class="cls-1" d="M37.51,19.55l34.62,88.27a38.37,38.37,0,0,1,5.92-2.44L44.57,19.55Z"/><path class="cls-1" d="M102.08,105.52a38.61,38.61,0,0,1,5.58,2.33l34.63-88.3h-6.67Z"/><path class="cls-1" d="M130.27,19.55h-7.13l-32.94,84a38.69,38.69,0,0,1,7,.7Z"/><path class="cls-1" d="M127.6,0H52.13A15,15,0,0,0,39.88,6.38h100A15,15,0,0,0,127.6,0Z"/><path class="cls-1" d="M142.13,11.44H37.6A15.14,15.14,0,0,0,37.17,15v2.87H142.56V15A15.14,15.14,0,0,0,142.13,11.44Z"/></svg>