<svg id="Layer_2" data-name="Layer 2" xmlns="http://www.w3.org/2000/svg" viewBox="0 0 179.73 180"><defs><style>.cls-1{fill:#2b2b2b;}</style></defs><title>4</title><path class="cls-1" d="M37.82,161.76H141.91a10.83,10.83,0,0,1,10.83,10.83V180a0,0,0,0,1,0,0H27a0,0,0,0,1,0,0v-7.41A10.83,10.83,0,0,1,37.82,161.76Z"/><path class="cls-1" d="M125.85,25.32H52A10.87,10.87,0,0,0,41.12,36.18V159.8h95.6V36.18A10.87,10.87,0,0,0,125.85,25.32Zm-36.93,20a24.2,24.2,0,1,1-24.2,24.2A24.19,24.19,0,0,1,88.92,45.37Zm35.15,101.78H53.77V113.82h70.3Z"/><path class="cls-1" d="M88.92,47.33a22.24,22.24,0,1,0,22.25,22.24A22.24,22.24,0,0,0,88.92,47.33Zm0,42.39a20.15,20.15,0,1,1,20.15-20.15A20.15,20.15,0,0,1,88.92,89.72Z"/></svg>