<svg id="Layer_2" data-name="Layer 2" xmlns="http://www.w3.org/2000/svg" viewBox="0 0 179.73 180"><defs><style>.cls-1{fill:#2b2b2b;}</style></defs><title>4</title><path class="cls-1" d="M29.31,158.77H150.42a12.6,12.6,0,0,1,12.6,12.6V180a0,0,0,0,1,0,0H16.7a0,0,0,0,1,0,0v-8.62A12.6,12.6,0,0,1,29.31,158.77Z"/><path class="cls-1" d="M131.74,0h-86A12.64,12.64,0,0,0,33.15,12.64V156.49H144.39V12.64A12.64,12.64,0,0,0,131.74,0Zm-43,23.33A28.17,28.17,0,1,1,60.6,51.49,28.16,28.16,0,0,1,88.77,23.33Zm40.9,118.45H47.86V103h81.81Z"/><path class="cls-1" d="M88.77,25.61a25.89,25.89,0,1,0,25.88,25.88A25.89,25.89,0,0,0,88.77,25.61Zm0,49.33a23.45,23.45,0,1,1,23.45-23.45A23.44,23.44,0,0,1,88.77,74.94Z"/></svg>