<svg id="Layer_2" data-name="Layer 2" xmlns="http://www.w3.org/2000/svg" viewBox="0 0 179.73 180"><defs><style>.cls-1{fill:#2b2b2b;}</style></defs><title>bronze</title><path class="cls-1" d="M31.23,31.77v117h117v-117ZM90,47.63A18.73,18.73,0,1,1,71.26,66.36,18.72,18.72,0,0,1,90,47.63Zm45.29,80.45H44.71v-2.51h90.57Zm0-10.75H44.71v-2.51h90.57Zm0-10.75H44.71v-2.51h90.57Zm0-10.74H44.71V93.33h90.57Z"/><path class="cls-1" d="M14.93,15.06V164.94H164.8V15.06Zm7.81,144.82a2.79,2.79,0,1,1,2.79-2.79A2.79,2.79,0,0,1,22.74,159.88Zm0-134.21a2.79,2.79,0,1,1,2.79-2.79A2.79,2.79,0,0,1,22.74,25.67ZM151.92,152.51H27.82V28h124.1Zm5.07,7.37a2.79,2.79,0,1,1,2.79-2.79A2.79,2.79,0,0,1,157,159.88Zm0-134.21a2.79,2.79,0,1,1,2.79-2.79A2.79,2.79,0,0,1,157,25.67Z"/></svg>