<svg id="Layer_2" data-name="Layer 2" xmlns="http://www.w3.org/2000/svg" viewBox="0 0 179.73 180"><defs><style>.cls-1{fill:#2b2b2b;}</style></defs><title>statues</title><path class="cls-1" d="M123.79,39.74a13.19,13.19,0,0,1,.45-3.57,12.76,12.76,0,0,1,1.49-3.38,12.52,12.52,0,0,1,4.16-4h-80a12.4,12.4,0,0,1,4.12,4,12.89,12.89,0,0,1,1.51,3.38A14.08,14.08,0,0,1,56,39.78a14.75,14.75,0,0,1-6.43,11.94,15.5,15.5,0,0,1-4.31,2.05V164.94h88.2V53.41a14.9,14.9,0,0,1-3.25-1.72A14.64,14.64,0,0,1,123.79,39.74ZM69.56,152.48a2.82,2.82,0,0,1-5.64,0V41.24a2.82,2.82,0,0,1,5.64,0Zm22.61,0a2.82,2.82,0,0,1-5.64,0V41.24a2.82,2.82,0,0,1,5.64,0Zm22.61,0a2.82,2.82,0,0,1-5.64,0V41.24a2.82,2.82,0,0,1,5.64,0Z"/><path class="cls-1" d="M156.25,32.74A21.48,21.48,0,0,0,154.37,27a21.07,21.07,0,0,0-3.54-5A20.23,20.23,0,0,0,140,16.27a21.47,21.47,0,0,0-3.1-.35l-2.12-.09-4.08-.13-8.17-.23c-5.44-.15-10.89-.2-16.34-.3l-16.33-.11-16.34.1c-5.45.1-10.89.15-16.34.3L49,15.69,45,15.81l-2.11.09a21.45,21.45,0,0,0-3.11.35A20.36,20.36,0,0,0,28.91,22a20.68,20.68,0,0,0-3.55,5,21.6,21.6,0,0,0-1.88,5.76,19.91,19.91,0,0,0,0,6.12,16.43,16.43,0,0,0,2.18,6,16.12,16.12,0,0,0,9.73,7.39,17.44,17.44,0,0,0,3,.49,16.35,16.35,0,0,0,3.11-.08A12.38,12.38,0,0,0,44.12,52a13.87,13.87,0,0,0,3.36-1.67,13.13,13.13,0,0,0,5.69-10.57,12,12,0,0,0-.4-3.15,11.34,11.34,0,0,0-1.3-2.93,10.64,10.64,0,0,0-4.66-4,10.19,10.19,0,0,0-2.69-.76l-.23,0a9.5,9.5,0,0,0-3,.12,8.12,8.12,0,0,0-5,3.3,7.9,7.9,0,0,0-1.36,5.56,6.24,6.24,0,0,0,3.16,4.63,5.45,5.45,0,0,0,5.21.06A4.29,4.29,0,0,0,45,38.37h-.9a3.09,3.09,0,0,1-1.85,2.79,3.65,3.65,0,0,1-3.42-.42,3.92,3.92,0,0,1-1.7-3,4.94,4.94,0,0,1,4.28-5.12,6.06,6.06,0,0,1,2.76.32,5.62,5.62,0,0,1,.83.36,6.27,6.27,0,0,1,3.34,6.14,8,8,0,0,1-3.75,6.2c-.14.09-.28.15-.42.23a8.74,8.74,0,0,1-6.86.48A10,10,0,0,1,30.36,38a12.92,12.92,0,0,1,.17-3.82,13.94,13.94,0,0,1,1.34-3.6,13.09,13.09,0,0,1,2.35-3A12.52,12.52,0,0,1,41,24.16,12.22,12.22,0,0,1,42.91,24H57.2l32.68.08L122.55,24l8.17,0h6.12a13.54,13.54,0,0,1,1.91.16,12.67,12.67,0,0,1,6.79,3.37,13.37,13.37,0,0,1,2.35,3,13.91,13.91,0,0,1,1.33,3.6A12.93,12.93,0,0,1,149.4,38a10,10,0,0,1-6.9,8.34,8.69,8.69,0,0,1-7.29-.71,7.07,7.07,0,0,1-.63-.44,7.94,7.94,0,0,1-3.11-5.76,6.25,6.25,0,0,1,3.11-6,1.59,1.59,0,0,1,.22-.13,6.16,6.16,0,0,1,3.59-.68,4.92,4.92,0,0,1,3.13,1.72,5,5,0,0,1,1.16,3.4,3.91,3.91,0,0,1-1.71,3,3.65,3.65,0,0,1-3.42.42,3.09,3.09,0,0,1-1.85-2.79h-.9a4.2,4.2,0,0,0,2.13,4.19,5.5,5.5,0,0,0,5.21-.06,6.23,6.23,0,0,0,3.15-4.63,7.83,7.83,0,0,0-1.36-5.55,8.11,8.11,0,0,0-5-3.3,9.79,9.79,0,0,0-3-.12c-.43.06-.86.14-1.28.24a9.19,9.19,0,0,0-1.63.55,10.56,10.56,0,0,0-4.65,4A11.27,11.27,0,0,0,127,36.6a12,12,0,0,0-.39,3.15,13,13,0,0,0,5.68,10.55,14.08,14.08,0,0,0,2.29,1.26,13.31,13.31,0,0,0,3.67,1,17.22,17.22,0,0,0,3.11.08,16.55,16.55,0,0,0,3-.5,16.13,16.13,0,0,0,9.72-7.37,16.83,16.83,0,0,0,2.18-6A20.15,20.15,0,0,0,156.25,32.74Z"/></svg>